<svg version="1.2" xmlns="http://www.w3.org/2000/svg" viewBox="0 0 3352 608" width="3352" height="608"><style>tspan{white-space:pre}.a{font-size: 20px;fill: #ffffff;font-weight: bold;font-family: "Arial"}.b{fill:#fff}.c{fill:none;stroke:#fff;stroke-width:6}.d{fill:none;stroke:#fff;stroke-width:1.9}.e{fill:none;stroke:#fff;stroke-width:1.5}.f{fill:none;stroke:#fff;stroke-width:2.2}.g{font-size: 20px;fill: #ffffff;font-family: "Arial"}.h{font-size: 18px;fill: #ffffff;font-family: "Arial"}.i{font-size: 18px;fill: #ffffff;font-weight: bold;font-family: "Arial"}</style><text style="transform:matrix(8,0,0,8,1811.601,418.255)" ><tspan x="0" y="0" class="a"> 
</tspan></text><path class="b" d="m15.6 582.6q0 0 0.1 0c-0.6 0.3-0.9 0.7-0.5 1.2 0.8 0.9 1.9 1.6 3.2 2.2q-0.7 0-1.4 0 1 0.1 2 0.2c4.7 1.7 11.5 1.3 15.7 1.2 1.9-0.1 3.9-0.3 5.9-0.5 10.5 0.1 22.6 0.1 32.7 0.4 19.2 0.5 38.5 0.8 56.1 2.7 0.7-1 0.7-2.3 1.9-2.7 1.7-0.6 4.8 0.1 6.9 0.4 7.4 1.3 15.6 3.8 23.3 2.6 0.4-0.4-1.6-1-1.9-1.6 2.3-0.5 4.1-1.2 6.1-1.4 7.9-0.8 15.4 3.1 22.9 3.5 3.3 0.1 7.9-0.7 11.2-0.8 3.2-0.2 7.3-0.1 10.7 0 0.9 0 2.3 0.1 2.8 0 1.1-0.3 1.5-1.5 2.6-1.7 1.1-0.2 2.9 0 4.6 0 10.6-0.1 21.5 0.8 31.4 1.3 18.5 0.9 36.4 1.4 53.9-0.5 6-0.6 11.7-1 17.5-0.4 11.4 1 22.1 4 32.8 4.6 0.4-0.3-0.5-0.5-0.8-0.8-1-0.8-2.5-2-3.5-2.9 17.5 3.2 33 3.3 50.1 5.5 5.5 0.7 13.5 1.5 20.8 2.4 0 0.2 0.1 6.5 0.1 9.7-19-0.2-32.6-0.2-49.8 0-27.4 0.2-53 1.4-82.7 0.5-18.1-0.6-35.1-1.2-52.7-2.1-25.9-1.5-53.1-3.2-78.9-4.1-51.3-1.8-105.6-3.8-151.2-12.2-1.2-1.1-2.5-1.9-2.5-3.5 0-1.6 1.7-2.3 2.5-3.6q3.7-1.6 7.5-3.2z"/><path class="b" d="m314 555.9c-2.5-2-5.4-3.7-8.5-5.2 10.2 0.5 20.5 0.7 31.7 0.9 2.6 0.1 5.4 0.3 8 0.2 2.2 0 13.1 0.1 15.4 0.3 7.1 6 25.1 17.9 60.9 36.2 0.4 0.3-7.2-0.8-11-1.4-30.6-5-56.3-13.6-79.7-24.9-4-1.9-8-3.9-13.8-4q-1.3-1.2-3-2.1z"/><path class="b" d="m830.6 579q3.7 1.6 7.5 3.2c0.8 1.3 2.5 2 2.5 3.6 0 1.6-1.3 2.4-2.5 3.5-45.6 8.4-100 10.4-151.2 12.2-25.9 0.9-53 2.6-78.9 4.1-17.6 0.9-34.6 1.5-52.7 2.1-29.7 0.9-55.3-0.3-82.7-0.5-17.2-0.2-30.8-0.2-49.8 0-1.5-1-1.4-4.7-0.1-9.7 7.3-0.9 15.4-1.7 21-2.4 17.1-2.2 32.6-2.3 50.1-5.5-1 0.9-2.5 2.1-3.5 2.9-0.3 0.3-1.2 0.5-0.8 0.8 10.7-0.6 21.4-3.6 32.8-4.6 5.8-0.6 11.5-0.2 17.5 0.4 17.5 1.9 35.4 1.4 53.9 0.5 9.8-0.5 20.8-1.4 31.4-1.3 1.7 0 3.5-0.2 4.6 0 1.1 0.2 1.5 1.4 2.6 1.7 0.5 0.1 1.9 0 2.8 0 3.4-0.1 7.5-0.2 10.7 0 3.3 0.1 7.9 0.9 11.2 0.8 7.5-0.4 15-4.3 22.8-3.5 2.1 0.2 3.9 0.9 6.2 1.4-0.3 0.6-2.3 1.2-1.9 1.6 7.6 1.2 15.9-1.3 23.3-2.6 2.1-0.3 5.2-1 6.9-0.4 1.2 0.4 1.2 1.7 1.9 2.7 17.6-1.9 36.9-2.2 56.1-2.7 10.1-0.3 22.2-0.3 32.7-0.4 2 0.2 4 0.4 5.9 0.5 4.2 0.1 11 0.5 15.7-1.2q1-0.1 2-0.2-0.7 0-1.4 0c1.3-0.6 2.4-1.3 3.2-2.2 0.4-0.5 0.1-0.9-0.5-1.2q0.1 0 0.1 0z"/><path class="b" d="m528.6 558c-5.8 0.1-9.8 2.1-13.8 4-23.4 11.3-49.1 19.9-79.7 24.9-3.8 0.6-11.4 1.7-11 1.4 35.8-18.3 53.8-30.2 60.9-36.2 2.3-0.2 13.1-0.3 15.4-0.3 2.6 0.1 5.4-0.1 8-0.2 11.2-0.2 21.5-0.4 31.7-0.9-3.1 1.5-6 3.2-8.5 5.2q-1.7 0.9-3 2.1z"/><circle class="b" cx="368.2" cy="270.9" r="1.2"/><path fill-rule="evenodd" class="b" d="m536.5 409.7c-0.4 2-1.2 3.8-1.9 5.5-0.6 1.8-1.8 3-2.5 4.7-1.1 2.7-1.8 5-3.3 7.2-1.4 2.2-2.9 4-4.6 5.8-1.4 1.5-2.9 3.1-4.5 4.1q-0.2 0.1-0.5 0.2c-3.3-0.6-6.9-0.9-11-0.9q-1.1 0-2.3 0c-0.4-0.7-1-1.6-1.3-1.9-1.6-1.8-9-2.6-11.8-1.5-1 0.4-2 1.5-3 2.1-1.2 0.7-2.1 1.3-3.3 2 2.3-0.4 4.1 0.1 6.1-0.4 1.5-0.4 2.7-1.2 4.6-1 0.9 0 1.9 0.5 2.8 1.1-7 0.8-14.9 2.4-23.8 5.4-3.2 1.1-6.3 1.6-9.2 1.6-13.2 0.1-25.3-9.5-44.3-9.6q0 0-0.1 0c-19 0.1-31 9.7-44.2 9.6-2.9 0-6-0.5-9.2-1.6-10.5-3.5-19.6-5.2-27.4-5.6-1.2-5.1-1.4-10.7-0.7-16.1 1.7-13.1 7.9-23.3 13-33.3 11.9-23.6 21-49.3 27.1-79.4 0.5-2.6 0.9-5.4 1.2-8.1 0.3-2.8 0.8-5.5 0.7-8.5 0-1.7-0.1-3.5-0.6-5.3-0.4-1.5-1.8-4.1-3.8-3.7-0.4 0.1-2.7 1.6-4.7 2.2-2.9 0.8-5.1 0.9-6.7 1-2.8 0-4.9 1.7-6.8 2.6-3.5 1.7-7.1 3.6-11 4.9-0.8 0.3-1.8 0.6-2.6 1-0.9 0.5-1.5 1.3-2 1-0.5-0.2-0.5-2.1-0.4-2.8 0.8-4.6 4.6-6.2 8.1-8.7 2.3-1.5 4.8-3.8 6.2-6 0.2-0.3 0.6-1.6 0.9-1.7 0.7-0.2 1.8 1.4 2.1 2 0.5 1.5 0.1 4.1 0.8 5.8 0.1 0.2 0.7 1.8 1.2 1.7-0.2 0-1.3-2.3-1.3-3-0.3-2.5 0.9-4.4-0.6-6-0.4-0.4-1.9-0.7-2-1.4 0-0.5 0.9-2 1.2-2.6 3-6.3 8.4-11.3 17.6-11.2 4.1 0.1 7.8 2.8 9.9 5.5 4.1 5.3 11.7 18.7 4.8 52.4-1.8 8.6-5.2 26.6-9 38.9-3.8 12.7-8.1 25.4-11.8 38.7-1.4 5.2-3.4 10.7-3 17.1 0.4 6.1 4.1 11.4 9.9 12.7 8.9 1.9 13-5.2 16.3-10.8 4.7-8.3 10.5-16.4 17.2-22.8 6.9-6.6 15.7-10.8 25.8-14.1 2.9-0.9 6.9-2 9.4-3.8 0.9-0.7 4.2-4.5 2.3-6.5-0.1-0.2-1.6-0.5-1.5-0.9 0.1-0.3 1.5-0.4 1.4-0.4 4.5-0.4 8.5 2.8 9.9 5.3 0.2 0.3 0.3 1.4 0.5 1.5 0.6 0.4 2.2-0.5 2.3-0.6 1.7-1.1 3.6-4.6 2.8-7.3-0.1-0.4-1.2-1.7-1-2 0.2-0.3 1.6-0.1 1.9 0 4.7 0.7 8.5 4.6 9.5 9.4 0.1 0.5 0 2.6 0.2 2.8 0.3 0.4 1.3-1.5 1.4-1.6 0.8-1.4 1.2-2.8 1.9-4.4 0.1-0.3 0.7-2.2 0.9-2.3 0.3 0 2.2 1.9 2.3 2.1 1.8 1.8 3.3 5.9 2.9 9.4-0.1 0.3-0.8 2.7-0.8 2.8 0-0.1 1.9-0.8 2.4-0.7 0.9 0.1 2 0.9 2.4 1.7 0.3 0.8 0.6-0.8 0.7-1.3 0.2-0.8 0.3-1.4 0.4-1.9 0-0.8-0.3-2.5 0.2-2.8 1-0.5 2.5 1.8 3.1 2.3 2.5 2.6 4 5.1 4.5 9.4 0 0.4 0 1.7 0 1.7 0.2 0.1 1-1.2 1.2-1.5 0.1-0.2 0.4-1.5 0.5-1.5 0.5-0.3 1.6 1.8 1.7 2.1 0.2 0.6 0.5 2 0.6 2.9 0 0.4-0.2 2.7 0 2.9 0 0.1 0.6-0.6 0.7-0.8 1.3-1.5 2.6-4.8 2.8-7 0.2-1.4-0.2-2.5 1-1.1 2.3 2.7 4.8 5.2 4.7 10.6 0 0.9-0.8 3.2 0 2.3 1-1.1 3-3.1 3.5-4.8 0-0.2-0.2-1.5 0.2-1.7 0.3-0.1 1.3 0.6 1.2 0.6 0.8 0.6 1.6 2.4 1.9 3.4 0.5 1.6 0.9 3.4 0.6 5.6 0 0.7-0.7 2-0.5 2.2 0.2 0.3 1.7-0.9 2.1-1.1 0.8-0.5 1.6-1 2-1.4 0.5-0.4 1.5-2.3 1.8-2.2 0.5 0.2 0.3 3 0.3 3.9-0.1 0.6-0.3 1.7-0.4 2.6-0.1 0.5-0.6 2.5-0.6 2.5 0.2 0.3 1.1-0.7 0.9-0.5 3-2.2 5.9-4.3 8.1-7.5 0.2-0.3 1.5-2.9 2.1-2.7 0.2 0 0.7 1.6 0.6 1.4 0.9 3.1 1.2 7.2 0.7 10.1zm-51.4-27.7q0 0 0 0 0 0 0 0zm-130-93.3c0.1-0.7-2.7-3.5-3.3-3.4-0.6 0-3.3 1.8-3 2 0.3 0.3 0.6 0.6 0.7 0.7 0.5 0.5 1.9 2.8 2.2 2.9 0.4 0.1 3.4-1.9 3.4-2.2zm12.6-20.7c-3.9 0.7-2.7 6.5 1.3 5.8 3.2-0.7 2.8-6.5-1.3-5.8zm123.3 132c-0.2 0.3-1.6 2.4-1.3 2.6-0.1 0 1-0.8 1.3-1 0.9-0.9 3.3-2.6 4.7-2.4 0.3 0 1.4 1.2 1.7 1.1 0.5-0.3 0.3-2.9-0.1-3.3-0.4-0.5-1.4-0.5-1.9-0.4-2.3 0.4-3.4 1.7-4.4 3.4zm-1.3 2.6q0 0 0 0 0 0 0 0zm-1-8.8c0 0.1 1.6 0.2 1.7 0.2 1.9-0.6 2.7-5.1 2.9-7.5-0.7 1.7-1.7 3.4-2.8 4.8-0.1 0.2-2.1 2.1-1.8 2.5zm-3.1 4.9c-0.5 0.5-1 1.2-1.6 1.9 0 0-1.7 1.7-1.4 1.9 0 0 2.7-0.1 2.7-0.1 0.3-0.1 1-1.8 1.5-2.5 0.8-1 2.7-3.5 3-3.5-1.2 0-3.3 1.5-4.2 2.3zm-0.8 8.2c-1-0.7-2.7-1-4.3-0.8-0.2 0-1.7 0-1.8 0.6-0.1 0.9 1.7 0.6 1.9 0.7 0.9 0.1 2.5 0.7 3.1 1.6 0.5 0.9 0 2.8 0.7 2.2 1.4-1.5 1.9-3.1 0.4-4.3zm-3.3-15.9c-0.1 0.3 0.6 1.2 1 1.3 1 0.1 1.9-2.4 2.4-3.3 0.8-1.3 1.5-2.3 1.9-3.8 0.1 0 0.1 0 0 0-1.1 1.1-2.6 3.3-3.9 4.5-0.6 0.4-1.4 0.6-1.4 1.3zm-6.4-9c0 0.4 1.9 1.8 1.8 1.8 0.6 0 2-1.7 2.6-2.8 0.7-1.1 1.9-4.9 1.8-4.9-0.6 0.3-0.3 0.8-0.5 1-0.5 0.8-1.6 1.9-2.6 2.6-0.6 0.4-3.1 1.6-3.1 2.3zm-1.7 29.3c0.1 0.1 0.2 0 0.4-0.2 0.8-0.9 3.6-2.7 2.3-4.5-0.6-0.8-5.9-2.5-6.9-1.3 0 0.1 0.5 1.4 0.8 1.5 0.3 0.1 0.6-0.3 1-0.3 0.8 0 2.3 0.5 2.7 1.2 1 1.4-0.5 2.5-0.3 3.6zm1.1-12.4c-0.1 0.9-0.9 2.8-0.2 2.2 1.4-1.3 3-7 0.9-8.9-0.3-0.3-2.2-0.9-2.9-0.6-0.8 0.3 0.1 0.5 0.4 0.7 0.9 1 1.8 3.9 1.8 6.6zm-3.6-12.4c-0.5 0.1-3.2 0.4-3.3 0.9 0 0.1 1.9 1.2 2.1 1.1 2.2-1 5 0.3 6 1.4 1.1 1.4 0.2-1-0.3-1.8-1.1-1.5-2.4-1.8-4.5-1.6zm-4.5 15.1c0.2-0.3 0.3-0.7 0.4-1 1.3-3.4 1-6.3-3.4-6.2 0.1 0-0.9-0.1-1.2 0.1-0.1 0-0.3 1.7-0.4 1.6 0.2 0.2 0.9 0 1.2 0 2.2 0.4 3.1 2.7 2.9 5 0 0.4-0.3 0.6-0.1 0.8 0.3 0.3 0.8-0.5 0.6-0.3zm-3-7.2q0 0 0 0 0 0 0 0zm4.8-2.1c0.2-0.1 0.1-1.7 0.1-1.9-0.2-0.8-2-2.6-3.1-2.9-1-0.4-2.5-0.4-3.6-0.3-0.7 0-1.7 0-1.1 0.3 2 0.8 5.1 1.9 6.4 3 0.1 0.1 1.3 1.7 1.3 1.8zm-8.8 0.1c0.1 0.1 1.2 0.9 1.2 0.9 0.1-0.1-0.6-1.8-1-2.2-1.5-2.3-4.4-3.2-7.4-3-1.3 0.1-2.1 0.3-1 0.8 1.6 0.8 2.7 0.8 4.6 1.3 1.3 0.4 2.8 1.6 3.6 2.2zm-4 4.6c-1 0-4.1 0.5-4.4 1.1-0.2 0.3 0.7 1.2 0.9 1.2 0.6 0.2 1.7-0.6 3-0.5 1.8 0.2 2.8 1.4 3.2 2.7 0.5 1.7 0.9-0.4 0.9-1.6-0.1-2.2-1.6-3-3.6-2.9zm10.5-18.8c0.2 0.4 1.9 0.4 2.1 0.3 1-0.3 2.4-3.1 3-4.9 0.3-1.1-0.6-5-0.7-4.9-0.2 0.4 0.1 1.5 0.1 1.7-0.3 2.4-1.8 5.1-3 6.5-0.1 0-1.7 1.1-1.5 1.3zm-15.9 8.3c3.9 0.5 6.2-0.7 9.1-1.4 2.4-0.6 4.5-1.2 6.7-2.1-6.2 0.4-11.4 1.2-15.8 3.5zm2.5-10.9c0.3 0.1 2-0.1 2.1-0.2 0.4-0.2 0.8-2 0.8-2.9 0-0.9-1-2.9-1.3-2.5-0.2 0.2 0.1 0.7 0.1 0.9 0 0.6-0.3 2-0.7 2.9-0.2 0.4-1.2 1.6-1 1.8zm-8.7 5c0 0.1 2.1 0 2.4-0.1 1.5-0.1 2.7 0.2 3.6 0 1.9-0.2 3.7-1.7 5.9-1.1 0.4 0.2 0.6 0.6 0.9 0.7 2.6 0.7 4.9-1.2 6.9-1.3-6.7-1.4-14.1-0.8-19.3 1.6 2.9-1.3-0.5 0.1-0.4 0.2zm-7.9 4.2c1.7 0 2.8 0.1 5.2-0.1 0.8-0.1 2.4-0.3 1.7-0.4-1.3-0.1-3.9-1-4.7-1-2.7-0.1 1.4-2.5-0.1-2.4-0.8 0.1-2.9 2-3.5 2.6-1.4 1.3-0.4 1.3 1.4 1.3zm-14.1 5.5c0.3 0.3 2.9-0.3 3.6-0.4 1.6-0.4 4.7-1.1 5.8-1.6 0.2-0.1 1.3-0.9 1.1-1-0.4-0.3-1.4 0.3-1.8 0.3-1.1 0.3-4.5 1.1-5.1 0.1-0.4-0.7 1.6-2.6 1.2-2.5-1.2 0.3-3.5 2.9-4.1 3.7 0 0-0.9 1.2-0.7 1.4zm-6.1 27.1c-0.3-0.9-1.9-1.8-3-1.9-1-0.2-1.9 0.2-2.5 0.1-2-0.6 1.3-2.8 2.1-3.4 2.4-1.8 5.5-3.6 9.5-3.1 0.3 0.1 1.5 0.6 1.6 0.5 0.3-0.3-0.3-1.2-0.4-1.4-0.3-0.5-1.8-1.4-2.1-1.5-0.6-0.1-0.8 0.3-1 0-0.1-0.1 0.9-1.4 1.2-1.7 1.7-2 5.2-3.3 7.7-3.5 0.8-0.1 2.9 0.6 3 0 0-0.1-1-0.4-1.1-0.5-0.4-0.2-3.2-1.3-3.2-1.7-0.1-0.4 2-1.7 2.3-1.9 2-1 4.8-2 7.5-1.6 0.7 0.2 2.9 1.4 3.6 1 0.1-0.1-2.8-2.8-2.8-3.2 0.1-0.5 1.8-1.1 2.8-1.5 2.1-0.8 6.2-1.3 8.7-0.4 0.4 0.2 2.8 1.9 2.9 1.6 0.3-0.8-1.1-2.2-1.7-2.7-1.6-1.3-4.3-2-6.9-1.7-2.5 0.2-5.2 1.1-6.6 2.2-0.5 0.5-1.5 2.2-2.1 2.4-1.3 0.6-2.9-0.1-4.2 0.4-2.5 0.9-5.2 3.3-6.4 5.4-0.5 0.8-0.5 0.6-1.5 1.1-1.8 0.8-3.4 2.1-4.5 3.6-0.5 0.8-1.2 2.6-1.8 3-1 0.5-2.3 0.5-3.3 1-4.2 2.3-6.5 7.4-8.4 12.1-0.3 0.9 0.8 0.4 1.6 0 1.6-0.8 5.6-4.1 8-1.8 0.1 0.1 0.6 1.3 0.7 1.2 0.3 0 0.4-1.6 0.3-2.1zm-8.9-12.2c0.6 0.5 3.3-0.9 3.8-1.1 3.7-1.4 6.6-2.9 8.7-5.5-1.7 0.8-3.1 1.7-5.1 2.6-0.7 0.3-3.9 2.3-4.6 2.1-1.1-0.3-0.1-2.2 0.3-3.2 0.2-0.6 1.2-2.6 0.8-2.2-1.5 1.4-3.1 3.4-3.6 5.5-0.1 0.4-0.3 1.7-0.3 1.8zm-5.1 7.3c0.3 0.3 1.7-0.6 1.6-0.5 2.5-1.3 4.6-2.4 6.7-3.9 0.6-0.4 3.2-2.7 1.5-1.7-1.9 1-3.8 1.9-5.6 2.7-0.7 0.3-1.6 1.2-2.2 0.8-0.8-0.7 0.5-3.5 0.4-4.6-0.8 1.6-1.8 2.8-2.2 4.9 0 0.4-0.3 2.2-0.2 2.3zm1.4 3.8c0.5-0.3 2.7-3.6 2.8-3.6-0.6 0-2.3 1.5-3 1.9-1 0.6-2.7 2.4-3.6 2.1-0.6-0.2-0.6-2.3-0.9-1.7-0.1 0.3-1.5 3.9-0.4 4.3 0.2 0 2.2-1.3 2.6-1.5 0.8-0.6 1.9-1 2.5-1.5zm2.8-3.6q0 0 0 0 0 0 0 0zm5.5 10.7c-1.7-2.1-6.7-1.1-8.2 0.7 2.3-1.1 5.7-1 6.8 0.9 0.3 0.3 0.4 2 0.7 2.1 0.1 0 1.2-0.5 1.3-0.7 0.5-0.7-0.1-2.4-0.6-3zm2.2-25.8c0 0 1.9-0.5 2.4-0.7 2.9-1.2 5.6-2.3 7.9-4.2 1-0.9-0.6-0.2-1.4 0.2-1.5 0.7-4.1 2.3-5.3 2.5-2.6 0.5 0.7-4 0.3-4.1-0.4 0-2.1 1.5-2.6 2.1-0.4 0.5-0.6 1.4-0.8 2-0.1 0.4-0.8 1.9-0.5 2.2zm35.3 6.3c0-0.1-0.4 1.8-0.3 1.8 0.1 0.1 0.9-1.6 0.9-1.5 1.9-3.4-1.4-6.1-5.3-6-0.4 0.1-1.1 0-1.5 0.1-0.5 0.2-3.3 1.8-3.2 2.2 0.1 0.1 0.7 0.2 1 0.3 1.9 0.8 2.1-0.6 3.9-0.6 2.9-0.1 4.5 1.6 4.5 3.7zm0 0q0 0 0 0 0 0 0 0zm-9 3.3c0-0.2-0.4 1-0.1 1 0.2 0 0.6-1.2 0.7-1.5 1.5-3.3-1-5.7-4.8-5.3-2.8 0.3-4.1 1.5-5.6 2.8-0.7 0.7-0.3 0.6 1.2 0.7 2.1 0.1 2.6-1.5 4.7-1.7 2.6-0.1 4.2 1.6 3.9 4zm-12.8-0.8c-0.4 0-3.1 0.7-3.1 1.1 0 0.2 2.3 1.3 2.1 1.3 1.4 0.1 2.5-0.9 4.1-0.4 1.1 0.3 1.9 1.9 2 3 0.2 1.2 0.2 0.9 0.4 0.4 1.5-3.5-2.3-6-5.5-5.4zm-10.6 8.9c1 1 1.2 0.3 2.6 0 2.1-0.4 3.8 0.6 4.9 1.5 1.2 1 0.7-0.9 0.3-1.6-0.7-1.3-3-1.9-4.5-1.7-0.9 0-3.9 0.6-4 1.1 0 0.1 0.7 0.7 0.7 0.7zm9.4 9.1c-0.7-1-2.6-1.8-4.6-1.5-1.3 0.3-2.3 0.7-3.2 1.4-0.2 0.2-2.4 2.4-1.4 2 1.6-0.7 4.7-1.8 6.6-1.6 0.3 0 2.9 1 3 0.9 0.1-0.1-0.3-1-0.4-1.2zm9.4-5.8c0.2-1.8-1.9-2-3.2-2-2.7 0.1-5.7 1-7.2 2.5-0.3 0.2-1.4 1.8-1.4 1.9 0 0 1.5 0.3 1.7 0.3 1.2-0.2 4-3.1 6.9-2.5 0.5 0.1 2.1 1.8 2.4 1.7 0.3 0 0.8-1.8 0.8-1.9zm-11.8 2.4q0 0 0 0 0 0 0 0zm17.1-10.1c-2.7 0.2-5.2 1.8-6.8 3.1-0.1 0.1-0.7 0.6-0.6 0.6 0 0.1 1.6 0.4 1.7 0.4 0.8-0.1 2-1.3 2.9-1.6 1.6-0.7 4.4-0.8 5 1.3 0.2 1-0.1 1.7 0.6 0.6 1.6-2.5 0.3-4.7-2.8-4.4zm11.6 1.3c0.2-2.8-1.8-3.9-4.2-3.5-0.8 0.1-1.3 0.3-1.8 0.5-0.3 0.1-1.7 0.5-1.8 0.7-0.1 0.2 1.3 1.3 1.3 1.3 0.4 0.1 1.5-0.5 2.3-0.4 1.5 0 2.6 0.7 3.1 1.7-0.2-0.3 0.2 1.3 0.4 1.3 0.2 0 0.6-1.2 0.7-1.6zm1.7-5.1c-0.2 0-2.1 0.5-2.1 0.9 0 0.2 1.2 0.7 1.4 0.9 0.6 0.7 0.4 0.6 1.3 0.5 1.3-0.1 2.9 0.3 3.4 1.4 0.2 0.6-0.1 2.7 0.3 2.4 3.1-2.8 1.2-7-4.3-6.1zm6.6 0.3c1.8 0.5 4.9-0.5 5.7 1.5q-0.1-0.2 0.1 1.3c0.2 0.2 1.1-0.7 1.1-0.7q0 0 0 0c0.7-0.6 1.3-1 0.9-2.1-0.6-1.7-2.9-2-5.1-1.9-0.6 0-1.1 0-1.7 0.1-0.4 0.1-2.1 0.7-2.1 1 0 0 1.2 0.8 1.1 0.8zm6.9 2.1q0 0 0 0 0 0 0 0zm37.7 10.4c-3.4 1.2-8.4 0.4-12.3 0.6-3.2 0.2-7.8 1.4-9.9 3.3-0.4 0.2-0.6 0.8-1 0.8-0.6 0.1-1.1-0.6-1.7-0.6-2.5-0.3-5.2 1.1-7.2 2.1-3.2 1.5-5.6 3.5-9.5 4.5 2.1-0.5 4.2 0.7 6.2 1.4 2.9 1 6.8 1 9.4-0.4 1.3-0.7 2.1-1.8 3.4-2.2 2.5-0.7 5.7-1.1 8.5-0.7 1.5 0.2 3.5-0.5 4.8-1.1 1.2-0.5-2.4-0.6-2.9-0.7-0.9-0.2-4.2-1.1-1.9-1.3 2.9-0.2 6.5 0.2 8.3-0.3 0.2-0.1 1.9-1.4 1.6-1.5-0.1-0.1-1.1 0.2-1.2 0.2-1.4 0.1-2.9 0-3.9-0.1-1.2-0.2-1.8-0.8-0.3-1 2.4-0.4 5.2-0.1 7-0.8 0.8-0.3 2.7-1.6 2.9-2.2 0.2-0.4-0.4 0-0.3 0zm-41.7 10.8q0.1 0 0.1-0.1 0 0.1-0.1 0.1zm42.1-19.3c-2 0.7-4.2 1.8-6.2 2.1-0.6 0-2.2 0.2-2.4-0.3-0.1-0.5 1.3-1.6 1.5-1.9 1.3-1.5 2.4-3 3.3-4.9 0.5-0.9 0.5-1-0.1-1.1-1.5-0.2-3.8 0.3-5.5 0.6-0.5 0.1-1.4 0.2-2.2 0.5-1.1 0.3-4.9 1.9-5.4 2.5-0.3 0.3-0.7 1.6 0 1.2 2.7-1.3 5.2-2.1 8.3-2.9 0.8-0.2 2.9-0.8 3.1-0.1 0.2 0.6-0.9 1.3-1.1 1.6-1.2 1.7-3.1 4.3-4.8 6.2-0.2 0.3-1.7 1.9-1.5 2 0.6 0.2 3.2-0.8 3.8-1 2.7-0.8 4.6-1.3 6.7-2.6 0.4-0.3 3.3-2.1 2.5-1.9zm1.7-15.4c-0.1 0-0.1 0.2-0.1 0.2-1.2 1.4-1.7 2.6-2.9 4.3-0.3 0.4-1.8 2.3-1.6 2.4 0.1 0.1 1.2 0 1.4-0.1 0.7-0.4 2.2-2.7 2.6-3.8 0.2-0.3 0.8-2.9 0.6-3zm14.1 10.9c-2.6 2.6-4.8 7.2-6.8 9.9-0.1 0-0.5 0.4-0.3 0.2 1.1-0.6 2.6-2.2 4.2-3.6 1.2-1.1 2-2.9 2-4 0.1-0.3 1.6-3.3 0.9-2.5zm10.2 0.2c-0.5-0.2-2.4 1.1-2.7 1.6-0.1 0.1 0 1-0.2 1.3-0.2 0.9-1.5 3.4-2 4.1-0.3 0.5-1.3 2-0.5 1.1 1.4-1.7 3.9-4.2 4.8-5.8 0.4-0.8 0.7-2.3 0.6-2.3zm-23.3 32.2q2 0 3.9 0.1c-4.2 0.7-8.4 2.1-12.3 3.4-7.8 2.6-15.5 3.7-24.3 4.8-7.7 1-15.4-0.3-21.9-2-1.9-0.5-3.8-1.4-5.7-1.9-3.8-1.1-8.5-1.9-12.7-2.5-2.6-0.4-5.4-0.4-7.8-0.2-5 0.4-9.7 1.1-14.2 2.3-4.4 1.2-8.7 2.6-13.1 3.5-2.1 0.4-4.1 1.1-6.3 1.7-2.3 0.5-5.3 0.8-8.1 1.1-3.7 0.4-7.5 0.1-10.7 0-4.9-0.3-9.7-0.7-14.4-1.9-4.4-1.1-8.9-3.2-13.8-3.6-1.6-0.2-2.6-0.5-3.1-1.8q-0.6-1.3-1.1-2.8c7.3 0.5 15.8 2.1 25.6 5.5 3.6 1.2 7 1.7 10.2 1.7 14.7-0.2 26.3-9.7 44.2-9.6q0 0 0.1 0c17.9 0 29.6 9.5 44.3 9.6 3.2 0 6.6-0.5 10.2-1.7 9.7-3.3 18.1-4.9 25.3-5.5 0.2 0.3 0.3 0.7 0.5 0.8 0.4 0.1 2.6-0.8 3.3-1q1 0 1.9 0z"/><path class="b" d="m302.8 450.3c8.9-5.4 25.2-18.9 66.5-5 4.2 1.4 10.8 2.4 21-0.8 17.6-5.4 29.9-11 51.6-4 23.5 7.6 25 7.9 43.4 2 2.4-0.8 33-9.9 56.6 7.3 1.1 0.7-9.3 21.7-10.1 22.7-0.8 1-16.7-15.1-56.1-2.5-8.5 2.8-12.9 3.3-28.7-1.9-11.4-3.8-21.3-7.9-42.1-2.2-6.5 1.8-21.8 9.7-35.5 3.9-4.1-1.7-18.7-5.9-36.2-4.2-11.2 1.1-19.5 7.5-19.9 6.9-0.4-0.6-5.5-11.3-6.1-12.7q-0.7-1.4-4.4-9.5z"/><path class="b" d="m326.3 494.5c0.8-0.4 12.6-8.6 45.2 0.2 1.8 0.4 10 6.6 26.2 0.3 13.5-5.2 24.8-9.1 44.4-2.2 4.4 1.5 18 8.3 31 2.5 11.8-5.2 34-6.8 46.2-1.2 0.4 0.2-30.7 51.1-96.7 90.2-0.6 0.4-58.9-34.5-91.7-82.6q-1.1-1.8-4.6-7.2z"/><path class="c" d="m563.9 290.8v38.4c0 160.7-93.4 225-141.3 255.1-48-30.1-141.4-94.4-141.4-255.1v-39.7"/><path class="b" d="m560.9 278.3v-2-4h6c0 1.9 0 2.9 0 3.5q0 0.1-1.8 0.5c-0.6 0.6-4.2 2.1-4.2 2z"/><path class="c" d="m281.2 266.3v-35.3-3h141.4 141.3v3 33.7"/><path class="b" d="m279.1 275.8c-0.5-0.5-0.8-2-0.8-2.1v-1.4h5.9v2.9 2.9c-0.1 0.7-2.2-1.4-3-1.4z"/><path class="d" d="m313.5 472.9c7.7-5 25.6-13.5 58.3-2.4 17.6 6 29.6-7.5 50.9-7.4 21.3 0 33.3 13.4 51 7.4 32.4-11 50.2-2.7 58 2.2m-205.6 21.6c8-3.4 23.8-7 50.6 2.1 16 5.4 26.6-7.5 46-7.4 19.4 0 30.7 12.8 46.7 7.4 26-8.8 41.8-5.7 50-2.4"/><path class="b" d="m227.5 204.6c0 0.2-0.2 0.1 0 0z"/><path class="b" d="m168.1 106.2c-0.1-0.3-0.1-0.7-0.1-1-0.1-0.1 0-0.1 0.1-0.2 0.1 0 0.2 0.1 0.2 0.2 0 0.3 0 0.6 0.1 0.9 0 0 0 0.2-0.1 0.2q0 0 0 0-0.2 0-0.2-0.1z"/><path class="b" d="m211.9 130.8q0 0 0-0.1-0.1-0.1 0.1-0.2c0.1 0 0.2 0 0.2 0.1q0 0.1 0.1 0.1c0 0.1-0.1 0.2-0.2 0.3q0 0 0 0-0.1 0-0.2-0.2z"/><path class="b" d="m209.5 241.1q-0.2-0.2-0.2-0.4c-0.1-0.1 0-0.2 0.1-0.3 0.2 0 0.3 0 0.4 0.2q0 0.1 0.1 0.2c0 0.1 0 0.2-0.1 0.3q-0.1 0.1-0.1 0.1-0.2 0-0.2-0.1z"/><path class="b" d="m249 278.3c-0.3-0.1-0.6-0.2-0.9-0.2-0.1 0-0.2-0.1-0.2-0.2 0-0.2 0.1-0.2 0.2-0.2 0.4 0 0.8 0.1 1.1 0.2 0.1 0.1 0.1 0.2 0.1 0.3q-0.1 0.1-0.2 0.1 0 0-0.1 0z"/><path class="b" d="m272.3 274.5c0-0.1 0-0.2 0.1-0.3 0.2 0 0.3 0 0.3 0 0.1-0.1 0.2 0 0.2 0.1 0.1 0.1 0.1 0.2 0 0.2q-0.2 0.1-0.4 0.1 0 0 0 0c-0.1 0-0.2 0-0.2-0.1z"/><path class="b" d="m272.2 269.1c-0.1-0.1-0.1-0.1 0-0.2 0.2-0.2 0.4-0.2 0.4-0.3q0.1-0.1 0.2-0.1c0.1 0 0.1 0.1 0.1 0.2-0.2 0.3-0.5 0.2-0.6 0.4q0 0-0.1 0 0 0 0 0z"/><path class="b" d="m267.5 266c0-0.1 0-0.2 0.1-0.2 0.2 0 0.4-0.2 0.7-0.2 0.1-0.1 0.2 0 0.2 0.1q0 0.1-0.1 0.1c-0.2 0-0.4 0.2-0.8 0.3h0.1q-0.1 0-0.1 0-0.1 0-0.1-0.1z"/><path class="b" d="m223.6 247.1q0-0.1 0-0.3c0 0 0-0.1 0.1-0.1q0 0 0.1 0.1 0 0.1 0 0.2 0 0.1 0 0.2-0.1 0-0.1 0 0 0-0.1-0.1z"/><path class="b" d="m245.8 552.2c-0.1-0.1-0.2-0.2-0.1-0.3 0-0.2 0.2-0.2 0.3-0.2q0.1 0.1 0.1 0.1 0 0 0.1-0.1c0.1 0 0.2 0.2 0.2 0.3 0 0.1-0.1 0.2-0.2 0.2q0 0-0.1 0-0.1 0-0.3 0z"/><path class="b" d="m274.8 553.4c-0.1 0-0.2-0.1-0.2-0.2 0 0 0.1-0.1 0.2-0.1 0.2 0 0.4 0 0.6 0q0.1 0 0.1 0.1 0 0.1-0.1 0.2z"/><path class="b" d="m273.5 550.4q-0.2 0-0.3 0 0 0-0.1 0c-0.1 0-0.2 0-0.2-0.2 0-0.1 0-0.2 0.2-0.2q0 0 0.1 0 0.2 0 0.4 0c0.1 0 0.2 0.2 0.2 0.3 0 0.1-0.1 0.1-0.2 0.1q0 0-0.1 0z"/><path class="b" d="m225.9 460.2q-0.1-0.1-0.1-0.3 0-0.1 0.1-0.3 0 0 0.1 0 0.1 0 0 0.1 0 0.1 0 0.2 0 0.1 0 0.2 0.1 0 0 0.1 0 0 0 0-0.1 0-0.1 0z"/><path class="b" d="m226.9 381.4c0-0.1-0.1-0.1-0.1-0.2 0.1-0.3 0.1-0.6 0.2-0.9 0 0 0.1-0.1 0.2 0 0.1 0 0.1 0.1 0.1 0.2-0.1 0.2-0.1 0.4-0.2 0.7q0 0.2-0.1 0.2z"/><path class="b" d="m207.9 565.1c0-0.1 0.1-0.2 0.3-0.2q0.1 0 0.4-0.1c0.1 0 0.2 0.1 0.3 0.2 0 0.1-0.1 0.3-0.2 0.3q-0.2 0-0.4 0-0.1 0-0.1 0c-0.2 0-0.3-0.1-0.3-0.2z"/><path class="b" d="m167.1 440.6c-0.2 0-0.2-0.2-0.2-0.3 0-0.1 0.1-0.2 0.2-0.2 0.1 0 0.3 0 0.4-0.1 0.1 0 0.3 0 0.3 0.2 0 0.1 0 0.2-0.2 0.3-0.1 0-0.3 0.1-0.5 0.1q0 0 0 0z"/><path class="b" d="m84.2 581.6q0 0 0 0v-0.1c0-0.1 0.1-0.2 0.2-0.2 0.1 0 0.1 0.1 0.1 0.2v0.1c0 0.1 0 0.2-0.1 0.2-0.1 0-0.2-0.1-0.2-0.2z"/><path class="b" d="m83.4 581.8v-0.2c0-0.1 0.1-0.2 0.2-0.2 0.1 0 0.2 0.1 0.2 0.2v0.2c0 0.1-0.1 0.1-0.2 0.1-0.1 0-0.2 0-0.2-0.1z"/><path fill-rule="evenodd" class="b" d="m314.2 176.1c-3.8 2.8-8.6 4.7-12.8 6.8-13 6.5-25.4 14.6-35.9 22.9-4.1 3.3-8.6 10.3-6.8 18.4 0.6 2.5 1.8 5.4 2.6 8 0.2 0.7 0.4 2.5 0.8 2.7 0.8 0.4 5.2-1.8 5.8-2.1 2.1-0.9 4-1.6 5.2-2.6 0.8-0.7 1.5-2.3 2.7-3.3 0.8-0.7 1.3-1.4 2.1-2.2 0.7-0.8 1.9-1.1 2.8-1.9 0.6-0.6 1-1.6 1.6-2.2 0.6-0.4 2.2-0.7 2.5-1.2 0.5-0.9 0.1-2.5 0.3-3.4 0.9-2.8 3.8-5.1 6.6-3.2 0.1 0.1 1.2 1 1.2 1 0.3 0 1.1-1.6 1.6-2 2-1.9 5.1-2.5 7.2-0.4 0.6 0.5 1.3 3.1 1.9 3.3 0.5 0.1 0.9-0.8 1.7-0.9 2.3-0.2 3.9 1.6 4.2 3.7 0 0.4-0.4 2.1-0.1 2.5-0.1-0.2 2.2-0.5 2.9-0.2 1.2 0.5 1.8 2.1 1.8 3.5-0.1 4.2-4.2 6.5-7.5 8.2-0.6 0.3-4.9 3.4-5.7 2.2-0.2-0.3 0.8-1.4 1.2-2.3 0-0.1 1.1-2.2 0.5-2.7-0.5-0.3-2.1 2.1-2.6 2.6-0.4 0.4-2.3 1.9-2.9 1.4-0.6-0.5 1-2 0.8-2.9 0 0.2-2.5-2.1-2.3-2.2-0.4 0.1-0.5 1.4-0.5 1.6-0.3 0.6-3.7 4.1-4.3 3.3-0.4-0.6 1-2.5 0.5-3.2-0.2-0.3-1-0.1-1.6-0.4-0.6-0.2-1.5-1.7-1.9-1.8-0.5 0-2.4 2.4-2.8 2.7-1.7 1.6-5.1 4.3-7.5 1.6q0 0 0 0 0 0 0 0c0 0-0.6-1.8-1.1-1.8-0.4 0-2.2 2.6-2.8 3-2.1 1.3-5.8 2.5-8.8 3.6q0 0-2.1 0.8c-0.2 0.4 1.5 4.2 1.7 4.8 0.4 0.9 0.5 1.4 0.9 2.4 0.1 0.3 0.5 2.1 0.9 2.3 0.7 0.3 2.9-1.4 3.3-1.7 2.3-1.5 3.7-1.9 6.5-3.1 0.7-0.3 5.6-2.5 5.6-0.8 0.1 1.1-7.3 4.3-8.1 4.7-0.7 0.3-1.9 0.8-3 1.5-0.4 0.3-2.7 1.7-2.8 1.8-0.2 0.7 0.8 1.4 1.1 1.9 0.7 1.3 1.2 2.4 2 4.2 0.5 1 1.7 3.6 2.5 3.9 0.5 0.2 1.3-0.1 1.7 0 1.2 0.2 2.6 0.8 3.2 1.7 0.1 0.1 0.2 1 0.3 1.1 0.3 0.2 2.1-0.2 2.3-0.2 0.9 0.2 2.7 0.7 3.6 1.6 0.8 0.8 0.5 1.8 1.2 2.9 0.9 1.2 2.6 0.9 3.5 1.7 0.5 0.5 1.6 1.9 1.6 3.7 0 1.2-0.6 1.3-0.6 1.9 0 1.1 0.9 3.3 0.2 5.2-0.1 0.3-0.9 1.8-1.3 1.8-0.7 0-0.6-1.3-0.8-2-0.6-2.1-1.4-3.9-3.9-3.8-0.1 0-1.8 0-2 0.1-0.1 0.1 0.8 2 0.7 1.8 1.2 1.8 5.4 3 5.8 5.6 0 0.5-0.3 1-0.3 1.5 0.2 2.3 1.8 4.4 0.6 7.4-1.7 4.5-8 4.1-10.9 0.6-1.1-1.5-1.1-1.9-3.2-2.7-2.9-1.1-4.2-4-6.6-5.2-3.9-1.9-10.6-2.7-15.8-2.1-3.9 0.5-8.2 0-11.6 0.3-0.2 0-2.1 0.1-2.2 0.2-0.5 0.4-1.1 7.6-1.3 8.5-2.6 17.3-1.3 34.3-3.1 52-0.2 1.6-0.9 4.1-0.6 5.4 0.2 1.1 1.7 2.2 2.3 3.4 2.6 5.2 4.5 12.1 6 18 2.8 10.9 2.5 24.5 1.6 36.1-0.2 2.7-0.7 5.4-1.3 7.9-0.7 2.7-1.5 5.2-2.4 8-0.3 0.7-0.6 1.5-0.8 2.2-0.3 0.8-0.6 1.4-0.9 2.3-1.7 4.4-4.3 8.4-5.8 12.7-3.3 9-3.3 20.2-4.8 30.4-0.4 2.6-0.8 4.8-1.2 7.5-0.3 2.9-0.7 6.3-1.2 8.1-0.6 2.4-0.7 5.5-1 8.8-0.7 8.1-1.7 17.6-2.9 25.5-0.9 5.8-0.8 13.6 4.3 16 10.3 4.8 23.9 7.1 36.3 7.8 3.8 0.2 9.4 0.6 14.2 1.7 2 0.4 4.8 0.7 6.8 0.6 1.6-0.2 4.2-1.1 7.1-0.8 2.1 0.3 5.8 1.6 7.9 2.6 2 0.9 3.3 1.6 5.4 2.8 0.9 0.4 2.3 1.1 2 1.8-0.4 0.7-1.9-0.5-2.3-0.3q0.5 1.4 0.7 1.5c0.3 0.2 1.2 0 1.7 0.1 1.3 0.3 3.4 1.9 4.6 2.9 0.7 0.6 0.4 0.5 0.4 0.6-0.4 0.6-5-0.5-6.8-0.3-1 0.1-1.3 0.4-2 0.5-1.7 0.1-4.5-0.6-2 0.6 0.5 0.2 3.3 1.7 2.6 2.4-0.5 0.5-3.7-0.8-4.8-0.5-1.2 0.3-3 1.6-4.7 1.9-3.8 0.9-9.8-2-13.8-1.3-1 0.2-2 0.7-2.8 0.9-2.1 0.3-3.9-0.2-6.3-0.3-9.9-0.5-22.2-2.2-31.6-2.5-4.1-0.2-8.5-0.2-12.6-0.3-4.5-0.1-8.6 0.7-12.9 0.8-1.4 0-1.8-0.2-3.6-0.3-0.7 0-3-0.2-2.9 0.6 0 0.6 5.2 2.3 5.2 2.3 4.2 1.2 9.5 1.4 14.8 2 4.2 0.4 8.5 0.9 12.6 1.2 1.6 0.1 3.3 0.5 4.9 0.4 4-0.1 8-1.2 12.4-0.8 3.3 0.3 5.1 1.2 8.2 1.8 3.7 0.7 7.6 0 11.3 0.5 3.1 0.4 6.5 2.9 9 3.9 0.5 0.2 0.9 0.9 1.3 1.1 0.3 0.1 0.4-0.2 1.2 0.1 0.6 0.2 4.5 2 4.2 2.5-0.2 0.6-3.4-0.2-4.7-0.1-1 0.1-3 0.2-1.3 1 1.1 0.5 4.1 0.7 5.7 1.6 0.5 0.2 2.9 2.4 2.5 2.7-0.4 0.4-4.9-1.1-6.6-0.4-0.6 0.1-1.7 0.9-2.5 1-0.9 0.2 0.8 0.7 1.1 0.9 0.6 0.4 3.4 3 2.2 3.8-0.4 0.2-1.8-0.8-2.3-0.9-1.5-0.4-3.8-0.6-5-0.5-0.6 0.1-1.1 0.6-1.8 0.9-2 0.7-4.2-0.1-6.9 0.3-1.8 0.3-3.6 1.1-6.5 0.8-2.3-0.3-4.7-1.1-7.3-1.3-9.5-0.5-16.9-0.8-26.4-1.5-11.7-1-22.2-2.5-33.4-1.8-7 0.4-13.1 0.9-19.8 0-1.6-0.3-3.5-0.5-4.2-0.9-1.1-0.5-1.7-2-3.3-2.2-1-0.1-2.2 0-3.4 0-11.5 0.1-21.7 0.2-33.2 1.2-1.9 0.2-4-0.1-5.3 0.2-1.3 0.2-3.3 1.7-5.2 2.3-16.8 4.9-39.7 5.6-59.7 5.2-9.3-0.2-20-0.8-31-0.9-3.7 0-7.1 0.1-10.3-0.7-2.3-0.6-7.4-3.1-7.3-5.1 0.1-1.6 4.7-2 6.8-2.4 7.5-1.5 15.4-3.2 22.9-3.7 9.8-0.6 18.8-0.9 28.1-1.4 3.3-0.2 6-0.2 8.8-0.7 18.1-3.4 38-7 46.1-21.1 3.5-6.3 4.6-13.4 5.9-20.4 0.7-4.1 1.2-8.2 1.7-12.3 1-8.8 0-17.4 0.5-26.3 0.1-1.6-0.3-3.3-0.2-5 0.1-0.6 0.1-1.3 0.1-2.1 0-1 0.1-2.8 0.1-3.6-0.2-3.9 0.3-7.6 0.3-11.3 0.1-10.6-0.5-24.1-1.7-37.2-0.4-4.5-1.5-8.9-1.8-13.2-0.6-9-1.1-16.7-0.5-24.3 0.4-4 0.9-7.5 1.2-11.8 0.3-2.9 1.1-6 1.6-9.1 1.8-10.3 5.1-18.9 8.9-28.5 3.4-8.8 6-20.1 9.3-28.8 1.8-4.8 3.8-9.5 5.4-14.4 3.2-9.8 5.7-19.4 9.5-29.6 1.8-5 3.8-10.4 4.4-15.2 0.3-2.9-0.5-6.3-0.7-9.4-0.3-6.5-1-13.7-0.9-20.9 0-9.7 2.8-18.3 3.7-27.3 0.5-4.5 1.3-9.6 1.1-13.9-0.2-5-1.6-9.4-1.8-14.8-0.1-1.5 0.1-3.1 0-4.7-0.3-3.2-1.5-6.3-2.3-9.5-0.9-3.3-1.4-6.7-1.9-10-1.1-6.5-2-13.3-0.8-19 0.1-0.4 0.7-1 0.6-1.5 0-1.1-2.4-3.8-3-4.8-1.9-3.3-3.1-7.2-3.5-12.6-0.5-5.5 0.8-13.4 2.8-17.5 0.4-0.8 2.6-3.1 4.5-2.2 0.7 0.4 0.9 1.3 1.4 2 3.1 3.9 8.6 8.2 10.3 13.7 1.2 3.7 1 7.2 2.1 11 0.1 0.4 0.4 1.6 0.5 1.6 0.5 0.3 2.8-1.3 3.5-1.9 6.7-5.4 8.4-13.9 11.7-22.6 0.8-2.1 1.7-3.9 2.8-5.9 0 0 0.2-0.2 0.1-0.2 0.3-0.1 1.6 0.1 2.1 0.3 2.4 1.1 4.9 6.7 5.2 10 0.6 6.9-2.5 13.6-3.5 18.8-0.1 0.6-0.1 7 0 7.3 0.1 0.3 2 2.4 2.4 2.5 0.8 0.3 1.8-0.3 2.8 0 1.9 0.6 3.8 3.4 4.2 4.7 0.2 0.4-0.1 1.3 0.2 1.5 0.5 0.5 1.9-0.2 2.3 0.4 0.8 1.1-1.9 1.1-2.5 1.7-1.6 1.4 0.8 2.7 1.9 3.7 2.9 2.8 5.8 8 8.8 10 1.5 0.9 3.6 1.6 4 3.2 0.1 0.3-0.3 0.9-0.3 1.4 0.1 1.5 0.9 3 0.8 4.6-0.3 4.1-2.7 9.7-7.9 9.8-1 0-1.2-0.7-2.1-0.6-0.8 0-2 1-3.2 1.4-1.3 0.4-2.7 0.7-4.3 0.5-0.5-0.1-1.7-1.2-2.5-0.6-0.5 0.3-0.1 3.4 0 4.2 0.5 4.7 2.6 8.8 4.3 12.3 1.8 3.5 2.5 7 5 9.9 2.6 3 5.8 5.2 8.5 8.6 1.1 1.5 2.1 3.1 3.4 5.1 0.9 1.5 1.8 2.8 2.8 5.2 0.2 0.5 0.5-2.7 0.7-3.9 0.8-5.2 4.3-10.5 8.5-13.7 16.4-12.3 37.9-21.7 60.4-28.4 3.5-1.1 9.7-3 12.9-0.8 4.6 3.3-1.5 9.3-3.8 10.9zm-111.1-90q0 0 0 0 0 0 0 0zm79.9 190.3q0 0 0 0 0 0 0 0zm23.7-56.9c1.6 1.2 0.3-2.9-0.6-3.1-0.3-0.1-0.8 0-1 0.1-0.3 0.1-0.7 0-0.9 0.6-0.6 1.7 1.6 1.7 2.5 2.4zm-11.9-3.1c0.2 0 2-1.1 2.1-1.1 2.4-0.6 3.7 0.8 4.6 2.5 1.2 2.3 0.6-1.1 0.1-2.3-0.6-1.7-1.7-2.8-3-2.8-1.1 0.1-2.4 0.8-2.8 1.4-0.5 0.5-1.4 2.1-1 2.3zm-7.8 2.7c0.2 0.2 1.9-1.5 2-1.5 0.6-0.3 2-0.4 2.9-0.2-0.3 0 1.1 0.8 1.2 0.7 0.3-0.3-2-3.3-2.4-3.6-0.4-0.2-1.2-0.2-1.3-0.2-0.4 0.1-0.9 0.5-1.1 0.7-0.3 0.3-1.9 3.8-1.3 4.1zm4.9-1.6q0-0.1 0-0.1 0 0 0 0.1zm-26.5 45.9c-1.7 1.3-3.6 2.8-5.5 3.3-3.6 1.1-9.1 0.3-13.2 0.3-3.4 0-6.9-1-10.4-1.6-6.7-1-13.4-3.2-19.7-5.1-3.1-0.9-6-2.3-8.7-2.6-1.5-0.2-3.6 0-4.4-1-0.6-0.7-0.4-3.2-0.5-4.4-0.1-3.1 0.5-5.4 1.1-8.1 0.2-1.2 0.5-4.5 1.5-4.5q1.6 3 1.9 3.9c0.3 1-0.2 1.6 0 2.3 0.3 1.2 2.3 2.3 3.1 4.3 0.3 0.6 0.2 1 0.4 1.4 0.4 0.6 1 0.7 1.3 1.2 1.3 2 0.5 2.5 3.3 3 0.8 0.2 2.1 0.7 3.3 1 0.7 0.3 2.2 1.3 3 1.1 2.6-0.7 1.2-8.6 1.7-10.9l0.1 0.1 0.1-0.1c2 2.3 3.9 5.3 5.7 6.9 0.7 0.6 3 2.4 3.7 1.8 0.3-0.2 0.4-3.3 0.5-4 0.2-12.6-3-23.2-7.8-31.9-0.1-0.2-1.7-2.3-1-2.6 0.9-0.4 1.9 2.2 2.6 3.3 3 5.1 6.1 11.5 7.6 18.3 1.3 5.4 1.5 10.1 1.2 16.7 0 1.4-0.4 3.5 0 4.7 0.1 0.2 2 2.8 2.5 2.5 0 0 0.7-2.8 0.8-3.2 1.4-4.5 3.2-9.3 3.1-14.7 0-3.9-1.1-10.1-2.4-13.3-3.6-9.4-6.7-19.4-12.8-26.9-2.8-4.5-6.5-7.3-10.2-10.9-4.4-4.2-7.7-13.1-8.8-20.1-0.1-0.4-0.2-4.3-0.8-2.2-0.8 3.6-0.4 9.5 0 12.7 0.2 1-0.1 1.9 0 2.8 0.5 3 2 5.3 2.5 7.8 0.3 2.1-1.1 3.1-1.5 4.8-0.7 3.4 1.2 4.7 1.6 7.8 0.3 3.3-1.1 6.5-1 9.3 0 1.4 0.3 3.2 0.5 4.6 0.2 2-0.9 0.6-1.3-0.4-0.8-1.7-1.9-3.7-2.5-5.5-1.1-3.8-2.1-6.1-4.7-8-0.6-0.5-1.8-2.3-1.4-0.3 0.3 1.7 1 4.1 1.3 5.5 0.1 0.7 0.1 1.8 0.4 2.4 0.4 0.8 1.5 1.3 2.1 2.1 0.7 0.8 1.1 2.1 1.3 3.2 0.2 2-0.7 3.8-0.2 5.1 0.4 0.8 1.5 1.1 2 1.7 0.5 0.6 1.1 1.5 1.4 2.3 0.7 1.7 0.2 3.5 0.5 5.5 0.3 1.7 1.3 4 1.1 5.9l-0.3-0.1-0.2 0.2c-1.1-1.2-0.9-3.6-2-5.1-0.5-0.5-3.3-2.1-3.9-1.5-0.7 0.5 0 3.3 0 4.2-0.1 4.3-2.7 8.1-6.2 9.6-1.3 0.5-3.4 0.6-4.2 1.8-1.3 1.6-1.5 6.1-0.9 7.7 0.7 1.8 3.2 4.9 4.1 5.6 0.3 0.2 0.7 0.1 1 0.3 2.6 1.1 4.8 3.5 8 4.6 4.5 1.4 10.9 1.3 15.5 2.5 0.7 0.2 1.2 0.6 1.8 0.6 1.6 0 3.6 1.1 5.8 1.8 2.9 0.9 6.3 0.7 9.2 1.7 3.6 1.3 7.3 2.3 10.8 3.1l-0.2 0.2 0.1 0.2c-9.3-0.3-19.8-1.5-29.1-2.9-2.3-0.3-4.7-1-6.8-1.1-2.8-0.1-5.3-0.9-8.1-1.1-2.4-0.1-5 0.5-7.1 0-0.7-0.1-1.3-0.7-2-0.8-0.5-0.1-0.9 0.2-1.4 0.1-5.9-0.9-6.8-6.8-6.7-13.2 0.1-3.2 0.9-6.1-0.3-8.5-1-1.9-2.8-3.5-3.8-5.7-1.1-2.4-1.3-5-2.7-7.3 0.9 7.7 1.7 14 2.3 21.6 0.6 6.4-0.1 14.3 5.5 16.5 2.3 0.9 4.8 0.3 7.7 0.4 6.3 0.1 12.9 1.1 19.5 1.6 6 0.4 12 1.2 18.2 1.4 7.4 0.2 15.7-0.2 22.9-0.2 4.9-0.1 10.6 0.8 13.9 2.7 1.6 1 3.7 4.7 6.2 4.4 0.2 0 1.9-1 2-1.4 0-0.3-2.1-2.6-2.4-2.8-1.3-1.4-3.4-2.1-5.5-3.3 0.4 0.2-0.8-0.1-0.6-0.6 0-0.1 5.5 0.7 5.7 0.7 2.7 0.6 6.8 2.2 9.3 3.6 1.4 0.9-0.2-1.5-0.6-2.1-2.1-3.3-7.2-4.8-11.5-5.5v-0.2l-0.3-0.1c2.8-1.4 5.1-2.3 8.9-3.2 0.7-0.2 5.1-0.8 5.3-1.2 0.1-0.2-2-2.4-2.2-2.4-2.8-1.1-8.7 1.6-11.6 1.3l-0.1-0.2-0.3 0.1c0.6-1 2-1.2 3.3-2.4 0.7-0.7 3-2.9 2.2-3.6-0.5-0.4-2.9 0.8-3.8 1.1-2.3 0.9-3.5 1.7-5.9 2.1v-0.2l-0.1-0.2c1-0.2 3.1-5.2 3-5.3-1.2-0.4-5 2.6-5.8 3.2zm-23.1 0.9c4.1 1 10.1 0.9 14 0.8 1.5-0.1 2.6 0 2.2-0.8-0.8-1.3-4.3-7.5-5.2-7.4-0.2 0.1-0.2 0.2-0.3 0.3-2.5 2.1-5.6 3.7-8.8 5.5-0.8 0.5-2.8 1.4-1.9 1.6zm-13.6-108.1c-0.5 2.9-2 4.7-3.6 6.2-0.6 0.7-2.5 2.1 0 1.1 2.1-0.8 4.7-5.6 4.3-8.3 0-0.4-0.3-0.8-0.5-0.7-0.4 0.2-0.2 1.4-0.2 1.7zm-19.4-24.3c0.6 0.9 1.9 1.8 2.9 3.3 1.5 2.3 3 4.4 4.9 6.2 1.1 1 2.6 2.3 3.8 3.5 1.3 1.2-0.4-1.2-0.6-1.5-1.4-2-2.7-3.9-4.8-5.8-0.8-0.7-3-1.7-3-2.6-0.1-0.5 0.6-0.9 0.6-1.5-0.1-1.1-1.6-1.6-1.2-2.8l0.2 0.1 0.1-0.2c2.9-0.7-1.1-4.8-3.4-3.8-0.7 0.4-0.4 3.7 0.5 5.1zm-6.4-0.1c-0.1 0-0.1 0.1-0.1 0.1-0.4 0.4 1 2.7 0.9 2.6 2 3 9.4 5.1 10.5 9.5 0.2 1 0.3 2.5-0.2 3.3-0.5 0.9-2 0.4-2.4 1-0.5 0.8 0.3 2.8 0.7 3.5 0.8 1.1 2.8 2.8 3.5 3.3 0.4 0.2 1.6 0.1 1.6 0.7 0 1.3-2.4-0.3-2.9-0.3-1.3 0.2-0.9 1.5-2.6 0.8-2-0.8 0.5 2.3 1.1 2.9 0.3 0.3 1.8 1.5 2.4 1.8 0.5 0.3 2.1 0.1 2 0.8-0.1 1-4 0.4-4.3 0.3-2.6-1.1-5.4-4.7-8.3-5.3-1.5-0.4-3.6-0.5-3.4 0 0.9 1.3 4.1 2.8 4.9 3.8 0.9 1.3 0.3 1.1-0.9 1.2-4.6 0.7-12.1 0.6-15.4-1.8-2.9-2.2-5.8-4.4-8.2-7.4-0.9-1-1.4-2.2-2.2-3.7-0.4-0.8-2.2-3.8-2.2-3.4 0.3 1.8 0.9 5.2 1.3 6.7 0.4 1.4 1.5 4.2 2.9 5.9 1.5 2 5.1 4.5 8.2 5.3 3.1 0.8 6.5 0.7 9.9 0.9 1.2 0.1 4.9 1 6.1 0.5 0.8-0.4 0.5-1.9 1.3-2.4 2.2-1.1 3.9 1.3 5.6 1.7 1.9 0.5 4.8 0.6 6.4-0.2 1-0.4 5.4-3.4 4.7-4-0.5-0.5-1-2.4-1.2-3.1-0.6-3.7-2.7-2.1-5.2-3.5-0.8-0.6-2.5-3.3-1.1-4.4 0.5-0.4 2.2-0.7 2.8-0.5 0.8 0.2 1.3 1.9 2.7 2.1 0.2 0 0.5-0.2 0.7-0.2 0 0 3.2 1.7 3.3 1.6 0.6-0.4-0.1-2.7-0.3-2.9-0.5-0.6-2.5-0.8-4.1-1.7-0.5-0.3-0.8-1-1.1-1.1-1-0.3-0.4-0.1-1-0.8-1.2-1.3-3.5-2.7-5.4-4.5-2.1-2.1-3.7-4.3-5.4-5.3-1.8-1.1-2.9-3.7-5.6-3.8zm-9.6-0.2c0.5-0.1 3.3 1 2.3-0.4-0.4-0.6-2.1-0.9-3-0.7-0.9 0.2-2.1 0.4-3.4 0.8-0.5 0.2-1.8 1.2-1.6 1.5 0.5 0.5 5.2-1.2 5.7-1.2zm-4.7 5.7c1.7 1.4 4.7 1.5 6.1 0 0.9-1.2 1.2-4.9-0.9-4.5-0.8 0.1-0.7-0.1-0.5 0.3 1.1 2.6-1.1 4.2-3.3 3.7-1.5-0.3-1.4-2.1-1.7-2.7-0.1-0.1-0.6 0.1-0.7 0.1-1.3-0.2 0.6 2.7 1 3.1zm1.9-3.4c-0.6 0-1.2 0.4-1.2 0.8 0 0.5 0.6 0.8 1.2 0.8 0.7 0 1.2-0.3 1.2-0.8 0-0.4-0.5-0.8-1.2-0.8zm5.7-19.3c2 1.9 4-1.7 4.5-3.5 0.7-2.6 1.2-4.2 2.8-7 1.5-2.8 2.7-6.8 2.4-9.7-0.1-1 0-2.3-0.5-3.5-0.1-0.5-1.3-2.3-1.5-2.1-0.1 0 0 0.2 0 0.2-0.5 2.3-1.7 4.3-2.8 6.8-0.7 1.6-1.2 3.8-1.7 5.7-0.6 1.9-1.6 3.7-2.1 5.4-0.4 1.2-0.3 3.4-0.6 4.6-0.3 1-1.6 2-0.5 3.1zm-10.5 4.6c-0.1 0.9 2 0.1 2 0.1 5.9-0.1 11.4 1.4 15.3 3.4-0.3-0.1 1.7 1.2 1.8 0.9 0 0.1-1.4-2-1.6-2.2-1.8-2.1-4.9-3.5-7.8-3.6-2.9-0.2-5.4 0.4-6.9 0.7-0.4 0.1-2.7 0-2.8 0.7zm19.1 4.4q0 0 0 0 0 0 0 0zm-19.6 6.6c-0.1-0.4 1.1 0.6 0.9 0.6 0.4 0 1.9-0.5 2-0.6 1.6-0.7 3.8-1.8 6.3-1.4 0.9 0.1 3.7 1.5 2.1-0.1-0.5-0.5-2.9-1.8-2.7-1.7-1-0.4-2.9-0.2-3.6 0-1.3 0.2-1.7 0.6-2.8 1.4-0.4 0.3-2.4 1.2-2.2 1.8zm8.6-3.2q0 0 0 0 0 0 0 0zm-7.7 3.8q0 0 0 0 0 0 0 0zm-0.9-0.6q0 0 0 0 0 0 0 0zm0.9 0.6q0 0 0 0 0 0 0 0zm-3.8 11.1c-0.8-0.8-2-1.2-2.7-2.1q-0.2-0.4-0.4-0.5c-0.1-0.3-0.1-0.3 0 0q0.2 0.2 0.3 0.6c0.3 0.8 0.9 3.7 1.3 4.3 0.7 0.7 2.8 2.1 4.2 2.9 2.3 1.2 5.5 1.6 8 1.7-4.5-0.9-7.9-4.3-10.7-6.9zm-10.3-17.8c0.2 0.2 0.9 1.5 1 1.5 0 0 2.1-1 2-1.7 0-0.3-1.7-1.4-2.3-1.9-3.5-3.5-4.2-9.5-4.7-15.9h0.3l0.1-0.2c1.3 1.3 2.2 3.6 3.5 5.8 0.2 0.4 0.7 1.4 1 1.3 0.5-0.2 1.1-6.3 1-8 0-0.8-0.7-1.8-0.9-2.8-0.4-1.3-0.8-2.6-1.6-4.6-0.2-0.5-1.4-2.6-0.9-3 0.4-0.2 2.5 1.6 2.8 2 0.9 0.8 2.9 3.2 3.5 4.4 2.6 4.7 1.5 11.1 1.4 15.9-0.1 1.7 0.1 5.5 1.3 6.7 0.3-2.2-0.3-5.3 1.1-6.3 0.3-0.2 1 0.3 1.2-0.2 0.3-0.5-0.5-2.9-0.6-3.9-0.5-3.8-0.8-9.1-3-12.4-1.8-2.7-4.8-5.1-6.9-7.7-0.4-0.6-1.2-1.3-1.5-1.9-0.2-0.4-0.5-1.2-1-0.2-2.5 5.2-4.6 12.8-2.7 20.8 0.9 4.3 3.5 8.7 5.9 12.3zm1.8 16.2q-0.1-0.9-1.8-2.7c-0.5 0.9 0.6 2.1 0.7 2.6 0-0.2-0.2 1.2-0.2 1.3 0.3 2.6 1.6 0.2 1.3-1.2zm-1.1 0q0 0 0-0.1 0 0.1 0 0.1zm5.1-10.6c0.8-1.4-0.3-3.5-0.8-3.5-0.9 0-1.7 1.5-2.3 1.7-0.9 0.4-0.1 0.6-0.3 1.5-0.3 2-2.4-0.2-2.4 2 0 1.8 2.1 6.9 2.3 6.1 0.4-1.9 2.6-6 3.5-7.8zm-22.5 298.4c1.7 1.9 3.4 3.5 5.2 5.2 0.8 0.8 3.5 3.1 3.7 3.2 0.4 0 4.9-0.9 5-1.1 0.4-0.6-0.4-1.7-0.6-1.9-1.3-1.4-4.2-1.3-5.7-2.5-0.7-0.5-1-1.5-1.7-2.1-0.3-0.2-1-0.1-1.2-0.3 0-0.1-0.1-0.8-0.2-0.9-0.9-0.5-3.2-0.8-4.3-0.5-0.9 0.3-0.5 0.5-0.2 0.9zm46.7 128.8c-0.3-0.5-1.8-3.4-2.6-1.8-0.3 0.5 1.7 4.6 2.3 5.6 1.1 2 4.1 3.3 6.4 4.2l0.1 0.2v0.2c-2.8 0.2-6.4 0.8-9.1 0.3-1.4-0.3-2.9-0.7-3.2-2.3-0.7-2.8 0.7-7.2 1.4-9.8 0.2-0.5 0.1-1.5 0.3-1.7 0.4-0.7 1.9-0.4 2.4-1.2 0.2-0.5 0-1.4 0.1-2.3 1.3-17.4 4.8-32.8 6.8-51 0.8-7.8 2.3-15.6 3-23.8 0.5-5.5 1.4-10.9 2.4-15.6 1.1-5.1 3-9.6 4.5-14.8 2-7 4.2-15.2 4.6-22.8 0.2-3 0.5-5.9 0.3-8.8-0.2-1.8 0.5-3.7 0.6-5.2 0.1-4.1-0.1-8.1-0.4-14.2-0.5-10.2-4.9-17.5-9.6-25.2-4.6-7.6-7.5-15.5-13-21.5-1.3-1.3-4.3-1.8-6.5-2.7-2.3-1-3.7-1.2-7-1.6-4-0.5-7.9-2.9-12.8-2.3-0.8 0.1-4 0.3-1.2 0.5 2.4 0.2 6.2 1 7.8 1.6 3.2 1 5.1 2.5 7.7 3.3 3.1 0.9 6.5 1.9 8.9 4.3 1.2 1.2 2.2 3.2 3.4 4.6 2.3 2.7 4.5 4.9 5.5 8.6 1 4 1.1 8 3 11.2 1.9 3 4.1 5.8 5 9.4 0.5 2.5 0.5 5.3 0.7 7.9 0.4 6.5-0.9 11.7-1.3 18.6-0.2 3.1-1.1 5.3-1.3 8.5 0 1.1 1.1-2.4 1.3-2.9 2.1-6.6 3.9-13.9 4.4-21.3 0.1-0.4 0-3.3 0.4-3.5 0.5-0.4 0.9 1.9 1 2.4 0.3 3.3-0.4 6.9-0.5 10.5-0.1 4-0.9 7.8-1.7 10.7-1.5 5.4-1.7 10.8-3.9 15.6-1.7 3.7-3.8 8.1-5.3 12.9 0 0-1.4 4.3-1.3 4.3 0.1 0.1 2.1-3 2.3-3.2 1.6-2.6 2.5-4.4 4.1-7.1 0.4-0.8 1.8-3.5 2-3.5 0.8 0 0.5 1.3 0.5 1.5-0.1 1.1-1.7 4-1.9 4.6-0.9 2.2-1.9 4.2-2.4 6.3-1.7 6.2-2.4 10.6-3.6 17.1-1 6.2-2.2 12.1-2.5 19.2-0.1 2.9 0 7.3-1.1 9.6-0.6 1.3-1.8 1.8-2 3.4-0.6 3.2-0.8 6.8-1.1 10.2-0.6 5.2-1.4 10.3-1.5 15.2 0 2.6-0.4 6.8-0.7 10.1-0.2 2.3-1 3.6-1.6 5.2-0.7 2.1-0.2 6.5-1.6 7.4-1.2 0.7-0.4-0.7-0.3-1.7 0.5-5.8 1.3-11.4 1.8-16 1.1-11.2 1.8-25.5 1.8-38.3 0-3 0.5-5.6 0.5-8.4-0.1-10 0.6-20.5 3.3-29.3 0.1-0.4 1.1-2.9 0.8-3-0.1-0.1-1.3 2.2-1.4 2.5-0.6 1.2-0.7 2.1-1 3.1-1.7 5.5-3.1 9-4.3 15.4-1 5.5-1.4 11.6-1.5 17.5-0.2 8.7-0.5 18.3-1.4 27.5-0.7 7.3-1.5 13.9-2.4 21.1-0.8 6.8-1.8 16.1-3.3 23.4-1.1 5.7-1.7 13.2 2.3 16.1 0.6 0.4 2.9 1.4 4.3 1.7 0.4 0.1 2.7 0.1 2.5 0.8-0.2 1.1-5 0.5-6.3 0.5-2.9 0-5.8 0.3-6.9-1.1-0.8-1.1-1.3-3.3-1.3-5.2 0.1-10.1 4.2-17.5 5.6-26.8 0.9-6.2 1.6-14.1 2-21.3 0.3-4.4 1.6-9.9 0.9-12.9-2.3 17.5-5 34.2-9.6 50.8 0.1-0.3-0.3 2.4-1.3 1.4-0.3-0.3 0.5-2.3 0.5-2.3q0 0 0 0c0.8-4.9 2.8-14.2 3.3-19.3 0.2-1.8 0.4-2.5 0.6-4 0.6-3.4 1.2-5.1-1.5-5.9 0.2 0-1.7-0.2-1.6-0.3-0.2 0.2-0.5 3.4-0.7 4.6-1.3 7.6-2 16.3-3.4 23.5-0.8 4.3-2.6 9.3-1.5 13.7 0.3 1.1 1.1 2.1 1.7 3.4 0.5 1.1 0.9 2.9 1.6 3.4 2.1 1.4 10.4 0.5 12.8 0.5 3.9 0 7.7-0.8 11.3-1.7-1 0.2-4.5-0.7-4.2-1.3 0.2-0.5 7.2-0.4 8.1-0.4 4.8-0.1 10.4 0.8 15.7 1.3 5.2 0.6 10.4 1.4 15.8 1.9 3.8 0.3 7.8 0 11.6 0.3 5.2 0.5 9.1 1.8 14.4 1.6 3.9-0.2 7.8 0.4 11 0.2 1.2 0 4.7 0 2.2-0.6-2.4-0.6-6.6-1.7-8.6-1.9-2.8-0.3-3.9-0.1-6.3-0.3-0.2 0-2.6-0.4-2.8-0.7-0.3-0.9 1.7-1.1 2.5-1.2 2.7-0.3 6.7 0 8.9-0.5 0.6-0.1 0-0.4 1.3-0.6-1.8 0.3-1.1-0.4-1.6-0.8-0.2-0.2-5.7-1-5.6-1.6 0.1-0.7 2.7-0.4 3.6-0.6 1.4-0.3 2.8-1.1 4.9-1.3 2.1-0.3-2.5-0.7-3.2-0.8-13.4-0.6-27.9-0.8-42-2.3-4.9-0.5-10.1-1-14.3-2-5.1-1.3-9.2-3.3-11.8-6.9zm70.1 16.3q-0.1 0-0.1 0 0 0 0.1 0zm-69.7 2.2q0 0 0 0 0 0 0 0zm-22.6-17.9q0 0 0 0 0 0 0 0zm3.2-113.2c-0.6-0.3-2.7 0.1-3.7-0.1-0.9-0.2-2.2-0.9-2.7-1.3-1.1-1-1.5-2.7-2.7-3.3-2.3-1.1-4.1 1.7-6.4 0.8l0.1-0.2-0.2-0.1c0-0.2-0.2-0.1-0.2 0l-0.1 0.2 0.1 0.3c2.4 2.4 4.9 5.2 7.3 8.5 0.6 0.6 1.7 2.9 2.2 3.1 1.8 0.7 5.5-1.7 6.3-3 0.6-1 1.1-4.4 0-4.9zm-27.5 7.5c0 1-0.3 5 0.5 3.2 0.6-1.3 1.5-3.1 1.8-4 0.8-2.2-0.3-5.4-0.6-8.6-0.2-2.3 0.1-6.2-0.8-7.8-0.1-0.1-0.2-0.1-0.3 0 0 0.1 0 0.2 0 0.3 0.2 1.4-0.5 4.5-0.6 6.5 0 3.5 0.1 8 0 10.4zm-73.4 122c-2 0.3-5 1-8 1.2-3.7 0.4-17.4 1.8-20.4 2.2 5-0.5 21.8-0.3 25.9-1.6 0.7-0.2 4.4-2 2.5-1.8zm3.5 1.2c7.2-0.4 11.6-0.2 17.7-1.7 2-0.4 4.8-0.9 6.7-1.6 9.5-3.3 16.5-6.7 21.9-14.3 3.7-5.2 3.3-5.8 3.4-7.4 0-0.4-0.5 0.2-0.5 0.2-6.3 9.4-15.8 14.5-27.4 18.5-8.1 2.8-15.4 2.6-21.8 6.3zm64.5-26.6c8.5-22.6 8.9-52.1 12.3-78 0.9-6.3 2.8-12.5 3.6-19.2 0-0.4-0.3 0.3-0.3 0.3-0.6 1.2-2.1 4.6-2.4 5.8-1.7 6.1-3.4 13.5-4.7 20.7-0.5 2.7-0.6 5.2-1 7.8-0.1 0.8-0.2 1.7-0.3 2.5-0.2 1.5-0.2 3.7-0.5 5.3-0.6 3.7-0.8 8.1-1.2 12.6-0.2 3.2-0.6 5.3-1 8-0.1 0.2-0.4 1.4-1 2.3-0.3 0.5-0.2-1.2-0.2-1.1 0.6-5.4 1.2-10.9 1.4-15.8 0.1-2 0.1-4.1 0.3-6.3 0.4-3.4 0.6-7.3 0.9-10.8 0.7-8.5 2.1-16.6 2.2-25.2 0-4.3-1 0.2-1.7 1.9-0.6 1.6-1.3 2.9-1.6 4-0.3 1.3-0.2 3.1-0.3 4.3-2 12.4-1.7 27.9-3.6 40.8-1.1 7.5-2.7 13.2-3.9 20.1-0.7 3.5-1.2 7.3-2.2 10.6-0.8 2.6-1.5 5.5-2.7 8-3 6.7-7.4 13.9-12.6 18.7-0.6 0.5-1.1 0.9-1.7 1.6-0.3 0.3-1.2 1-1.5 1.3-1.9 1.7-5.4 3.4-8.1 4.6-9.4 4.3-20.2 6.2-31.6 8.3 15.8-1 29.1-0.8 40.6-6.2 3.8-1.8 6.5-4.2 9.6-7 5.7-5.3 10.2-12 13.2-19.9zm21.2 13.8q-0.5-0.6-5-0.2c-4.3 0-9.8 0.5-15 0.9-1.4 0.1-4.3 0-5.2 0.4-0.9 0.4-2.3 2.9-3.3 4.1-0.3 0.5-3.3 3.7-3.3 3.8 1 0.4 5.6-0.7 7.6-0.9 6.8-0.6 11.9-1.1 19.1-1.4 0.6-0.1 3.5-0.1 3.7-0.3 0.5-0.4 0-1.6 0-1.9 0.1-0.5 1.6-4.2 1.4-4.5zm4.9-23.9c0.8-5.8 2-10.9 2.7-16.1 1.2-8.6 1.6-17.7 2.4-27.6 0.7-8 1.3-17.1 0.8-24.2-0.3-4.1-2.3-4.5-3.9-7.1-0.6-0.8-0.9-3.4-1.6-4.2-0.3-0.3-1.3-0.3-1.9-0.7-1.2-0.7-1.2-1.9-1.8-1.7-0.2 0-0.2 0.1-0.3 0.2-4.9 6.3-6.7 15.2-8.5 25.2-1.5 8.3-1.5 17.3-2.3 26.3-1.3 15.9-5.2 32.7-10.9 46.3-0.5 1.4 1.3 0.5 2.2 0.4 1-0.2 1.9-0.2 2.5-0.3 4.5-0.4 11.5-1.4 15.6-1 0.5 0.1 1 0.9 1.8 0.3 0.4-0.4 0.6-2.4 0.8-3.9 0.7-4.3 1.9-8 2.4-11.9zm59.9-256.5c-0.3-0.3-3.4 0-4 0-1-0.1-4-0.5-4.1 0.2-0.6 2.4-1.3 4.9-1.7 7.9-1.5 10.3 0.4 24-7.5 27.9-0.8 0.3-1.8 0-2.5 0.4-0.8 0.5-1.5 2.1-1.5 3.2 0 1.2 0.9 2.3 0.9 3.5 0.2 4.8-6.8 3.6-10.3 2.3-2-0.8-4.3-1.1-3.2 1.6 2 5 9.3 8.9 9.5 15.7 0.1 1.2-0.5 4.6-1.4 4.6-0.1 0-2-2.3-2.6-3-3.1-4-5.7-7.8-11.6-9.2-2.1-0.5-4.8-0.6-6.9-1.4-6.2-2-13.1-2.1-18.9 0.8-1.3 0.6 2.5-0.1 3.4-0.3 1.8-0.2 2.8-0.3 4-0.2 3.9 0.3 7.8 2.3 11 2.5 3 0.3 7.1 0.7 9.7 2.5 2.1 1.4 3.8 4.1 5.5 6.4 1.6 2.3 3.9 4.4 5.2 6.5 1.3 2.2 2.2 4.2 3.6 6.2 3.6 5.2 6.8 10.1 9.1 17.1 0.3 0.8 0.8 1.3 1.1 1.9 3.6 8.7 3.6 22.5 2.9 32.7-0.8 12.1-2.7 22.8-5.6 33-0.5 1.6-0.9 3.3-1.6 4.9-1.2 2.8-2.6 5.9-2.8 10-0.3 6.8-1.1 12.7-1.6 19.2-1.4 17.3-1.9 33.7-2.5 50.8-0.1 3.4 0 8.4 0.5 10.9 0.1 0.4 0.1 0.7 0.2 1.2 0 0.2-0.1 0.8-0.1 1 0 1-1.7 3.4-0.9 4.7 0.5 0.9 6 0.9 7.4 1 9.8 0.7 18.9 1.4 27.3 3.5l-0.2 0.2v0.3c-8.7 0.4-19-2.7-28.5-1.7-2.7 0.3-5.4 1.7-8 1.8-1.1 0-2.5-1-3-1.8-0.2-0.4-0.2-2.2-0.5-2.3-0.1-0.1-1.7 0.7-1.9 1.1-0.6 1.1 0.5 5.3 1.6 5.8 0.7 0.3 2.4-0.3 2.6-0.3 0.7 0 1.6 0.1 2.6 0 4.9-0.5 10.3 0.4 16.3-0.2 10.5-1 22.1 0 32.2 1.2 5.2 0.6 11.9 2 16.9 1 0.3-0.1 2.7-0.9 2.6-0.9 0.6-0.9-2.4-2.4-3.6-2.7l0.2-0.1-0.2-0.1c3.7-0.9 8.2-1.3 12.5-1.3-4-1.4-9.9-0.3-14.3-1.4l0.2-0.2-0.1-0.2c3.9-0.4 8.1-0.8 11.8-1-19.5-4.3-44.5-3.5-60.7-12.1-3.4-1.8-5.6-4.3-6-9.2-0.3-4.1 0.2-8.8 0.7-13.1 1.8-18.1 4.1-35.7 6.5-54.5h0.2l-0.1-0.1c0.1-0.1 0.1-0.2 0-0.2l0.1-0.1h-0.2c0.5-5.6 1.3-11.8 2.4-17.2 1.2-5.8 4.5-10.2 5.7-15.5 0.7-3.3 2.9-6.6 3.9-10.2 1.6-5.7 2-11.9 2.3-18.5 0.4-9-0.3-18.4-1.6-26.5-1-5.9-2.3-12.3-4.7-17.2-0.1-0.1-0.8-2.2-1.1-2.1-0.3 0.1-0.6 2.9-0.7 3.6-1.3 8.1-2.2 17.3-4.8 24.5l-0.1-0.2h-0.2c1.8-11.1 2.8-21.8 4.1-33.6 1.4-13.4 1.5-27.2 2.3-41 0.3-5.8 1.1-12.6 2-18 0.2-0.9 1.1-5.8 0.8-6zm-49.7 217.3c0.8-0.7 0.7-4.4 0.9-6 0.2-2.3 0.9-5 1.1-7.8 0.1-2.7 0.3-5.4 0.8-8.1 1-5.3 2.6-11.3 2.2-16-0.4-4.4-2.7-7.6-6.9-7.2-1 0.1-1.6 0.3-2.9 0.7-1.2 0.4-3.3 0.7-2.8 1.3 1.5 1.9 4.2 5.7 4.8 7.7 0.3 1 0.8 1.5 1 2.1 0.3 1 0.5 3.4 0.7 5.1 1 7.2-0.3 15-0.6 22.5 0 1.5-0.2 5.5 0.8 5.9-0.1-0.1 1.1-0.4 0.9-0.2zm57.7-239c1.1-1 2.8-2.3 3.6-2.9 0.8-0.6 4.1-2.2 4.1-3.4 0.1-1-2.3-4.2-2.8-5.1-1-1.9-2.3-3.4-3-4.8 0.1 0.2-0.1-1.6-0.5-1.1-0.1 0.1 0.3 0.9 0.3 1.1 0.2 5.5-0.9 10.1-2 14-0.2 0.8-0.8 3.1 0.3 2.2zm35-71.8c1.2-1 4.4-3.6 5.1-4.4 0.1-0.1-1.3 0.8-2.1 1.2-4.6 2.1-9 4.6-14 7.6-4.8 2.9-10.2 6.4-13.2 10.1-4.4 5.3-6.3 12.5-5 20.6 1.1 7 3.8 14.5 6.5 20.5 2.2 4.7 5.7 11.1 8.6 15 0.2 0.2 1.5 1.7 2.1 0.6 0.2-0.4-1.5-3.2-2.1-4.5-4.8-10.6-10.2-21.8-10.9-34.8-0.2-4.9 1.8-11.2 4.2-15 1-1.7 2.9-4 4.5-5.3 2.1-1.6 4-3.4 6.2-4.7 3.5-2.2 6.8-4.3 10.1-6.9zm18.5-10c-2.6 0.9-4.8 2-8.1 3.5-2.1 0.9-2.5 1.4-4 2.7 0.6-0.5-2 1.7-1.8 1.8 0.3 0.1 3.6-2.2 4-2.4 3.5-1.9 6.3-3.5 9.9-5.6z"/><path class="b" d="m618 204.6c0 0.2 0.2 0.1 0 0z"/><path class="b" d="m677.2 106.3q0 0 0 0c-0.1 0-0.2-0.2-0.1-0.2 0-0.3 0-0.6 0.1-0.9 0-0.1 0.1-0.2 0.2-0.2q0.1 0.1 0.1 0.2c0 0.3 0 0.7-0.1 1q-0.1 0.1-0.2 0.1z"/><path class="b" d="m633.4 131q0 0-0.1 0c-0.1-0.1-0.1-0.2-0.1-0.3q0 0 0.1-0.1 0-0.2 0.2-0.1 0.1 0.1 0.1 0.2 0 0.1 0 0.1-0.1 0.2-0.2 0.2z"/><path class="b" d="m635.8 241.2q-0.1 0-0.1-0.1c-0.1-0.1-0.2-0.2-0.1-0.3q0.1-0.1 0.1-0.2c0.1-0.2 0.2-0.2 0.3-0.2 0.2 0.1 0.2 0.2 0.2 0.3q-0.1 0.2-0.2 0.4-0.1 0.1-0.2 0.1z"/><path class="b" d="m596.4 278.3q-0.2 0-0.2-0.1c-0.1-0.1 0-0.2 0.1-0.3 0.3-0.1 0.6-0.2 1-0.2 0.1 0 0.2 0 0.2 0.2 0.1 0.1 0 0.2-0.1 0.2-0.3 0-0.6 0.1-0.9 0.2q-0.1 0-0.1 0z"/><path class="b" d="m573 274.6q0 0 0 0-0.2 0-0.4-0.1c-0.1 0-0.1-0.1-0.1-0.2 0.1-0.1 0.2-0.2 0.3-0.1 0 0 0.1 0 0.2 0 0.1 0.1 0.2 0.2 0.2 0.3 0 0.1-0.1 0.1-0.2 0.1z"/><path class="b" d="m573.2 269.1q0 0-0.1 0c0-0.2-0.3-0.1-0.5-0.4 0-0.1 0-0.2 0.1-0.2q0.1 0 0.1 0.1c0 0.1 0.3 0.1 0.5 0.3 0.1 0.1 0.1 0.1 0 0.2q0 0-0.1 0z"/><path class="b" d="m577.8 266.1q0 0 0 0c-0.3-0.1-0.5-0.3-0.7-0.3q-0.1 0-0.1-0.1c0-0.1 0.1-0.2 0.2-0.1 0.3 0 0.5 0.2 0.7 0.2 0 0 0.1 0.1 0.1 0.2q-0.1 0.1-0.2 0.1z"/><path class="b" d="m621.7 247.2q0 0 0 0-0.1-0.1 0-0.2 0-0.1 0-0.2 0-0.1 0.1-0.1c0.1 0 0.1 0.1 0.1 0.1q0 0.2-0.1 0.3 0 0.1-0.1 0.1z"/><path class="b" d="m599.4 552.2q-0.1 0-0.1 0c-0.2 0-0.3-0.1-0.3-0.2 0-0.1 0.2-0.3 0.3-0.3q0 0.1 0.1 0.1 0 0 0.1-0.1c0.1 0 0.3 0 0.3 0.2 0.1 0.1 0 0.2-0.1 0.3q-0.2 0-0.3 0z"/><path class="b" d="m570.1 553.4q-0.2-0.1-0.2-0.2 0-0.1 0.2-0.1c0.1 0 0.4 0 0.6 0 0.1 0 0.1 0.1 0.1 0.1 0 0.1 0 0.2-0.1 0.2z"/><path class="b" d="m571.9 550.4c-0.1 0-0.2 0-0.2-0.1 0-0.1 0.1-0.3 0.2-0.3q0.1 0 0.3 0 0.1 0 0.2 0c0.1 0 0.2 0.1 0.2 0.2 0 0.2-0.1 0.2-0.2 0.2q-0.1 0-0.2 0-0.1 0-0.3 0 0 0 0 0z"/><path class="b" d="m619.5 460.2q0 0 0 0-0.1-0.1-0.1-0.1 0.1-0.1 0.1-0.2 0-0.1-0.1-0.2 0-0.1 0.1-0.1 0 0 0.1 0 0.1 0.2 0.1 0.3 0 0.2-0.1 0.3-0.1 0-0.1 0z"/><path class="b" d="m618.5 381.4q-0.1 0-0.2-0.2c0-0.3 0-0.5-0.1-0.7 0-0.1 0-0.2 0.1-0.2 0.1-0.1 0.2 0 0.2 0 0.1 0.3 0.1 0.6 0.2 0.9 0 0.1-0.1 0.1-0.2 0.2z"/><path class="b" d="m637.3 565.3q-0.1 0-0.1 0-0.2 0-0.4 0c-0.2 0-0.2-0.2-0.2-0.3 0-0.1 0.2-0.2 0.3-0.2q0.2 0.1 0.4 0.1c0.2 0 0.3 0.1 0.3 0.2 0 0.1-0.1 0.2-0.3 0.2z"/><path class="b" d="m678.3 440.6c-0.2 0-0.3-0.1-0.5-0.1-0.1-0.1-0.2-0.2-0.1-0.3 0-0.2 0.1-0.2 0.3-0.2 0.1 0.1 0.2 0.1 0.3 0.1h0.1c0.1 0 0.2 0.1 0.2 0.2 0 0.1-0.1 0.3-0.2 0.3q0 0-0.1 0z"/><path class="b" d="m761.1 581.8c-0.1 0-0.2-0.1-0.2-0.2v-0.1c0-0.1 0.1-0.2 0.2-0.2 0.1 0 0.2 0.1 0.2 0.2v0.1q0 0 0 0c0 0.1-0.1 0.2-0.2 0.2z"/><path class="b" d="m761.8 581.9c-0.1 0-0.1 0-0.1-0.1v-0.2c0-0.1 0-0.2 0.1-0.2 0.1 0 0.2 0.1 0.2 0.2v0.2c0 0.1-0.1 0.1-0.2 0.1z"/><path fill-rule="evenodd" class="b" d="m830 578.9c0.1 2-5 4.5-7.3 5.1-3.2 0.8-6.6 0.7-10.3 0.7-11 0.1-21.7 0.7-31 0.9-20 0.4-42.9-0.3-59.7-5.2-1.9-0.6-4-2.1-5.2-2.3-1.4-0.3-3.4 0-5.3-0.2-11.5-1-21.8-1.1-33.2-1.2-1.2 0-2.4-0.1-3.4 0-1.6 0.2-2.2 1.7-3.3 2.2-0.8 0.4-2.6 0.6-4.2 0.9-6.8 0.9-12.8 0.4-19.8 0-11.3-0.7-21.7 0.8-33.4 1.8-9.5 0.7-16.9 1-26.4 1.5-2.6 0.2-5.1 1-7.3 1.3-2.9 0.4-4.7-0.5-6.5-0.8-2.7-0.4-4.9 0.4-6.9-0.3-0.7-0.3-1.3-0.8-1.9-0.9-1.2-0.1-3.4 0.1-4.9 0.5-0.5 0.1-1.9 1.1-2.3 0.9-1.2-0.8 1.5-3.4 2.2-3.8 0.3-0.2 2-0.7 1-0.9-0.7-0.1-1.9-0.9-2.4-1-1.8-0.7-6.3 0.8-6.6 0.4-0.4-0.3 2-2.5 2.5-2.7 1.6-0.9 4.6-1.1 5.7-1.6 1.7-0.8-0.3-0.9-1.3-1-1.3-0.1-4.5 0.7-4.8 0.1-0.2-0.5 3.7-2.3 4.3-2.5 0.8-0.3 0.9 0 1.2-0.1 0.4-0.2 0.8-0.9 1.3-1.1 2.4-1 5.9-3.5 9-3.9 3.6-0.5 7.5 0.2 11.3-0.5 3.1-0.6 4.8-1.5 8.2-1.8 4.4-0.4 8.4 0.7 12.3 0.8 1.7 0.1 3.4-0.3 5-0.4 4.1-0.3 8.4-0.8 12.6-1.2 5.3-0.6 10.6-0.8 14.8-2q5.1-1.7 5.2-2.3c0.1-0.8-2.3-0.6-2.9-0.6-1.8 0.1-2.2 0.3-3.6 0.3-4.3-0.1-8.5-0.9-12.9-0.8-4.1 0.1-8.5 0.1-12.6 0.3-9.4 0.3-21.7 2-31.6 2.5-2.5 0.1-4.2 0.6-6.3 0.3-0.8-0.2-1.8-0.7-2.8-0.9-4-0.7-10 2.2-13.8 1.3-1.7-0.4-3.5-1.6-4.7-1.9-1.1-0.3-4.3 1-4.9 0.5-0.6-0.7 2.2-2.2 2.7-2.4 2.5-1.2-0.3-0.5-2.1-0.6-0.6-0.1-0.9-0.4-1.9-0.5-1.8-0.2-6.4 0.9-6.8 0.3-0.1-0.1-0.3 0 0.4-0.6 1.1-1 3.3-2.6 4.6-2.9 0.5-0.1 1.4 0.1 1.7-0.1q0.2-0.1 0.7-1.5c-0.4-0.2-1.9 1-2.3 0.3-0.3-0.7 1.1-1.4 1.9-1.8 2.2-1.2 3.5-1.9 5.5-2.8 2.1-0.9 5.8-2.3 7.9-2.6 2.8-0.3 5.5 0.6 7.1 0.8 2 0.1 4.8-0.2 6.8-0.6 4.8-1.1 10.4-1.5 14.2-1.7 12.4-0.7 26-3 36.3-7.8 5.1-2.4 5.1-10.2 4.3-16-1.3-7.9-2.2-17.4-3-25.5-0.3-3.3-0.3-6.4-0.9-8.8-0.5-1.8-0.9-5.2-1.2-8.1-0.4-2.7-0.9-4.9-1.2-7.5-1.5-10.2-1.5-21.4-4.8-30.4-1.5-4.3-4.1-8.3-5.8-12.7-0.3-0.9-0.6-1.5-0.9-2.3-0.3-0.7-0.6-1.5-0.8-2.2-1-2.8-1.8-5.3-2.4-8-0.6-2.5-1.1-5.1-1.3-7.9-0.9-11.6-1.2-25.2 1.5-36 1.6-6 3.5-12.9 6.1-18.1 0.6-1.2 2.1-2.3 2.3-3.4 0.3-1.3-0.4-3.8-0.6-5.4-1.8-17.7-0.5-34.7-3.2-52-0.1-0.9-0.7-8.1-1.2-8.5-0.1-0.1-2-0.2-2.3-0.2-3.3-0.3-7.7 0.1-11.5-0.3-5.2-0.6-11.9 0.2-15.9 2.1-2.3 1.2-3.6 4.1-6.5 5.2-2.1 0.8-2.1 1.2-3.3 2.7-2.8 3.5-9.1 3.9-10.9-0.6-1.1-3 0.5-5.1 0.6-7.4 0.1-0.5-0.3-1-0.2-1.5 0.4-2.6 4.6-3.8 5.8-5.6-0.2 0.3 0.7-1.7 0.6-1.8-0.1-0.1-1.8-0.1-1.9-0.1-2.5-0.1-3.3 1.7-3.9 3.8-0.2 0.7-0.1 2-0.8 2-0.4 0-1.3-1.5-1.4-1.8-0.7-1.9 0.3-4.1 0.3-5.2 0-0.6-0.7-0.7-0.6-1.9 0-1.8 1-3.2 1.5-3.7 1-0.8 2.7-0.5 3.6-1.7 0.7-1.1 0.4-2.1 1.2-2.9 0.8-0.9 2.6-1.4 3.6-1.6 0.2 0 2 0.4 2.3 0.2 0.1-0.1 0.2-1 0.2-1.1 0.6-0.9 2.1-1.5 3.3-1.7 0.4-0.1 1.2 0.2 1.7 0 0.7-0.3 1.9-2.9 2.4-3.9 0.9-1.8 1.4-2.9 2.1-4.2 0.3-0.5 1.3-1.2 1.1-1.9-0.1-0.1-2.4-1.5-2.8-1.8-1.1-0.7-2.3-1.2-3-1.5-0.9-0.4-8.4-3.9-8.3-5 0.1-1.7 5 0.8 5.7 1.1 2.9 1.2 4.3 1.6 6.6 3.1 0.3 0.3 2.6 2 3.2 1.7 0.4-0.2 0.9-2 1-2.3 0.3-1 0.5-1.5 0.9-2.4 0.2-0.6 1.9-4.4 1.6-4.8q-2-0.8-2-0.8c-3-1.1-6.8-2.3-8.9-3.6-0.5-0.4-2.3-3-2.7-3-0.5 0-1.2 1.8-1.1 1.8-2.4 2.7-5.8 0-7.5-1.6-0.4-0.3-2.4-2.7-2.8-2.7-0.4 0.1-1.3 1.5-2 1.9-0.5 0.2-1.3 0-1.5 0.3-0.5 0.7 0.9 2.6 0.4 3.2-0.6 0.8-3.9-2.7-4.2-3.3-0.1-0.2-0.1-1.5-0.5-1.6 0.2 0.1-2.3 2.3-2.3 2.2-0.2 0.9 1.4 2.4 0.7 2.9-0.5 0.5-2.4-1-2.9-1.4-0.4-0.5-2-2.9-2.5-2.6-0.6 0.5 0.4 2.6 0.5 2.7 0.3 0.9 1.4 2 1.2 2.3-0.9 1.2-5.1-1.9-5.7-2.2-3.3-1.7-7.4-4-7.5-8.2-0.1-1.4 0.6-3 1.8-3.6 0.7-0.2 3 0.2 2.9 0.3 0.3-0.4-0.2-2.1-0.1-2.5 0.3-2.1 1.8-3.9 4.2-3.7 0.8 0.1 1.2 1 1.7 0.9 0.6-0.2 1.3-2.8 1.8-3.3 2.2-2.1 5.3-1.5 7.3 0.4 0.4 0.4 1.3 2 1.6 2-0.1 0 1.1-0.9 1.2-1 2.8-1.9 5.7 0.4 6.5 3.2 0.3 0.9-0.1 2.5 0.4 3.4 0.3 0.5 1.9 0.8 2.4 1.2 0.7 0.6 1.1 1.6 1.7 2.2 0.9 0.8 2.1 1.1 2.8 1.9 0.8 0.8 1.2 1.5 2.1 2.2 1.1 1 1.9 2.6 2.6 3.3 1.2 1 3.1 1.7 5.2 2.6 0.7 0.3 5.1 2.5 5.8 2.1 0.4-0.2 0.7-2 0.9-2.7 0.8-2.6 2-5.5 2.5-8 1.9-8.1-2.6-15.1-6.7-18.4-10.5-8.3-22.9-16.4-35.9-22.9-4.2-2.1-9-4-12.8-6.8-2.3-1.6-8.4-7.6-3.8-10.9 3.2-2.2 9.4-0.3 12.9 0.8 22.5 6.7 44 16.1 60.4 28.4 4.2 3.2 7.6 8.5 8.5 13.7 0.2 1.2 0.5 4.4 0.7 3.9 0.9-2.4 1.9-3.7 2.8-5.2 1.3-2 2.2-3.6 3.4-5.1 2.7-3.4 5.9-5.6 8.5-8.6 2.4-2.9 3.2-6.4 4.9-9.9 1.7-3.5 3.9-7.6 4.4-12.3 0.1-0.8 0.5-3.9 0-4.2-0.8-0.6-2 0.5-2.6 0.6-1.5 0.2-2.9-0.1-4.2-0.5-1.2-0.4-2.4-1.4-3.3-1.4-0.8-0.1-1 0.6-2 0.6-5.3-0.1-7.7-5.7-7.9-9.8-0.1-1.6 0.7-3.1 0.7-4.6 0-0.5-0.3-1.1-0.2-1.4 0.4-1.6 2.5-2.3 4-3.3 3-1.9 5.9-7.1 8.8-9.9 1.1-1 3.5-2.3 1.8-3.7-0.5-0.6-3.2-0.6-2.4-1.7 0.4-0.6 1.7 0.1 2.3-0.4 0.3-0.2 0-1.1 0.1-1.5 0.5-1.3 2.4-4.1 4.3-4.7 1-0.3 2 0.3 2.8 0 0.4-0.1 2.3-2.2 2.4-2.5 0.1-0.3 0.1-6.7 0-7.3-1-5.2-4.1-11.9-3.5-18.8 0.3-3.3 2.8-8.9 5.2-10 0.4-0.2 1.8-0.4 2-0.3 0 0 0.2 0.2 0.2 0.2 1 2 1.9 3.8 2.8 5.9 3.3 8.7 5 17.2 11.7 22.6 0.6 0.6 2.9 2.2 3.5 1.9 0 0 0.4-1.2 0.5-1.6 1-3.8 0.8-7.3 2.1-11 1.7-5.5 7.1-9.8 10.3-13.7 0.5-0.7 0.6-1.6 1.4-2 1.9-0.9 4.1 1.4 4.5 2.2 2 4.1 3.2 11.9 2.8 17.5-0.5 5.4-1.7 9.3-3.5 12.6-0.6 1-3 3.7-3.1 4.8 0 0.5 0.6 1.1 0.6 1.5 1.2 5.7 0.4 12.5-0.7 19-0.5 3.3-1.1 6.7-1.9 10-0.8 3.2-2.1 6.3-2.3 9.5-0.2 1.6 0 3.2 0 4.7-0.2 5.4-1.6 9.8-1.9 14.8-0.2 4.3 0.7 9.4 1.1 13.9 1 9 3.7 17.6 3.8 27.3 0 7.2-0.6 14.4-1 20.9-0.2 3.1-0.9 6.6-0.6 9.4 0.6 4.8 2.6 10.2 4.4 15.2 3.7 10.2 6.2 19.8 9.4 29.6 1.7 4.9 3.7 9.6 5.5 14.4 3.3 8.7 5.8 20 9.3 28.8 3.8 9.6 7.1 18.2 8.9 28.5 0.5 3.1 1.3 6.2 1.5 9.1 0.4 4.3 0.9 7.9 1.2 11.8 0.7 7.6 0.2 15.3-0.4 24.3-0.4 4.3-1.4 8.7-1.9 13.2-1.1 13.1-1.7 26.6-1.7 37.2 0.1 3.7 0.6 7.4 0.4 11.3 0 0.8 0.1 2.6 0.1 3.6 0 0.8 0 1.5 0 2.1 0.1 1.7-0.2 3.4-0.1 5 0.5 8.9-0.5 17.5 0.5 26.3 0.5 4.1 0.9 8.2 1.7 12.3 1.3 7 2.3 14.1 5.9 20.4 8.1 14.1 28 17.7 46.1 21.1 2.8 0.5 5.5 0.5 8.8 0.7 9.3 0.5 18.3 0.8 28.1 1.4 7.5 0.5 15.4 2.2 22.9 3.7 2.1 0.4 6.7 0.8 6.8 2.4zm-187.7-492.8q0 0 0 0 0 0 0 0zm-94.7 143.7q0 0 0 0 0 0 0 0zm20.4 1.6q0 0 0 0 0 0 0 0zm-26.7-14.3c-0.2-0.6-0.6-0.5-0.9-0.6-0.2-0.1-0.7-0.2-1-0.1-0.9 0.2-2.2 4.3-0.6 3.1 0.9-0.7 3.1-0.7 2.5-2.4zm8.4-3c-0.4-0.6-1.8-1.3-2.8-1.4-1.4 0-2.4 1.1-3 2.8-0.5 1.2-1.1 4.6 0.1 2.3 0.9-1.7 2.2-3.1 4.6-2.5 0.1 0 1.9 1.1 2 1.1 0.4-0.2-0.5-1.8-0.9-2.3zm7.5 0.9c-0.2-0.2-0.8-0.6-1.1-0.7-0.1 0-0.9 0-1.3 0.2-0.4 0.3-2.8 3.3-2.5 3.6 0.2 0.1 1.6-0.7 1.3-0.6 0.8-0.3 2.2-0.2 2.9 0.1 0 0 1.8 1.7 2 1.5 0.6-0.3-1-3.8-1.3-4.1zm119.1 220.4c0.1 0.2 4.6 1.1 4.9 1.1 0.3-0.1 3-2.4 3.8-3.2 1.8-1.7 3.5-3.3 5.2-5.2 0.3-0.4 0.6-0.6-0.3-0.9-1-0.3-3.4-0.1-4.2 0.5-0.1 0.1-0.2 0.8-0.2 0.9-0.2 0.2-0.9 0.1-1.2 0.4-0.7 0.5-1.1 1.5-1.7 2-1.6 1.2-4.4 1.1-5.7 2.5-0.2 0.2-1 1.3-0.6 1.9zm13-0.5c0-0.1 0.1-0.2 0-0.3-0.1-0.1-0.1-0.1-0.2 0-0.9 1.6-0.6 5.5-0.9 7.8-0.3 3.2-1.3 6.4-0.6 8.6 0.4 0.9 1.3 2.7 1.9 4 0.8 1.8 0.5-2.2 0.4-3.2 0-2.4 0.1-6.9 0-10.4 0-2-0.8-5.1-0.6-6.5zm-49.4 120.3c1.1-0.5 2.2-4.7 1.6-5.8-0.2-0.4-1.8-1.2-1.9-1.1-0.3 0.1-0.3 1.9-0.5 2.3-0.5 0.8-1.9 1.8-3.1 1.8-2.5-0.1-5.2-1.5-8-1.8-9.4-1.1-19.7 2.1-28.4 1.7v-0.3l-0.3-0.2c8.5-2.1 17.5-2.8 27.4-3.5 1.4-0.2 6.9-0.1 7.4-1 0.8-1.3-0.9-3.7-1-4.7 0-0.2 0-0.8 0-1 0-0.5 0.1-0.8 0.2-1.2 0.4-2.5 0.6-7.5 0.4-10.9-0.5-17.1-1.1-33.5-2.4-50.8-0.5-6.5-1.4-12.4-1.7-19.2-0.2-4.1-1.6-7.2-2.8-10-0.7-1.6-1.1-3.3-1.5-4.9-3-10.2-4.8-20.9-5.6-33-0.7-10.2-0.8-24 2.9-32.7 0.3-0.6 0.8-1.1 1.1-1.9 2.2-7 5.4-11.9 9.1-17.1 1.4-2 2.3-4 3.6-6.2 1.3-2.1 3.6-4.2 5.2-6.5 1.7-2.3 3.4-5 5.5-6.4 2.5-1.8 6.6-2.2 9.7-2.5 3.2-0.2 7.1-2.2 11-2.5 1.2-0.1 2.1 0 4 0.2 0.9 0.2 4.6 0.9 3.4 0.3-5.8-2.9-12.7-2.8-18.9-0.7-2.2 0.7-4.8 0.8-6.9 1.3-5.9 1.4-8.6 5.2-11.7 9.2-0.5 0.7-2.4 3-2.5 3-0.9 0-1.5-3.4-1.5-4.6 0.2-6.8 7.5-10.7 9.6-15.7 1.1-2.8-1.2-2.4-3.3-1.6-3.5 1.3-10.4 2.5-10.3-2.3 0.1-1.2 1-2.3 1-3.5 0-1.1-0.8-2.7-1.6-3.2-0.6-0.4-1.6-0.1-2.4-0.4-7.9-3.9-6-17.6-7.5-27.9-0.4-3-1.1-5.5-1.7-7.9-0.2-0.7-3.1-0.3-4.1-0.2-0.6 0-3.7-0.3-4 0-0.3 0.2 0.6 5.1 0.7 6 0.9 5.4 1.7 12.2 2.1 18 0.8 13.8 0.9 27.6 2.3 41 1.2 11.8 2.3 22.6 4.1 33.6h-0.2l-0.2 0.2c-2.5-7.2-3.5-16.4-4.7-24.4-0.1-0.8-0.4-3.6-0.7-3.7-0.3-0.1-1.1 2-1.1 2.1-2.4 4.9-3.7 11.3-4.7 17.2-1.4 8.1-2 17.5-1.6 26.5 0.3 6.6 0.7 12.8 2.3 18.5 1 3.6 3.1 7 3.9 10.2 1.2 5.3 4.4 9.7 5.7 15.5 1.1 5.4 1.9 11.6 2.4 17.2h-0.2l0.1 0.1c-0.1 0-0.2 0.1 0 0.1l-0.1 0.2h0.2c2.4 18.8 4.7 36.4 6.5 54.5 0.5 4.3 0.9 9 0.6 13.1-0.3 4.9-2.5 7.4-5.9 9.2-16.2 8.6-41.2 7.8-60.7 12.1 3.7 0.2 7.8 0.6 11.8 1l-0.1 0.2 0.2 0.2c-4.4 1.1-10.3 0-14.3 1.4 4.3 0 8.8 0.5 12.5 1.3l-0.2 0.1 0.2 0.1c-1.2 0.3-4.3 1.8-3.7 2.7 0 0 2.4 0.8 2.7 0.9 5 1 11.6-0.4 16.8-1 10.2-1.2 21.7-2.2 32.3-1.2 6 0.6 11.3-0.3 16.3 0.2 0.9 0.1 1.9 0 2.6 0 0.2 0 1.9 0.6 2.6 0.3zm28.8-103c0.6-0.2 1.7-2.5 2.2-3.1 2.5-3.3 5-6.1 7.4-8.5l0.1-0.3-0.1-0.2c0-0.1-0.2-0.2-0.2 0l-0.2 0.1 0.1 0.2c-2.3 0.9-4.2-1.9-6.5-0.8-1.1 0.6-1.5 2.3-2.6 3.3-0.5 0.4-1.9 1.1-2.7 1.3-1 0.2-3.1-0.2-3.8 0.1-1.1 0.5-0.5 3.9 0 4.9 0.8 1.3 4.6 3.7 6.3 3zm4.8-320.8c0-2.2-2.1 0-2.4-2-0.2-0.9 0.5-1.1-0.3-1.5-0.6-0.2-1.4-1.7-2.3-1.7-0.5 0-1.6 2.1-0.8 3.5 0.8 1.8 3.1 5.9 3.5 7.8 0.1 0.8 2.3-4.3 2.3-6.1zm-0.8 8.9q0 0 0-0.1 0 0.1 0 0.1zm0-0.1c0.2-0.5 1.3-1.7 0.8-2.6 0 0-1.7 1.8-1.8 2.7-0.3 1.4 0.9 3.8 1.3 1.2 0-0.1-0.2-1.5-0.3-1.3zm-9-23.1c0.2 0.5 0.9 0 1.2 0.2 1.4 1 0.8 4.1 1.1 6.3 1.1-1.2 1.3-5 1.3-6.7-0.1-4.8-1.2-11.2 1.3-15.9 0.7-1.2 2.7-3.6 3.5-4.4 0.4-0.4 2.4-2.2 2.8-2 0.6 0.4-0.6 2.5-0.8 3-0.8 2-1.3 3.3-1.6 4.6-0.3 1-0.9 2-1 2.8-0.1 1.7 0.6 7.8 1.1 8 0.3 0.1 0.8-0.9 1-1.3 1.3-2.2 2.2-4.5 3.5-5.8l0.1 0.2h0.3c-0.6 6.4-1.2 12.4-4.8 15.9-0.5 0.5-2.2 1.6-2.3 1.9 0 0.7 2 1.7 2.1 1.7 0.1 0 0.8-1.3 1-1.5 2.4-3.6 4.9-8 5.9-12.3 1.8-8-0.2-15.6-2.8-20.8-0.4-1-0.7-0.2-1 0.2-0.2 0.6-1 1.3-1.4 1.8-2.2 2.7-5.2 5.1-6.9 7.8-2.2 3.3-2.5 8.6-3 12.4-0.2 1-0.9 3.4-0.6 3.9zm-25.3 45.3c0.7 0.5 0.5 2 1.3 2.4 1.2 0.5 4.8-0.4 6-0.5 3.5-0.2 6.8-0.1 10-0.9 3-0.8 6.6-3.3 8.2-5.3 1.4-1.7 2.5-4.5 2.9-5.9 0.4-1.5 1-4.9 1.2-6.7 0.1-0.4-1.8 2.6-2.2 3.4-0.7 1.5-1.3 2.7-2.1 3.7-2.4 2.9-5.3 5.2-8.3 7.4-3.2 2.4-10.7 2.5-15.4 1.8-1.1-0.1-1.7 0.1-0.8-1.2 0.8-1 4-2.5 4.8-3.8 0.3-0.5-1.8-0.4-3.4 0-2.9 0.7-5.6 4.2-8.2 5.3-0.4 0.1-4.3 0.7-4.4-0.3 0-0.7 1.6-0.5 2.1-0.8 0.6-0.3 2.1-1.5 2.4-1.8 0.6-0.6 3.1-3.7 1.1-2.9-1.7 0.7-1.4-0.6-2.6-0.8-0.6 0-2.9 1.6-3 0.3 0-0.6 1.2-0.5 1.6-0.7 0.7-0.5 2.8-2.2 3.5-3.3 0.5-0.7 1.3-2.7 0.8-3.5-0.4-0.6-1.9-0.1-2.5-1-0.4-0.8-0.3-2.3-0.1-3.3 1.1-4.4 8.5-6.5 10.4-9.5 0 0.1 1.4-2.2 1-2.6 0 0 0-0.1-0.1-0.1-2.7 0.1-3.8 2.7-5.6 3.8-1.7 1-3.3 3.2-5.4 5.3-1.9 1.8-4.2 3.2-5.4 4.5-0.6 0.7-0.1 0.5-1.1 0.8-0.2 0.1-0.6 0.8-1 1.1-1.6 0.9-3.7 1.1-4.2 1.7-0.2 0.2-0.8 2.5-0.2 2.9 0.1 0.1 3.3-1.6 3.3-1.6 0.2 0 0.4 0.2 0.7 0.2 1.4-0.2 1.9-1.9 2.7-2.1 0.6-0.2 2.3 0.1 2.7 0.5 1.5 1.1-0.2 3.8-1.1 4.3-2.4 1.5-4.5-0.1-5.2 3.6-0.1 0.7-0.6 2.6-1.2 3.1-0.6 0.6 3.8 3.6 4.8 4 1.6 0.8 4.5 0.7 6.4 0.3 1.6-0.5 3.4-2.9 5.6-1.8zm19.5-29.6c0.2-0.3-1.1-1.3-1.6-1.5-1.3-0.4-2.5-0.6-3.4-0.8-0.9-0.2-2.6 0.1-3.1 0.7-0.9 1.4 1.9 0.3 2.4 0.4 0.5 0 5.2 1.7 5.7 1.2zm-7.1 4.5c1.3 1.5 4.4 1.4 6.1 0 0.4-0.4 2.3-3.3 1-3.1-0.1 0-0.7-0.2-0.7-0.1-0.3 0.6-0.2 2.4-1.7 2.7-2.2 0.5-4.4-1.1-3.3-3.7 0.1-0.4 0.3-0.2-0.5-0.3-2.1-0.4-1.9 3.3-0.9 4.5zm4.2-3.4c-0.7 0-1.2 0.4-1.2 0.8 0 0.5 0.5 0.8 1.2 0.8 0.6 0 1.1-0.3 1.1-0.8 0-0.4-0.5-0.8-1.1-0.8zm5.3-3.7q0 0 0 0 0 0 0 0zm-0.9 0.6q0 0 0 0 0 0 0 0zm-0.1 0c-0.1 0 1.1-1 1-0.6 0.2-0.6-1.8-1.5-2.2-1.8-1.1-0.8-1.5-1.2-2.8-1.4-0.7-0.2-2.6-0.4-3.6 0 0.1-0.1-2.3 1.2-2.7 1.7-1.6 1.6 1.2 0.2 2.1 0.1 2.5-0.4 4.7 0.7 6.3 1.4 0.1 0.1 1.5 0.6 1.9 0.6zm0 0q0.1 0 0.1 0 0 0-0.1 0zm-9.2-13c-2.9 0.1-6 1.5-7.9 3.6-0.1 0.2-1.5 2.3-1.6 2.2 0.2 0.3 2.2-1 1.9-0.9 3.9-2 9.4-3.5 15.2-3.4 0.1 0 2.2 0.8 2.1-0.1-0.1-0.7-2.4-0.6-2.8-0.7-1.5-0.3-4.1-0.9-6.9-0.7zm-8.1-13.7c1.6 2.8 2.1 4.4 2.8 7 0.5 1.8 2.5 5.4 4.4 3.5 1.2-1.1-0.2-2.1-0.4-3.1-0.3-1.2-0.2-3.4-0.6-4.6-0.6-1.7-1.5-3.5-2.1-5.4-0.6-1.9-1-4.1-1.7-5.7-1.1-2.5-2.4-4.5-2.8-6.8 0 0 0-0.2 0-0.2-0.2-0.2-1.4 1.6-1.6 2.1-0.4 1.2-0.4 2.5-0.4 3.5-0.3 2.9 0.8 6.9 2.4 9.7zm-17.5 40.8c1.3-1.2 2.8-2.5 3.9-3.5 1.9-1.8 3.3-3.9 4.9-6.2 0.9-1.5 2.3-2.4 2.9-3.3 0.9-1.4 1.2-4.7 0.4-5.1-2.3-1-6.2 3.1-3.3 3.8l0.1 0.2 0.2-0.1c0.3 1.2-1.1 1.7-1.2 2.8 0 0.6 0.7 1 0.6 1.5-0.1 0.9-2.2 1.9-3 2.6-2.1 1.9-3.4 3.8-4.9 5.8-0.2 0.3-1.9 2.7-0.6 1.5zm-4.1 17.5c-1.6-1.5-3.1-3.3-3.6-6.2-0.1-0.3 0.2-1.5-0.3-1.7-0.1-0.1-0.4 0.3-0.4 0.7-0.4 2.7 2.2 7.5 4.3 8.3 2.4 1 0.6-0.4 0-1.1zm32.1-13.6c2.5-0.1 5.7-0.5 8-1.7 1.4-0.8 3.5-2.2 4.1-2.9 0.5-0.6 1.1-3.5 1.4-4.3q0.1-0.4 0.2-0.6c0.2-0.3 0.1-0.3 0 0-0.1 0.1-0.2 0.3-0.4 0.5-0.6 0.9-1.8 1.3-2.6 2.1-2.8 2.6-6.3 6-10.7 6.9zm-40.4 130.3c6.2-0.2 12.1-1 18.1-1.4 6.6-0.5 13.2-1.5 19.5-1.6 3-0.1 5.5 0.5 7.8-0.4 5.6-2.2 4.9-10.1 5.4-16.5 0.7-7.6 1.4-13.9 2.3-21.6-1.3 2.3-1.5 4.9-2.6 7.3-1 2.2-2.8 3.8-3.8 5.7-1.2 2.4-0.4 5.3-0.3 8.5 0.1 6.4-0.8 12.3-6.7 13.2-0.5 0.1-0.9-0.2-1.5-0.1-0.6 0.1-1.2 0.7-1.9 0.8-2.2 0.5-4.7-0.1-7.2 0-2.7 0.2-5.2 1-8.1 1.1-2 0.1-4.5 0.8-6.7 1.1-9.4 1.4-19.9 2.6-29.1 2.9v-0.2l-0.1-0.2c3.5-0.8 7.2-1.8 10.7-3.1 3-1 6.4-0.8 9.2-1.7 2.3-0.7 4.3-1.8 5.9-1.8 0.6 0 1.1-0.4 1.8-0.6 4.6-1.2 10.9-1.1 15.5-2.5 3.2-1.1 5.4-3.5 8-4.6 0.3-0.2 0.7-0.1 0.9-0.3 1-0.7 3.5-3.8 4.2-5.6 0.6-1.6 0.3-6.1-0.9-7.7-0.9-1.2-2.9-1.3-4.2-1.8-3.5-1.5-6.1-5.3-6.2-9.6 0-0.9 0.7-3.7 0-4.2-0.6-0.6-3.5 1-3.9 1.5-1.2 1.5-0.9 3.9-2 5.1l-0.2-0.2-0.3 0.1c-0.3-1.9 0.8-4.2 1.1-5.9 0.3-1.9-0.2-3.8 0.5-5.5 0.3-0.8 0.9-1.7 1.4-2.3 0.5-0.6 1.6-0.9 1.9-1.7 0.6-1.3-0.3-3.1-0.1-5.1 0.1-1.1 0.5-2.4 1.2-3.2 0.6-0.8 1.8-1.3 2.2-2.1 0.3-0.6 0.2-1.7 0.4-2.4 0.3-1.4 1-3.8 1.3-5.5 0.4-2-0.9-0.2-1.4 0.3-2.6 1.9-3.6 4.2-4.8 8-0.5 1.8-1.6 3.8-2.4 5.5-0.4 1-1.6 2.4-1.3 0.4 0.2-1.4 0.4-3.2 0.5-4.6 0-2.8-1.4-6-1-9.3 0.3-3 2.3-4.4 1.6-7.8-0.4-1.7-1.8-2.7-1.5-4.8 0.4-2.5 2-4.8 2.4-7.8 0.2-0.9-0.1-1.8 0-2.8 0.5-3.2 0.9-9.1 0-12.7-0.5-2.1-0.6 1.8-0.7 2.2-1.1 7-4.5 15.9-8.8 20.1-3.7 3.6-7.4 6.4-10.2 10.9-6.1 7.5-9.2 17.5-12.8 26.9-1.3 3.2-2.4 9.4-2.5 13.3 0 5.4 1.8 10.2 3.2 14.7 0.1 0.4 0.7 3.2 0.8 3.3 0.4 0.2 2.4-2.4 2.4-2.6 0.5-1.3 0.1-3.3 0-4.7-0.2-6.6 0-11.3 1.3-16.7 1.5-6.8 4.6-13.2 7.6-18.3 0.6-1.1 1.7-3.7 2.5-3.3 0.7 0.3-0.8 2.4-0.9 2.5-4.9 8.8-8.1 19.4-7.8 32 0 0.7 0.2 3.8 0.5 4 0.7 0.6 3-1.2 3.6-1.8 1.9-1.6 3.7-4.6 5.7-6.9l0.1 0.1 0.2-0.1c0.5 2.3-1 10.2 1.7 10.9 0.8 0.2 2.2-0.8 3-1.1 1.1-0.3 2.5-0.8 3.3-1 2.8-0.5 1.9-1 3.2-3 0.4-0.5 1-0.6 1.4-1.2 0.2-0.4 0.1-0.8 0.3-1.4 0.9-2 2.9-3.1 3.2-4.3 0.2-0.7-0.3-1.3 0-2.3q0.2-0.9 1.9-3.9c1 0 1.2 3.3 1.5 4.5 0.5 2.7 1.2 5 1.1 8.1-0.1 1.2 0.1 3.7-0.5 4.4-0.9 1-2.9 0.8-4.4 1-2.7 0.3-5.6 1.7-8.7 2.6-6.3 1.9-13 4.1-19.8 5.1-3.4 0.6-6.9 1.6-10.4 1.6-4.1 0-9.6 0.8-13.2-0.3-1.8-0.5-3.7-2-5.4-3.3-0.8-0.6-4.7-3.6-5.8-3.2-0.2 0.1 1.9 5.1 3 5.3l-0.2 0.2 0.1 0.2c-2.4-0.4-3.6-1.2-6-2.1-0.8-0.3-3.2-1.5-3.7-1-0.9 0.6 1.5 2.8 2.2 3.5 1.3 1.2 2.6 1.4 3.2 2.4l-0.2-0.1-0.1 0.2c-3 0.3-8.8-2.4-11.7-1.3-0.1 0-2.2 2.2-2.1 2.4 0.1 0.4 4.6 1 5.3 1.2 3.8 0.9 6 1.8 8.8 3.2l-0.2 0.1v0.2c-4.4 0.7-9.4 2.2-11.5 5.5-0.4 0.6-2 3-0.6 2.2 2.5-1.5 6.5-3.1 9.3-3.7 0.2 0 5.6-0.8 5.7-0.7 0.2 0.5-1 0.8-0.6 0.6-2.2 1.2-4.2 1.9-5.6 3.3-0.2 0.2-2.3 2.5-2.3 2.8 0.1 0.4 1.8 1.4 2 1.4 2.4 0.3 4.5-3.4 6.1-4.4 3.4-1.9 9.1-2.8 14-2.7 7.1 0 15.5 0.4 22.9 0.2zm-37.1-0.6q0 0 0 0 0 0 0 0zm26.3-15.7c-3.2-1.9-6.3-3.5-8.9-5.6-0.1-0.1 0-0.2-0.2-0.3-0.9-0.1-4.4 6.1-5.2 7.4-0.4 0.8 0.7 0.7 2.2 0.8 3.9 0.1 9.9 0.2 14-0.8 0.8-0.2-1.2-1.1-1.9-1.5zm-39.5-76.5c0.2-0.1-2.4-2.3-1.8-1.8-1.5-1.3-1.9-1.8-4-2.7-3.3-1.5-5.5-2.6-8.1-3.5 3.6 2.1 6.4 3.7 9.8 5.6 0.5 0.2 3.8 2.5 4.1 2.4zm16.6 73.2c0.6 1.1 1.9-0.4 2-0.6 3-3.9 6.5-10.3 8.6-15 2.8-6 5.5-13.5 6.6-20.5 1.3-8.1-0.6-15.4-5-20.6-3-3.7-8.4-7.2-13.2-10.1-5-3-9.4-5.5-14-7.6-0.8-0.4-2.2-1.3-2.1-1.2 0.7 0.8 3.9 3.4 5.1 4.3 3.3 2.7 6.6 4.8 10 7 2.2 1.3 4.1 3.1 6.2 4.7 1.7 1.3 3.6 3.6 4.6 5.3 2.4 3.8 4.4 10.1 4.1 15-0.7 13-6 24.2-10.9 34.8-0.6 1.3-2.2 4.1-2 4.5zm21.1-15.6c-0.7 1.4-2 2.9-3.1 4.8-0.4 0.9-2.8 4.1-2.8 5.1 0.1 1.2 3.4 2.8 4.2 3.4 0.8 0.6 2.5 1.9 3.6 2.9 1.1 0.9 0.5-1.4 0.2-2.2-1-3.9-2.1-8.5-1.9-14 0-0.2 0.4-1 0.3-1.1-0.5-0.5-0.7 1.3-0.5 1.1zm0 0q0 0 0 0 0 0 0 0zm69.5 312.2c-1.4-7.3-2.1-15.9-3.4-23.5-0.2-1.2-0.6-4.4-0.7-4.6 0 0.1-1.8 0.3-1.6 0.3-2.8 0.8-2.1 2.5-1.6 5.9 0.3 1.5 0.4 2.2 0.6 4 0.6 5.1 2.6 14.4 3.4 19.3 0-0.1 0.7 2 0.5 2.3-1 1-1.4-1.7-1.3-1.4-4.6-16.6-7.4-33.2-9.6-50.8-0.7 3 0.6 8.5 0.8 12.9 0.4 7.3 1.2 15.1 2.1 21.3 1.4 9.3 5.5 16.7 5.6 26.8 0 1.9-0.5 4.1-1.4 5.2-1 1.4-3.9 1.1-6.9 1.1-1.3 0-6 0.6-6.3-0.5-0.1-0.7 2.2-0.7 2.6-0.8 1.4-0.3 3.7-1.3 4.2-1.7 4.1-2.9 3.5-10.4 2.3-16.1-1.5-7.3-2.4-16.6-3.2-23.4-0.9-7.2-1.8-13.8-2.5-21.1-0.9-9.2-1.1-18.8-1.3-27.5-0.1-5.9-0.6-12.1-1.6-17.6-1.1-6.3-2.6-9.8-4.2-15.3-0.3-1-0.4-1.9-1-3.1-0.1-0.3-1.3-2.6-1.4-2.5-0.3 0.1 0.7 2.6 0.8 3 2.7 8.8 3.3 19.3 3.3 29.3 0 2.8 0.5 5.4 0.5 8.4-0.1 12.8 0.7 27.1 1.8 38.3 0.5 4.6 1.3 10.2 1.8 16 0.1 1 0.8 2.4-0.4 1.7-1.3-0.9-0.8-5.3-1.5-7.4-0.6-1.6-1.4-2.9-1.6-5.2-0.3-3.3-0.7-7.5-0.7-10.1-0.1-4.9-0.9-10-1.5-15.3-0.3-3.3-0.6-6.9-1.1-10.1-0.2-1.6-1.4-2.1-2-3.4-1.1-2.3-1-6.7-1.1-9.6-0.4-7.1-1.5-13-2.6-19.2-1.1-6.5-1.8-10.9-3.5-17.1-0.5-2.1-1.5-4.1-2.4-6.3-0.2-0.6-1.8-3.5-1.9-4.6-0.1-0.2-0.3-1.5 0.4-1.5 0.3 0 1.7 2.7 2.1 3.5 1.5 2.7 2.5 4.5 4.1 7.1 0.2 0.2 2.1 3.3 2.3 3.2 0.1 0-1.3-4.3-1.3-4.3-1.5-4.8-3.7-9.2-5.3-12.9-2.2-4.8-2.4-10.2-3.9-15.6-0.8-2.9-1.6-6.7-1.7-10.7-0.1-3.6-0.8-7.2-0.5-10.5 0.1-0.5 0.4-2.8 1-2.4 0.4 0.2 0.3 3.1 0.3 3.5 0.5 7.4 2.3 14.7 4.5 21.3 0.2 0.5 1.3 4 1.2 2.9-0.1-3.2-1-5.4-1.2-8.5-0.4-6.9-1.7-12.1-1.3-18.6 0.1-2.6 0.1-5.4 0.7-7.9 0.9-3.6 3.1-6.4 5-9.4 1.9-3.2 2-7.2 3-11.2 1-3.7 3.2-5.9 5.5-8.6 1.1-1.4 2.2-3.4 3.3-4.6 2.5-2.4 5.8-3.4 9-4.3 2.5-0.8 4.5-2.3 7.6-3.3 1.7-0.6 5.5-1.4 7.9-1.6 2.7-0.2-0.4-0.4-1.2-0.5-5-0.6-8.8 1.8-12.8 2.3-3.3 0.4-4.7 0.6-7.1 1.6-2.1 0.9-5.2 1.4-6.4 2.7-5.5 6-8.4 13.9-13.1 21.5-4.7 7.7-9 15-9.5 25.2-0.3 6.1-0.5 10.1-0.4 14.2 0 1.5 0.7 3.4 0.6 5.2-0.2 2.9 0.1 5.8 0.3 8.8 0.4 7.6 2.5 15.8 4.6 22.8 1.4 5.2 3.3 9.7 4.4 14.8 1 4.7 2 10.1 2.5 15.6 0.6 8.2 2.1 16 3 23.8 2 18.2 5.4 33.6 6.8 51 0 0.9-0.2 1.8 0.1 2.3 0.4 0.8 2 0.5 2.4 1.2 0.2 0.2 0.1 1.2 0.3 1.7 0.7 2.6 2 7 1.4 9.8-0.3 1.6-1.8 2-3.3 2.3-2.6 0.5-6.2-0.1-9-0.3v-0.2l0.1-0.2c2.3-0.9 5.3-2.2 6.4-4.2 0.6-1 2.6-5.1 2.3-5.7-0.8-1.6-2.3 1.4-2.7 1.9-2.5 3.6-6.6 5.6-11.7 6.9-4.2 1-9.4 1.5-14.3 2-14.1 1.5-28.6 1.7-42 2.3-0.7 0.1-5.3 0.5-3.2 0.8 2 0.2 3.5 1 4.8 1.3 0.9 0.2 3.6-0.1 3.7 0.6 0.1 0.6-5.4 1.4-5.6 1.6-0.5 0.4 0.2 1-1.6 0.8 1.3 0.2 0.7 0.5 1.3 0.6 2.2 0.5 6.2 0.2 8.9 0.5 0.8 0.1 2.8 0.3 2.4 1.2-0.1 0.3-2.5 0.7-2.8 0.7-2.3 0.2-3.4 0-6.3 0.3-1.9 0.2-6.2 1.3-8.5 1.9-2.6 0.6 1 0.6 2.1 0.6 3.3 0.2 7.2-0.4 11.1-0.2 5.3 0.2 9.2-1.1 14.4-1.6 3.8-0.3 7.8 0 11.6-0.4 5.3-0.4 10.6-1.2 15.7-1.8 5.4-0.5 10.9-1.4 15.8-1.3 0.8 0 7.9-0.1 8.1 0.4 0.3 0.6-3.2 1.5-4.2 1.3 3.6 0.9 7.3 1.7 11.2 1.7 2.5 0 10.8 0.9 12.9-0.5 0.7-0.5 1.1-2.3 1.5-3.4 0.6-1.3 1.5-2.3 1.7-3.4 1.2-4.4-0.6-9.4-1.4-13.7zm-25.9 19.3q0 0 0 0 0 0 0 0zm-69.7-2.2q0.1 0 0.1 0 0 0-0.1 0zm86.8-102.3c0.2-1.7 0.4-4.1 0.7-5.1 0.2-0.6 0.6-1.1 0.9-2.1 0.6-2 3.3-5.8 4.9-7.7 0.5-0.6-1.6-0.9-2.8-1.3-1.3-0.4-1.9-0.6-2.9-0.7-4.2-0.4-6.5 2.8-6.9 7.2-0.4 4.7 1.2 10.7 2.2 16 0.5 2.7 0.7 5.4 0.8 8.1 0.2 2.8 0.8 5.5 1.1 7.8 0.2 1.6 0.1 5.3 0.9 6-0.2-0.2 0.9 0.1 0.9 0.2 1-0.4 0.8-4.4 0.8-5.9-0.3-7.5-1.6-15.3-0.6-22.5zm14.1 82.9c4.1-0.4 11.1 0.6 15.5 1 0.7 0.1 1.6 0.1 2.6 0.2 0.8 0.2 2.7 1.1 2.2-0.3-5.7-13.6-9.7-30.4-11-46.3-0.7-9-0.8-18-2.3-26.3-1.8-10-3.5-18.9-8.4-25.2-0.1-0.1-0.1-0.2-0.3-0.2-0.7-0.2-0.7 1-1.8 1.7-0.6 0.4-1.7 0.4-1.9 0.7-0.7 0.8-1.1 3.4-1.6 4.2-1.6 2.6-3.6 3-3.9 7.1-0.5 7.1 0.1 16.2 0.7 24.2 0.9 9.9 1.3 19 2.5 27.6 0.7 5.2 1.8 10.3 2.6 16.1 0.6 3.9 1.8 7.6 2.5 11.9 0.2 1.5 0.4 3.5 0.8 3.9 0.8 0.6 1.3-0.2 1.8-0.3zm31.6 17.3c0.1 0-2.9-3.2-3.2-3.7-1-1.2-2.4-3.7-3.3-4.1-0.9-0.4-3.9-0.3-5.2-0.4-5.2-0.4-10.7-0.9-15-1q-4.6-0.3-5 0.3c-0.2 0.3 1.2 4 1.3 4.5 0.1 0.3-0.4 1.5 0 1.9 0.2 0.2 3.2 0.2 3.8 0.3 7.1 0.3 12.3 0.8 19.1 1.4 2 0.2 6.5 1.3 7.5 0.8zm52.9 10.4c-11.5-2.1-22.2-4-31.7-8.3-2.6-1.2-6.1-2.9-8-4.6-0.3-0.3-1.2-1-1.5-1.3-0.6-0.7-1.1-1.1-1.7-1.6-5.2-4.8-9.6-12-12.6-18.6-1.2-2.6-1.9-5.5-2.7-8.1-1.1-3.3-1.5-7.1-2.2-10.6-1.2-6.9-2.9-12.6-4-20.1-1.9-12.9-1.5-28.4-3.5-40.8-0.2-1.2 0-3-0.3-4.3-0.4-1.1-1-2.4-1.6-4-0.7-1.7-1.7-6.2-1.7-1.9 0 8.6 1.5 16.7 2.2 25.2 0.2 3.5 0.5 7.4 0.9 10.8 0.2 2.2 0.2 4.3 0.3 6.3 0.2 4.8 0.8 10.4 1.4 15.8 0-0.1 0 1.6-0.2 1.1-0.7-1-1-2.1-1-2.3-0.5-2.7-0.9-4.8-1.1-8-0.3-4.5-0.5-8.9-1.1-12.6-0.3-1.6-0.3-3.8-0.5-5.3-0.1-0.8-0.2-1.7-0.3-2.5-0.4-2.6-0.5-5.1-1-7.8-1.3-7.2-3-14.6-4.7-20.7-0.3-1.2-1.8-4.6-2.4-5.8 0 0-0.3-0.7-0.3-0.3 0.8 6.7 2.7 12.9 3.5 19.2 3.4 25.9 3.9 55.4 12.4 78 3 7.9 7.5 14.6 13.2 19.9 3.1 2.8 5.8 5.2 9.6 7 11.5 5.4 24.8 5.2 40.6 6.2zm1-6.5c-6.3-3.7-13.7-3.5-21.8-6.3-11.6-4-21-9.1-27.3-18.5 0 0-0.5-0.6-0.5-0.2 0.1 1.6-0.3 2.2 3.4 7.4 5.4 7.6 12.4 11 21.8 14.3 2 0.7 4.8 1.2 6.8 1.6 6.1 1.5 10.5 1.3 17.6 1.7zm32 2.2c-3-0.4-16.7-1.8-20.4-2.2-3.1-0.2-6.1-0.9-8-1.2-1.9-0.2 1.8 1.6 2.5 1.8 4.1 1.3 20.9 1.1 25.9 1.6z"/><path class="b" d="m208 125.7c1.9-0.2 6.3 0.1 6.2 3.5-0.1 3.3 0.2 6.6-3.7 5.3-3.9-1.3-4.5-8.5-2.5-8.8z"/><path class="b" d="m634.9 134.5c-4 1.3-3.7-2-3.8-5.3-0.1-3.4 4.3-3.7 6.2-3.5 2 0.3 1.5 7.5-2.4 8.8z"/><path class="b" d="m461 104.7c-1.2-1.8-8 9.3-7.1 19.1-1.9-7.3-20.3-4.8-10.4 11.1 3.5 3.4-0.7-9.8 5.1-7.8 5.5 1.9 3.1 5.1 1.3 5.4-0.4 0.1-2.9 2.4 0.8 5.2 2.1 1.5-9.9 6.9-16.4 2.8-7.4-4.7-9.2-10.2-7.2-11 1.5-0.6 5.5 2.3 9.9 6.7 0.3-2.4 0.8-10.4 0.2-18.4-0.1-2.1-10.8 7.3-10.8 5.9-0.5-5.7 9.1-12.5 8.9-12.8-0.5-1.3-2.7 0.6-2.7-0.5 0-3.9 0.9-12 1-12.1 0.7-1.2 7.9-8.1 19-6 11.2 2 9.4 2 10.3 1.3 1-0.7 15.2-7.1 24.8-3.6 1.9 0.7 6.3 2.4 6.7 4.3 0.5 2 0.3 11.6-4.5 22.9-0.9 2-2.8 0.4-6.6-0.5-0.3-0.1 5.7 12.8 5.7 13.6 0.2 2.5-1.3 1.6-2.2 0.6-1.5-1.6-4-5.2-6.4-8.8-0.7-1.2-4.1 15.9-5.6 18.4-0.8 1.3 10.5-4.2 12.1-3.5 2.6 1-4.8 10.5-14.4 8.6-11.4-2.4-11-7.6-9.5-7.3 1.9 0.4 4.2-3.4 1.1-4.6-2.3-1 0.2-5.5 3.4-4.9 6.2 1.3-0.2 10.9 1.3 10 14.9-9.7 0-21.7-5.7-14.8 1.1-3.5 3.3-11.7-2.1-19.3z"/><path class="b" d="m382.3 124c-5.7-6.9-20.6 5.1-5.7 14.8 1.5 0.9-4.9-8.7 1.4-10 3.1-0.6 5.6 3.9 3.3 4.9-3.1 1.2-0.8 5 1.1 4.6 1.5-0.3 1.9 4.9-9.5 7.3-9.6 1.9-17-7.6-14.4-8.6 1.6-0.7 12.9 4.8 12.1 3.5-1.5-2.5-4.9-19.6-5.6-18.4-2.4 3.6-4.9 7.2-6.4 8.8-0.9 1-2.4 1.9-2.2-0.6 0-0.8 6-13.7 5.7-13.6-3.8 0.9-5.7 2.5-6.6 0.5-4.8-11.3-5-20.9-4.5-22.9 0.4-1.9 2.9-3.2 4.8-3.9 12.1-4.2 25.7 2.5 26.7 3.2 0.9 0.7-0.8 0.7 10.3-1.3 11.1-2.1 18.3 4.8 19 6 0.1 0.1 1 8.2 1 12.1 0 1.1-2.2-0.8-2.7 0.5-0.2 0.3 9.4 7.1 9 12.8-0.1 1.4-10.8-8-10.9-5.9-0.6 8-0.1 16 0.2 18.4 4.4-4.4 8.4-7.3 9.9-6.7 2 0.8 0.2 6.3-7.2 11-6.5 4.1-18.4-1.3-16.4-2.8 3.7-2.8 1.2-5.1 0.8-5.2-1.8-0.3-4.2-3.5 1.3-5.4 5.8-2 1.6 11.2 5.1 7.8 9.9-15.9-8.5-18.4-10.4-11.1 0.9-9.8-5.9-20.9-7.1-19.1-5.4 7.6-3.2 15.8-2.1 19.3z"/><path class="b" d="m398.8 153.5c0.2 2.3-3.1 4.4-7.3 4.7-4.2 0.3-7.8-1.3-8-3.6-0.1-2.2 3.1-4.4 7.4-4.7 4.2-0.3 7.7 1.3 7.9 3.6z"/><path class="b" d="m359 151.6l10.3 4-8.7 6.8-3.4-5z"/><path fill-rule="evenodd" class="e" d="m381.8 133.5c0.8-4.5-2.9-4.7-4.3-4.2q-4.5 1.9-0.3 9.7c-15.8-7.5-0.8-23.9 5.7-14-1-1.8-4.2-9.7 1.7-21.1 8.5 9.7 7.2 18.1 6.7 20.2 3.9-11.2 22.4 1.2 8.8 12.2q2.3-8.6-2.6-9.4c-1.4-0.2-5 0.9-3.2 5.2m-11.4-7.1c0.2 0.4 0.3 0.6 0.2 0.4q-0.1-0.2-0.2-0.4zm8.4-0.9q-0.1 0.2-0.2 0.4c0 0.2 0.1 0 0.2-0.4zm-9 9.3l11.5-1.3c1.4-0.2 2.8 0.8 2.9 2.2 0.2 1.4-0.9 2.7-2.4 2.8l-11.4 1.4c-1.5 0.1-2.8-0.8-3-2.2-0.1-1.4 0.9-2.7 2.4-2.9zm-13 22.2l-12.1 1.8"/><path class="f" d="m355.4 118.6c-14.7-33 6.7-41.2 15-40.9 17.5 0.6 17.2 10.8 39.3 11.8"/><path fill-rule="evenodd" class="e" d="m418.7 128.6c0.7 6.4-4.9 12.2-12.4 13-5 0.5-9.6-1.2-12.4-4.3m-36-0.1c1.7 5.1 7.4 8.7 13.9 8.4 5.5-0.3 10.2-3.2 12.2-7.2zm60.2-26.8q-0.6-9.8-1.7-17.4-1.1-7.7-5.2-17.3h-6.8q4.3 9.1 6.3 17.3 1.6 6.7 2.1 17.4zm-12-30.7c-18.4-0.2-15.1-9.9-36-10.2-13.6-0.2-40.2 8.7-22.4 51.4z"/><path class="f" d="m360.3 161c0.1 0.9 0.4 3.2 0.4 4.2"/><path fill-rule="evenodd" class="e" d="m356.7 132.1q3.3-1 8.3-10.4l5.9 19.4q-9.4-5.1-12.7-4.1m-11.9-15.7l15.8-4.7q-6.7 11.7-5.5 15.7z"/><path class="e" d="m358.2 150l1.5-6c1.3 2.9 7.1 4.7 13.9 4.2 7.1-0.5 13-3.5 13.5-6.7l3 4.9 1.8-5.9c1.4 3.7 8.2 5.6 15.7 4.2 7-1.4 12.4-5 13-8.7l2.2 7.3"/><path class="e" d="m358.9 151.6l10.4 4-8.7 6.8-3.4-5zm32.1-1.8c4.2-0.2 7.7 1.5 7.8 3.8 0.1 2.3-3.2 4.4-7.4 4.6-4.2 0.2-7.7-1.5-7.8-3.9-0.1-2.3 3.2-4.3 7.4-4.5z"/><path class="b" d="m357.1 19.4c0.6-2.4 2.9-3.8 2.4-7.7-0.1-1.3-0.3-3.2-0.4-3.7-0.2-1 0.1-4.2 1.2-5.2 0.6-0.5 0.8-3.1 1.2-2.1 0.3 0.7 1.4 3.4 1.8 4.5 1 2.3 0.4 6.2-0.5 8.2-0.5 1.1-3.2 4.7-3.2 6.6"/><path class="b" d="m346.2 21.5c0.2-1 2.5-2.5 2.4-6.6 0-1.7-0.6-5.9-1-7.6-0.3-1.5-0.5-5.4 0.3-7.8 0.2-0.6 1.4-2.9 1.8-1.3 0.3 1 1.2 5.7 2.5 7.9 1.6 2.6 0.9 5.5 0.3 7.1-0.6 1.6-2.3 4.1-3.2 8.2"/><path class="b" d="m336.2 26.9c0.1-1.4 1.1-13.7-0.5-16.8-0.5-0.9-5.3-5.4-5.5-6.2-0.2-0.7-0.4-1.1-1.1-1.8-0.6-0.7 0.9-0.5 2.1-0.5 1.2-0.1 7.5 1 9.6 6.2 0.5 1.2 0.3 5.8-0.4 7.3-0.5 1.1-0.2 6.7-1.1 8.7-0.4 1-0.3 2.2-0.8 3"/><path class="b" d="m323.8 36.6c-1 2.8-0.1-12-0.6-15.2-0.6-4.4-1.1-5.2-1.4-5.9-0.7-1.5-0.4-2.8-2.9-4-1.8-0.9-2-2.4-3.1-2.9-0.7-0.4 1.9-0.4 2.9-0.3 0.5 0 7.3-0.1 9.2 7.2 0.2 0.8 0.4 4.8 0.1 7.2 0 0.6 0 1.6-0.1 2.3-0.1 0.7-0.8 9-1.1 10.4 0 0.1-2.3-0.6-3 1.2z"/><path class="b" d="m315.3 45c-0.2-1.8-2.3-10.7-2.6-11.4-2-6.8-8.4-14.5-9.7-15.2-4.7-2.4-4.5 0.7-5.7-0.1-1.2-0.7 1-3.3 4.5-3.7 12.9-1.4 14.5 13.2 14.2 18.7 0 1.7 2.1 10.2 2.3 11"/><path class="b" d="m309 65.8c-0.7-1.4-2-4.2-3.4-8.1-1.2-3.7-3.7-8.6-5.5-9.9-3.7-2.9-6-12.9-11.4-13.6-1.3-0.1-5.8 0.6-4.3-0.5 0.7-0.5 4.9-4.9 13.1-0.5 1.3 0.7 10.6 8.9 10.9 19.7 0.1 1 1 7.4 3.1 8.6"/><path class="b" d="m366.6 17.4c0.1-1.6 3.2-3.8 3.1-4.4-0.2-3.6 0.6-6.6 1.1-7.5 0.5-1 1.7-1.7 1.8-1.4 0.8 1.6 1.9 4.4 2 5.6 0.2 1.8 0.1 5.6-5.1 8.7"/><path class="b" d="m357.1 176.5c-0.9-0.7-1.5-1.6-2.3-2.5-10.8-10.7-26.4-42.4-30.4-43.3-6-1.4-6-4.6-6-5.2 0-0.5-0.2-1.4-0.5-1.9-0.2-0.5 3.1-3.4 3.7-3.1 1.5 0.4 2.2-0.3 1.6-0.9-2.9-3-7.5-18.6-9-19.5-5.7-3.3-4.7-7.8-4.5-8.3 0.4-0.9 2.7-1.8 3.6-2.3 1-0.5 1-0.3 1.4 0.5 0.1 0.4 1.6 1.4 1.4 0.6-2.6-11.3-1.1-18.9-1.6-19.1-6.1-1.7-5.5-4.3-5.5-5.4 0-0.7 0.2-2.2 0.5-2.7 1-1.6 1.5-1.9 2.2-2 3.1-0.4 4.3 1.5 4.5 1.9 0.1 0.4 1.3 0.9 1.2 0.2 0-2 0.5-7 0.8-7.7 0.3-0.8-0.6-4.1-1.1-4.2-2.6-0.3-2.3-3.8-2.3-4.5 0-1.4 0.2-1.7 0.7-2.2 0.3-0.3 1.4-0.8 2.4-0.8 2.4 0 2.6 5.1 2.5 5.6-0.2 0.4 0.5 0.6 0.8 0.9 0.2 0.3 1.1 0.6 1.2 0 0.1-1.4 2.7-7.2 2.4-7.8-1.7-3.5-1.6-7.1-0.9-7.4 0.8-0.4 1-0.7 1.9-0.7 1 0 0.6 0.2 1.6 0.6 0.9 0.4 1.1 2.8 1.2 3.3 0 0.5 0.4 0.7 0.6 0.2 0.9-2.1 5.2-5 5.1-5.7-0.1-1.7 0.3-4 0.2-4.5-0.1-0.5 0.6-0.8 0.7-1.4 0.1-0.6 3.4-1.4 3.7-0.1 0.2 1-0.1 4.1 0.1 4.2 1.7 0.5 4.6-2.9 5.6-3.8 1-1 0.6-2.9 0.7-5 0.1-2 2.8-1.3 4.4-1.4 0.9-0.1 0.2 3.2-0.2 4.1-0.4 0.8 2.7-0.5 4.1-1.2 1.3-0.7 1.8-2.4 2-3.7 0.3-1.3 2.3-0.6 4-0.6 1.1 0-0.1 2.5-0.7 3.5-0.7 1 3-0.7 4.6-1.6 1.5-0.9 2.1-2.1 2.2-3 0.1-1 0.9-1.8 3-1 2.1 0.8-0.1 2.2-0.2 2.7-0.1 0.4 4 1.1 4.7 0.1 0.6-1 1.6-2.3 3.5-1.6 2 0.6-0.5 2.6 0.5 2.7 8.2 1.1 9.8 3.8 6.9 2.7-5.2-2-17.6-0.5-20.1 0.1-73.3 20.6-33 108.2-2.7 141.4q-2-0.2-2.6 1.5c-0.5 1.7-3.2 5.1-2.4 6.5 0.9 1.3 1.1 3.3 0.8 2.8z"/><path class="b" d="m369.3 18.5q0.1-0.1 0.2-0.1"/><path fill-rule="evenodd" class="b" d="m275 127.6c-0.9-1.8-1.9-3.8-2-4.5 0-0.4 0.1-0.4 0.3-0.2 0 0.5 0.3 1.9 1.7 4.7zm6.3 2.6c0-1.9 0.1-3.1 0.2-4.2-0.1 1.6-0.2 3.7-0.2 4.2zm0.7-9.5c-0.1 0.7-0.2 1.5-0.3 2.6 0-1.1 0.1-1.9 0.3-2.6zm1.1-4.1c-0.1 0.4-0.3 0.8-0.4 1.1q0.2-0.6 0.3-1.4c0.1-0.2 0.2-0.1 0.3 0.1q-0.1 0-0.2 0.2zm-1.1 28.1c0.4-0.1 1.2-0.4 2.2-0.6-0.8 0.2-1.4 0.5-2.2 0.6zm38.9-24.2l-2.6 2.5c-3.1-5-7.5-11.3-9.8-12.8-0.7-0.4-4.4 8-5 20.8-0.4 8-3 11.8-5.1 13.5-0.3 0-3.9 1.8-4.3-4.7-0.1-1.5 2-9.7 4.5-12.3 0.5-0.5 2.3-2.8 1.4-2.6-3.7 0.8-7.3 4.8-8.9 6-0.6 0.3-0.1 0 0.3-1 0.1-0.2 2.7-4.6 2.7-9 0-0.5-4.8 3.9-6.2 6.3-0.1 0.1-0.2 0.2-0.3 0.1 0.2-0.1 0.4-0.4 0.6-0.7 4.2-5.7 6.3-5.6 6.5-6.5 1.9-10.3 5.4-12.7 7.1-13.6 3-1.4 6.2-0.5 6.8-0.2 0.7 0.3 5.1-0.2 6 0.2 4.4 2.4 5.7 12.9 6.3 14zm-3-7.9c-0.2-1.4-1-6.3-5-6.1-1.1 0.1-5.6 2.4-4 3.5 1.6 1.1 6.9 6.9 8.9 7.2 0.5 0.1 0.1-4.2 0.1-4.6zm-37.6 32.1q-0.4-0.1-0.8-0.1c-1.6-0.3-2.4-1.2-2.8-2.4 0.5 1.2 1.6 2.2 3.6 2.5zm17.1 0.5c-0.7 0.4-1.3 0.6-1.6 0.6-1.4 0.1-2-0.2-2.8-0.6q0.6 0.2 1.2 0.4c0.6 0.3 2.1 0.1 3.2-0.4z"/><path fill-rule="evenodd" class="b" d="m282.7 98c-0.8-0.1-1.5-0.5-1.9-1.3 0.4 0.7 1.1 1.2 1.9 1.3zm0.3 0c0.9 0 3.4-0.3 5.9-0.4-1.7 0.2-3.2 0.5-5.9 0.4zm31.2-8.2l-4.6 2c-0.8-0.8-4.7-5.3-5.7-6.7-2.8-4.2-3.2-7.1-3.6-8.4 0.3 0.4 0.5 0.7 0.6 1 0.4 0.9 6.1 6.7 9.2 8 1.2 0.4-2.2-12.9-2.4-13.4-0.2-0.6-0.8-1.5-1.6-2.4 5.4 5.5 7.9 19 8.1 19.9zm-16.1-14.5c0.2 2.2 1.3 15.3 0 19.1-0.6 1.8-1.8 2.6-2.8 2.8 0.5-0.1 0.9-0.4 1.3-0.7 0.6-0.6-3.7 1.3-2.9-2.2 0.4-1.6 3-3.1 3.1-7.4 0-1.3-0.7-5.4-1-5.4-0.7-0.1-1.3 2.6-1.7 3.5-0.4 0.8-3.4 2.7-3.4 4.2 0 1.2-0.3-4-2.1-5.7-0.9-1-1.7-3-1.7-3.7 0.1-0.6-1.1 2.9-1.5 3.6-0.4 0.5-1.4 5.7-1.1 7.3-0.3-0.9-1.4-3.5-3.2-5.6q0.3 0.3 0.5 0.5c1.8 2.1 1.7-2 1.8-3.6 0.1-7 4.3-11.1 6.8-13.5 2.6-2.4 4.8-1 5.2-0.7 0.3 0.2 3.7 0.2 5.5 0q0.9-0.1 1.8 0.1c-0.5 0-1 0-1.4 0.3-2.6 1.6-4.1 6.2-3.1 6.8 0 0.1-0.1 0.1-0.1 0.3zm-4 22.1q0.1 0 0.2 0-0.1 0-0.2 0 0 0 0 0zm0.3 0q0 0-0.1 0 0.1 0 0.1 0zm-1.6 0q0.8-0.1 1.3 0-0.2 0-0.3 0-0.5 0-1 0z"/><path class="b" d="m356.9 19.7c0.7-2.8 3.1-4.1 2.6-8.1-0.1-1.3-0.1-3.1-0.2-3.6-0.6-2.5 1.8-8.3 2.2-7.3 0.3 0.7 1.4 3.4 1.8 4.5 1 2.3 0.4 6.2-0.5 8.2-0.5 1.1-3.2 4.7-3.2 6.6"/><path class="b" d="m315.4 45.4c-0.2-1.8-2.8-18.8-12.4-27-3.3-2.8-4.5 0.7-5.7-0.1-1.2-0.7 1-3.3 4.5-3.7 12.9-1.4 14.5 13.2 14.2 18.7 0 1.7 2.1 10.2 2.3 11"/><path class="b" d="m309 65.5c-0.7-1.4-2-3.9-3.4-7.8-1.2-3.7-3.7-8.6-5.5-9.9-3.7-2.9-6-12.8-11.4-13.5-1.3-0.2-5.9 0.5-4.3-0.6 0.7-0.5 4.9-4.9 13.1-0.5 1.3 0.7 10.6 8.9 10.9 19.7 0.1 1 1 7.4 3.1 8.5"/><path fill-rule="evenodd" class="e" d="m288.3 144c-0.1 0.5 0.1 6.4 0.4 7.3 0.3 0.9 2.9 12.3-0.8 15.5-0.9 0.8-3.9 1.7-2.2-3.1m0.3-19.7c0.1 0.5 0.4 9.4-2.8 9.5zm6.5 8.9c-3.3-0.7-2.6-8.4-2.5-8.8zm3.2-0.2c-3.8-0.8-2.7-7.1-2.6-7.5zm-15.8-8c0.2 1.5-0.8 6.5-3.2 6zm2.8-0.1c-0.8 0.1-1.6 0.2-3.2-0.1-4.7-0.8-2.8-7.3-2.4-10.7 0.1-0.7-0.2-2.9-0.7-3.8-0.9-1.4-2.5-5.6-3-6.7-1.1-2.3 2.6 1 3.3 1.8 4.3 4.5 4.8 6.4 4.7 5.1 0-3 0.1-4.2 0.2-6.1 0.2-3.3 1.3-7.8 1.5-8.1 0.7-1.2 3.6 9.2 3.7 10 0.5 2.7 1.2 1 1.5 0.5 4.1-5.8 6.2-5.6 6.4-6.5 2-10.2 5.4-12.6 7.2-13.5 3-1.4 6.1-0.5 6.8-0.2 0.6 0.3 5.1-0.2 5.9 0.2 4.5 2.3 6 13.4 6.6 14.5l-2.5 2.4c-2.8-4.5-6.9-10.4-9.4-12.6l0.3-0.4 0.2 0.2q-0.1-0.1-0.2-0.2l3.6-4c-2.5 0.1-4 1.7-5.5 4.8q-0.4 0.8-0.9 2.2-0.1 0.2-0.2 0.4c-1.3 3.6-2.7 9.6-3.1 17.2-0.3 7.2-2.5 11.1-4.5 13l-2.6-13.2c-1.1 2.8-2 6.5-2.1 8.8-0.3 3.5 1.1 6.3 4.6 4.5-1.3 1.3-2.6 1.7-3.1 1.7-3.1 0.1-2.4-1.7-8.5-2-2.5-0.1-3.4 0.5-4.6 0.8q0 0 0 0c0.4 1.9-0.5 8.3-3.5 7.8l3.5-7.8q0 0 0 0 0 0 0 0 0 0 0 0zm26.6-33.8l-2.7 3q0.1-0.2 0.2-0.4 0.4-1.2 0.9-2.2c0.4-0.8 0.7-1.1 0.9-1q0.3 0.2 0.7 0.6zm-21.7-12.8q0-0.2 0-0.2zm1 3c0.3 0.5 0.8 3.3 0.2 4.4-0.6 1.1-0.4 4.3 0.3 5.4 1.1 1.6 1.3 8.3-0.9 7.2-0.9-0.4-1-1.3-1-2.4l0.4-17.6c0.1 0.7 0.7 2.6 1 3zm-5.1-2.9c0.6 2.3 0.4 4.2-0.3 5.9-0.4 1-0.7 1.5-1.4 1.5zm2.1-0.1c0.8 2.2 0.8 4.1 0.3 5.8-0.3 1.1-0.5 1.6-1.2 1.7zm5-0.1q0-0.3 0.1-0.5zm0.3 1.5c0.3 0.5 0.9 2.2 0.6 4.3-0.2 1.2-0.3 1.3-1.3 1.3l0.4-7.1c0 0.5 0.1 1.1 0.3 1.5zm-9.3-0.6c0.1-0.4 0.2-0.7 0.4-0.9zm-0.1 0.7c0.1 0.5 0.3 4.5-0.6 5.1-1.1 0.7-1.7 0.3-2 0.1l2.7-5.9q-0.1 0.3-0.1 0.7zm11.5-1.2c-0.1-0.3 0-0.7 0-1zm0.2 0.7c0.3 0.5 1.9 4.2 1.3 5.1-0.7 1-1.5 0.8-1.8 0.8l0.3-6.6q0.1 0.4 0.2 0.7zm24.7 19.7q0.1-0.8 0.1-1.6 0 0 0 0c0.1-2.9 0.1-6.1-1-8.1l0.8 7.9-8-6.3c2.6 2.2 6.1 6.3 8 6.5zm0.4 4.1l-0.4-4.1c-0.1 1.9 0 3.4 0.4 4.1zm-7.6-29.7c-0.8-0.9-5.8-6.6-6.8-8.1-3.2-4.6-3.3-7.7-3.8-8.8 1.9 3.1 6.7 8.4 9.7 9.4l0.9 5.1c-0.4-10.9-2-16.1-3.4-19.2 4.8 6.3 7.1 18.5 7.3 19.4zm-10.6-17q0 0 0 0v-0.1q0 0.1 0.1 0.2-0.1 0-0.1-0.1zm-0.8-0.8l3.2-7.5c1.8 0.3 3.4 1.6 4.8 3.5l2.5 13.9-9.7-9.1c-0.2-0.3-0.5-0.6-0.8-0.8zm0 0l-1 2.2c-0.1-1-0.1-1.8-0.2-2.3 0-0.5 0.6-0.3 1.2 0.1zm-1.2 19.1c-0.9 2.7-3.1 3-4.3 2.9-5-0.3-5.9 0.8-11.1 0.6-3.3-0.1-3.2-6.7-3.3-8.5-0.2-1.8-0.4-3.7-1.9-6-1.8-3 2.1 0.2 3.7 1.7l-0.2-0.1c2.3 1.9 3.6 7.4 3.5 6.3-0.1-1.2-0.1-2.7 0-4l-1.8-1.2c0.7-0.4 0.7-3 0.7-4.1 0.1-7.1 4.3-11.1 6.8-13.6 2.6-2.4 4.8-1 5.2-0.7 0.3 0.3 3.7 0.2 5.6 0q0.7-0.1 1.4 0.1c-1 0-5.4 1.5-4.1 9.7 0.4 4.6 0.8 13.8-0.2 16.9zm-16.9-9.3l1.5 1c-0.3 0.1-0.6 0-1.1-0.6q-0.2-0.1-0.4-0.4zm26.2-13.7q-0.1 0-0.1-0.1v-0.2q0 0.2 0.1 0.3zm-4.9-3.6q-0.1 0-0.1 0 0-0.1 0.1-0.1zm-8.5 25.9q-0.1 0-0.1 0c-1.3 2.2 1.5 4 3.4 2.2zm2.2-11.6c-0.5-1.8-1.4 1.7-1.9 2.9-0.6 1.2-3.4 1.9-3.4 4.9 0 0.2-0.2-4.1-1.7-5.6-0.5-0.6-2-3.2-2.1-4.6 0-1.4-1 3-1.7 4-0.4 0.5-0.7 2-0.8 3.7l9.4 6.3c1.3-2.1 4.2-5 2.2-11.6zm2.8 62.1q0-0.1 0-0.1 0 0 0 0.1zm-0.6-16.8c4.4-3.9 1.1-2.9-2.7-0.5q0 0.1 0 0.1l0.7 3.9c0.7-1.6 1.3-2.9 2-3.5zm-2.7-0.4l-1.3-6.3c-0.1 3.3-1.8 6.9-3.3 9.5-1.5 2.6 2.5-1.9 4.6-3.2zm14-16.5l-1-0.7q0.5 0.3 1 0.7zm8.2 6.7v-0.2l0.2 0.2q0 0 0 0-0.1 0-0.2 0zm-7.4-31.3l-0.6-0.6 0.1 0.5q0.3 0.1 0.5 0.1z"/><path class="b" d="m369.3 18.5q0.1-0.1 0.2-0.1"/><path class="b" d="m366.6 17.4c0.1-1.6 3.2-3.8 3.1-4.4-0.2-3.6 0.6-6.6 1.1-7.5 0.5-1 1.7-1.7 1.8-1.4 0.8 1.6 1.9 4.4 2 5.6 0.2 1.8 0.1 5.6-5.1 8.7"/><path class="e" d="m358.2 150l1.5-6c1.3 2.9 7.1 4.7 13.9 4.2 7.1-0.5 13-3.5 13.5-6.7l3 4.9 1.8-5.9c1.4 3.7 8.2 5.6 15.7 4.2 7-1.4 12.4-5 13-8.7l2.2 7.3"/><path fill-rule="evenodd" class="f" d=""/><path class="b" d="m338.9 109.7c1.9-1.1 3.3-5.4 3.8-3.4 0.5 2 3.4 7.8 0.7 6.1-2.7-1.6-5.1-2.3-4.5-2.7z"/><path class="b" d="m337 96.7c2-0.7 5.2-4.4 4.9-2.4-0.3 2 1.6 8-1.1 6.2-2.8-1.8-4.8-3.5-3.8-3.8z"/><path class="b" d="m338.2 84.3c2 0.2 6.2-1.3 5.9-0.5-0.4 0.8-2 6.1-2.7 4.9-0.7-1.2-3.9-4.5-3.2-4.4z"/><path class="b" d="m345.1 73.8c1.8 0.2 6.1 0.9 5.5 1.4-0.6 0.6-5.4 5.7-5 4.4 0.3-1.3-1.3-5.8-0.5-5.8z"/><path class="b" d="m355.4 66.9c1.7 0.3 3 3.3 4.7 3.2 1.8-0.1-4.8 2.5-6 3.3-1.2 0.8 0.8-6.6 1.3-6.5z"/><path class="b" d="m364.1 69.2c1.6-1.1 3.2-5.8 4.3-4.2 1.1 1.5 4.1 4.9 1.8 4.5-2.4-0.4-7 0.4-6.1-0.3z"/><path class="b" d="m375.4 69.3c1.6-0.1 5.2-5.2 5.4-3.6 0.3 1.5 2.5 5.7 0.8 5.1-1.7-0.6-7.7-1.4-6.2-1.5z"/><path class="b" d="m386.6 72.5c1.9 0.4 7-3.6 6.8-2.4-0.1 1.2 1.1 7.1-0.4 6.5-1.5-0.6-7.6-4.3-6.4-4.1z"/><path class="b" d="m400 78.5c1.4-0.2 4-3.1 4.5-2 0.6 1.2 2 3.2 0.2 3-1.7-0.2-5.6-0.8-4.7-1z"/><path class="b" d="m441.6 76.3c1.9 0.2 4.4 2.1 2.9 2.6-1.6 0.4-5.7 1.3-5 0.3 0.8-0.9 1.4-3 2.1-2.9z"/><path class="b" d="m453 69.8c2.1 1.3 6.9 2.6 5 3.7-1.8 1-7.4 4.9-6.8 3.3 0.6-1.6 1.4-7.2 1.8-7z"/><path class="b" d="m463.2 70.5c0.7-1.7 1.2-7 2.5-5.4 1.3 1.5 4.7 4.3 2.4 4.8-2.3 0.4-5.1 1.3-4.9 0.6z"/><path class="b" d="m473.8 69.2c1.3-0.8 3.6-6 4.6-3.8 1.1 2.2 3.2 4.3 1.3 4.1-1.9-0.2-6.9 0.2-5.9-0.3z"/><path class="b" d="m484.9 70.2c1.8-0.3 5.9-4.8 5.9-1.9 0 2.8 1.2 5-0.6 4.2-1.9-0.7-6.4-2.1-5.3-2.3z"/><path class="b" d="m494.8 75.2c1.7 0.7 6.7-2.1 6.1-0.3-0.7 1.8-0.5 5.3-2 4.3-1.4-0.9-5-4.3-4.1-4z"/><path class="b" d="m501.6 83.2c1.6 0.5 6.1 1.1 5 2.4-1.1 1.3-3 4.6-3.6 3.5-0.6-1-2.1-6-1.4-5.9z"/><path class="b" d="m504.1 94.4c1.4 0.9 6.3 2.7 3.7 3.8-2.6 1-4.5 3.9-4.1 2.4 0.5-1.5-0.1-6.4 0.4-6.2z"/><path class="b" d="m503 105.8c1.2 1.7 5 5 3.3 5-1.6 0-5.7 3.9-5.2 1.9 0.5-1.9 1.6-7.4 1.9-6.9z"/><path class="b" d="m485.9 20c0-1.9-2.7-5.5-3.1-6.6-1-2-1.6-5.9-0.6-8.2 0.4-1.1 1.6-3.8 1.8-4.5 0.4-1 0.6 1.6 1.2 2.1 1.1 1 1.4 4.2 1.2 5.2 0 0.5-0.3 2.4-0.4 3.7-0.4 3.9 1.9 5.6 2.6 8"/><path class="b" d="m496.2 21.3c-1-4.1-2.5-6.5-3.2-8.1-0.6-1.6-1.3-4.5 0.3-7.1 1.3-2.2 2.3-6.9 2.5-7.9 0.4-1.6 1.6 0.7 1.8 1.3 0.8 2.4 0.7 6.3 0.3 7.8-0.3 1.7-1 5.9-1 7.6-0.1 4.1 2.1 5.3 2.3 6.5"/><path class="b" d="m507.2 27.2c-0.5-0.9-0.6-2.4-1-3.4-0.9-2-0.6-7.6-1.1-8.7-0.7-1.5-0.8-6.1-0.4-7.3 2.1-5.2 8.4-6.3 9.6-6.2 1.2 0 2.7-0.2 2.1 0.5-0.7 0.7-0.9 1-1.1 1.8-0.2 0.8-5 5.3-5.4 6.2-1.6 3.1-0.7 15.1-0.6 16.5"/><path class="b" d="m518.7 35.1c-0.4-1.3-0.9-9.4-1.1-10.1-0.1-0.7 0-1.7-0.1-2.3-0.2-2.4-0.1-6.4 0.1-7.2 1.9-7.3 8.7-7.2 9.2-7.2 1.1-0.1 3.7-0.1 2.9 0.3-1.1 0.5-1.2 2-3.1 2.9-2.5 1.2-2.2 2.5-2.9 4-0.3 0.7-0.7 1.5-1.4 5.9-0.5 3.2 0.6 17.8-0.4 15-0.7-1.8-3.2-1.1-3.2-1.3z"/><path class="b" d="m527.2 44.3c0.2-0.8 2.4-9.3 2.3-11-0.3-5.5 1.4-20.1 14.2-18.7 3.6 0.4 5.7 3 4.6 3.7-1.2 0.8-1.1-2.3-5.8 0.1-1.3 0.7-7.7 8.4-9.7 15.2-0.3 0.7-2.4 10-2.6 11.8"/><path class="b" d="m534 61.5c2.1-1.2 3.1-7.6 3.1-8.6 0.3-10.8 9.6-19 10.9-19.7 8.3-4.4 12.4 0 13.1 0.5 1.6 1.1-3 0.4-4.3 0.5-5.4 0.7-7.7 10.7-11.4 13.6-1.7 1.3-4.3 6.2-5.5 9.9-1.4 3.9-2.7 6.7-3.4 8.1"/><path class="b" d="m476 18.4c-5.2-3.1-5.3-6.9-5.1-8.7 0.1-1.2 1.2-4 2-5.6 0.1-0.3 1.3 0.4 1.9 1.4 0.5 0.9 1.2 3.9 1 7.5-0.1 0.6 3 2.8 3.2 4.4"/><path fill-rule="evenodd" class="b" d="m563.5 120.7c0.2 0.7 0.3 1.5 0.4 2.6-0.2-1.1-0.3-1.9-0.4-2.6zm-2.2 23.4c1.1 0.2 1.8 0.5 2.2 0.6-0.8-0.1-1.4-0.4-2.2-0.6zm-4-17.5c0.2 0.3 0.4 0.6 0.6 0.7-0.1 0.1-0.2 0-0.3-0.1-1.4-2.4-6.1-6.8-6.2-6.2 0 4.3 2.6 8.7 2.7 8.9 0.4 1 0.9 1.3 0.3 1-1.6-1.2-5.2-5.2-8.8-6-1-0.2 0.8 2.1 1.3 2.6 2.6 2.6 4.6 10.8 4.5 12.3-0.3 6.5-3.9 4.7-4.2 4.7-2.2-1.7-4.8-5.5-5.2-13.5-0.6-12.8-4.3-21.2-5-20.8-2.3 1.5-6.7 7.8-9.8 12.8l-2.6-2.5c0.6-1 1.9-11.6 6.3-14 0.9-0.4 5.4 0.1 6-0.2 0.6-0.3 3.8-1.2 6.8 0.2 1.8 0.9 5.2 3.3 7.2 13.6 0.1 0.9 2.2 0.8 6.4 6.5zm-24.7-20.1c-4-0.2-4.8 4.7-5 6.1 0 0.4-0.4 4.7 0.2 4.6 1.9-0.3 7.2-6.1 8.8-7.2 1.6-1.1-2.9-3.4-4-3.5zm29.6 9.9c0.1-0.2 0.2-0.3 0.3-0.1q0.2 0.8 0.3 1.4c-0.1-0.3-0.3-0.7-0.4-1.1-0.1-0.1-0.1-0.2-0.2-0.2zm1.9 9.6c0 1.1 0.1 2.3 0.1 4.2 0-0.5-0.1-2.6-0.1-4.2zm4.7 16.2c-0.4 1.2-1.2 2.1-2.8 2.4q-0.4 0-0.7 0.1c1.9-0.3 3-1.3 3.5-2.5zm1.7-14.6c1.4-2.8 1.7-4.2 1.7-4.7 0.2-0.2 0.3-0.2 0.3 0.2-0.1 0.7-1 2.7-2 4.5zm-19.2 18q0.6-0.2 1.2-0.4c-0.8 0.4-1.4 0.7-2.8 0.6-0.3 0-0.9-0.2-1.6-0.6 1.1 0.5 2.6 0.7 3.2 0.4z"/><path fill-rule="evenodd" class="b" d="m556.9 83.5c-1.8 1.8-2.1 6.9-2.1 5.7 0-1.5-3-3.4-3.4-4.2-0.4-0.9-1-3.6-1.7-3.5-0.3 0-1 4.1-1 5.4 0.1 4.3 2.7 5.8 3.1 7.4 0.8 3.5-3.5 1.6-2.8 2.2 0.3 0.3 0.8 0.6 1.3 0.7-1.1-0.2-2.3-1-2.9-2.8-1.2-3.8-0.2-16.9 0-19.1q0-0.2-0.1-0.3c1-0.6-0.5-5.2-3.1-6.8q-0.7-0.4-1.4-0.3 0.9-0.2 1.8-0.1c1.8 0.2 5.2 0.2 5.6 0 0.4-0.3 2.6-1.7 5.1 0.7 2.5 2.4 6.7 6.5 6.9 13.5 0 1.6-0.1 5.7 1.7 3.6q0.2-0.2 0.5-0.5c-1.8 2.1-2.9 4.7-3.2 5.6 0.3-1.6-0.7-6.7-1.1-7.3-0.4-0.7-1.6-4.3-1.5-3.6 0.1 0.7-0.8 2.7-1.7 3.7zm-12.3-5.8q0.2-0.4 0.6-1c-0.4 1.3-0.8 4.2-3.6 8.4-1 1.4-4.8 5.9-5.7 6.7l-4.5-2.4c0.2-0.9 2.7-14.6 8.2-19.7-0.9 0.9-1.5 2-1.8 2.6-0.2 0.5-3.6 13.8-2.4 13.4 3.1-1.3 8.9-7.1 9.2-8zm6.8 19.7q0 0 0 0 0 0 0 0 0 0 0 0zm-0.3 0q0.1 0 0.2 0-0.1 0-0.2 0zm0.2 0q0 0 0.1 0-0.1 0-0.1 0zm0.1 0c0.3 0 0.8 0 1.3 0q-0.5 0-1 0-0.1 0-0.3 0zm13.4-0.7c-0.5 0.8-1.1 1.2-2 1.3 0.9-0.1 1.5-0.6 2-1.3zm-8.2 0.9c2.5 0.1 5 0.4 5.9 0.4-2.7 0.1-4.2-0.2-5.9-0.4z"/><path class="b" d="m488.3 175.5c0.7-3.3-0.5-6-0.8-6.7-0.7-1.8-2.4-2.1-2.8-2.1q-0.3 0-1-0.5c30.4-32.7 71.5-121.1-2.2-141.9-2.4-0.6-14.9-2.1-20.1-0.1-2.8 1.1-1.3-1.6 6.9-2.7 1-0.1-1.5-2.1 0.5-2.7 1.9-0.7 2.9 0.6 3.5 1.6 0.7 1 4.8 0.3 4.7-0.1-0.1-0.5-2.3-1.9-0.2-2.7 2.1-0.8 2.9 0 3 1 0.1 0.9 0.7 2.1 2.2 3 1.6 0.9 5.3 2.6 4.6 1.6-0.6-1-1.7-3.5-0.6-3.5 1.6 0 3.6-0.7 3.9 0.6 0.3 1.3 0.7 3 2.1 3.7 1.4 0.7 4.5 2 4 1.2-0.4-0.9-1.1-4.2-0.2-4.1 1.6 0.1 4.3-0.6 4.4 1.4 0.1 2.1-0.3 4 0.8 5 0.9 0.9 3.8 4.3 5.6 3.8 0.1-0.1-0.5-3.1 0-4 1.1-1.8 3.8-0.8 4.1 0.1 0.2 0.6 0.3 1.2 0.4 1.8 0 0.5 0.2 2.2 0.1 3.8-0.1 0.8 4.3 3.7 5.1 5.8 0.2 0.5 0.6 0.3 0.7-0.2 0-0.5 0.5-2.9 1.4-3.4 3.2-1.7 3.7 1.1 3.8 2.2 0.1 0.9 0.2 1.9-1.5 5.4-0.3 0.6 2.3 6.4 2.4 7.8 0.1 0.6 1 0.3 1.2 0 0.3-0.3 1-0.5 0.9-0.9-0.2-0.5 0-5.6 2.4-5.6 1.1 0 2.1 0.5 2.4 0.8 0.6 0.5 0.7 0.8 0.7 2.2 0 0.7 0.3 4.2-2.2 4.5-0.6 0.1-1.4 3.4-1.2 4.2 0.3 0.7 0.8 5.7 0.8 7.7-0.1 0.7 1.1 0.2 1.2-0.2 0.2-0.4 1.1-2.1 4.3-1.9 2.9 0.2 3 4.1 3 4.7 0 1.1 0.5 3.7-5.5 5.4-0.6 0.2 0.9 7.8-1.7 19.1-0.2 0.8 1.3-0.2 1.5-0.6 0.3-0.8 0.4-1 1.3-0.5 1 0.5 3.2 1.4 3.6 2.3 0.2 0.5 1.2 5-4.5 8.3-1.5 0.9-6.1 16.5-9 19.5-0.6 0.6 0.1 1.3 1.6 0.9 0.7-0.2 3.9 2.6 3.7 3.1-0.3 0.5-0.5 1.4-0.5 1.9 0 0.6 0 3.8-5.9 5.2-4.1 0.9-19.7 32.6-30.4 43.3-0.9 0.9-1.6 1.7-2.7 2.3q0.1-0.3 0.2-0.8z"/><path fill-rule="evenodd" class="e" d="m559.8 163.7c1.7 4.8-1.2 3.9-2.1 3.1-3.8-3.2-1.2-14.6-0.9-15.5 0.3-0.9 0.5-6.8 0.4-7.3m5.1 9.5c-3.2-0.1-2.8-9-2.7-9.5zm-6.8-9.3c0.1 0.4 0.8 8.2-2.5 8.9zm-3.2 1.1c0.1 0.4 1.3 6.6-2.6 7.4zm16.4 5.5c-2.3 0.5-3.4-4.5-3.2-6zm-2.4 1.7c-3 0.4-3.9-5.9-3.5-7.9zm-8.4-54.6q0 0.1 0 0.2zm0 0.3l0.4 17.6c0 1.1-0.1 2-1.1 2.4-2.1 1.1-1.9-5.6-0.8-7.2 0.7-1.1 0.9-4.3 0.3-5.4-0.6-1.1-0.1-3.9 0.2-4.4 0.3-0.4 0.9-2.3 1-3zm5.8 7.5c-0.7 0-1-0.5-1.4-1.5-0.7-1.7-0.9-3.6-0.4-5.9zm-2.9 0c-0.7-0.1-0.9-0.6-1.2-1.6-0.4-1.8-0.4-3.7 0.3-5.9zm-5.9-8.2q0 0.2 0 0.6zm0 0.5l0.4 7.1c-1 0-1.1-0.1-1.3-1.3-0.4-2.1 0.3-3.8 0.6-4.3 0.2-0.4 0.3-1 0.3-1.5zm8.6 0c0.1 0.2 0.3 0.5 0.4 0.9zm0.4 0.9l2.7 5.9c-0.3 0.2-0.9 0.6-2-0.1-0.9-0.6-0.7-4.5-0.6-5.1q0-0.4-0.1-0.7zm-11.4-1.4c0 0.2 0.1 0.6 0 1zm0.1 0.9l0.3 6.6c-0.3 0-1.1 0.2-1.8-0.9-0.6-0.8 1-4.5 1.3-5q0.1-0.3 0.2-0.7zm-28.5 23.1c1-0.9 1.9-7.7 4.2-11.9-0.8 2-0.8 4.9-0.7 7.6q0 0 0 0 0 0.8 0.1 1.6l0.1-1.6c1.9-0.2 5.4-4.2 8-6.5l-8 6.3 0.7-7.8c0.7-1.2 1.5-2.1 2.5-2.6 0.9-0.4 5.3 0.1 6-0.2 0.6-0.4 3.8-1.2 6.8 0.2 1.7 0.8 5.2 3.2 7.1 13.5 0.2 0.9 2.3 0.7 6.4 6.5 0.3 0.5 1 2.2 1.5-0.5 0.1-0.8 3-11.3 3.8-10 0.1 0.2 1.3 4.7 1.4 8 0.1 2 0.3 3.2 0.2 6.2 0 1.2 0.4-0.6 4.7-5.1 0.8-0.9 4.5-4.2 3.3-1.8-0.5 1-2 5.2-2.9 6.7-0.5 0.8-0.9 3-0.8 3.8 0.5 3.4 2.4 9.8-2.4 10.7-3.8 0.7-3.5-0.9-7.8-0.7-6 0.3-5.3 2.1-8.5 2-0.5 0-1.7-0.4-3.1-1.8 3.6 1.9 4.9-0.9 4.7-4.4-0.2-2.3-1.1-6-2.1-8.8l-2.7 13.2c-1.9-1.9-4.1-5.8-4.5-13-0.4-7.6-1.8-13.6-3.1-17.2q-0.1-0.3-0.2-0.6-0.5-1.2-0.8-2c-1.5-3.1-3.1-4.7-5.6-4.8l3.6 4q-0.1 0.1-0.2 0.2l0.2-0.2 0.3 0.4c-2.5 2.2-6.7 8.4-9.5 12.9zm13.8-10.2q0.4 0.9 0.8 2 0.1 0.2 0.2 0.5l-2.6-3q0.4-0.3 0.7-0.6c0.2-0.1 0.5 0.3 0.9 1.1zm-9.4-2.1q-0.1 0.2-0.2 0.4 0.1-0.3 0.2-0.5zm-0.9 9.6l-0.4 4.1c0.4-0.7 0.4-2.2 0.4-4.1zm3.4-27.5c0.2-0.8 2.5-13 7-19.5-1.3 3.2-2.8 8.3-3.3 19l1-5.1c3-1 7.8-6.3 9.7-9.4-0.5 1.1-0.7 4.2-3.8 8.8-1 1.5-5.3 6.4-6.1 7.2zm7.2-19.7c1.4-2 3-3.4 4.8-3.7l3.2 7.5c-0.3 0.2-0.7 0.6-0.8 0.8l-9.7 9.1zm7.2 4.7q0 0-0.1 0.1 0.1-0.1 0.1-0.2 0 0 0 0.1zm-0.9-8.5c1.9 0.2 5.3 0.3 5.6 0 0.4-0.2 2.6-1.6 5.2 0.8 2.5 2.4 6.7 6.5 6.8 13.5 0.1 1.2 0 3.8 0.8 4.1l-1.9 1.2c0.1 1.4 0.1 2.8 0 4-0.1 1.1 1.2-4.3 3.5-6.3l-0.1 0.1c1.5-1.4 5.4-4.7 3.6-1.7-1.4 2.3-1.7 4.3-1.9 6-0.1 1.8 0 8.4-3.3 8.5-5.2 0.2-6.1-0.9-11.1-0.5-1.1 0-3.4-0.3-4.3-3-1-3.1-0.5-12.3-0.2-16.8 1.3-8.2-3.1-9.8-4.1-9.8q0.7-0.2 1.4-0.1zm18.4 18.4l1.5-1q-0.3 0.3-0.5 0.5c-0.4 0.5-0.8 0.6-1 0.5zm-15.7-8.5l-1-2.3c0.6-0.4 1.2-0.6 1.2 0-0.1 0.4-0.1 1.2-0.2 2.3zm-9-6.1q-0.1 0.1-0.2 0.2 0.1-0.3 0.2-0.6zm5-3.7q-0.1 0-0.1 0.1v-0.1q0 0 0.1 0zm5 28.1c2 1.8 4.7 0 3.5-2.2q-0.1 0-0.1 0zm3.4-2.3l9.5-6.3c-0.2-1.7-0.4-3.2-0.8-3.7-0.7-0.9-1.7-5.4-1.8-4-0.1 1.4-1.5 4-2.1 4.6-1.5 1.5-1.7 5.8-1.7 5.6 0-3-2.8-3.7-3.4-4.9-0.5-1.2-1.4-4.7-1.9-2.9-1.9 6.6 0.9 9.5 2.2 11.6zm-5 50.4q0 0 0 0.1 0-0.1 0-0.1zm2.6-13.2l0.8-3.9q0 0-0.1 0c-3.8-2.4-7.1-3.4-2.7 0.4 0.7 0.6 1.4 1.9 2 3.5zm5.3-0.6c-1.5-2.6-3.1-6.2-3.3-9.5l-1.2 6.2c2.1 1.4 6 5.9 4.5 3.3zm-18.5-19.7v-0.1q0.5-0.4 0.9-0.7zm-8.2 6.5v0.2q-0.1 0-0.2 0 0 0 0-0.1zm7.3-31q0.3-0.1 0.6-0.2l0.1-0.5z"/><path class="b" d="m454.7 149.9c4.2 0.3 7.4 2.5 7.3 4.7-0.2 2.3-3.7 3.9-8 3.6-4.2-0.3-7.5-2.4-7.3-4.7 0.2-2.3 3.7-3.9 8-3.6z"/><path class="b" d="m433.3 154.8h-21.2v-7.8h21.2z"/><path class="b" d="m488.3 157.4l-3.4 5-8.7-6.8 10.3-4z"/><path fill-rule="evenodd" class="e" d="m451.2 132.1c1.8-4.3-1.8-5.4-3.2-5.2q-4.9 0.8-2.6 9.4c-13.6-11 4.9-23.4 8.9-12.2-0.6-2.1-1.9-10.5 6.6-20.2 5.9 11.4 2.7 19.3 1.7 21.1 6.5-9.9 21.5 6.5 5.7 14q4.3-7.8-0.3-9.7c-1.3-0.5-5.1-0.3-4.3 4.2m-1.3-8.1c-0.1 0.2 0 0 0.2-0.4q-0.1 0.2-0.2 0.4zm-8-0.9q-0.1-0.2-0.1-0.4c0.1 0.4 0.1 0.6 0.1 0.4zm11.2 11.8c-0.2 1.4-1.5 2.3-3 2.2l-11.4-1.4c-1.5-0.1-2.6-1.4-2.4-2.8 0.1-1.4 1.5-2.4 3-2.2l11.4 1.3c1.5 0.2 2.6 1.5 2.4 2.9zm10.7 19.3l12 1.8"/><path class="f" d="m435.8 89.5c22.2-1 21.8-11.2 39.3-11.8 8.3-0.3 29.7 7.9 15.1 40.9"/><path class="e" d="m439.4 79.7c18.4-0.2 15.1-9.9 36-10.2 13.5-0.2 40.2 8.7 22.4 51.4"/><path fill-rule="evenodd" class="f" d="m419.1 82.4c-5-1.6-8.7-6.3-8.7-11.9q0-1.7 0.5-3.2h8.7v-8.8l-8.7 8.7c1.4-5.3 6.3-9.2 12-9.2 5.7 0 10.6 3.9 12 9.1l-8.7-8.6v8.8h8.8q0.4 1.5 0.4 3.2c0 5.6-3.7 10.3-8.8 11.9m-15.7-15.2q0 0 0 0.1h-0.1zm24 0.1q0-0.1 0-0.1l0.1 0.1zm-7.7-25.3q4-1.3 9.6-4.9v14.2q-5.4-3.6-9.4-4.9zm-8.7 4.5q-4 1.2-9.5 4.9v-14.3q5.7 3.8 9.7 5zm14.3 16.6q-6-9-7.2-14.6zm-12.8-14.3q-1.3 5.6-7.1 14.3zm0.6-8.8q-1.3-3.9-5-9.6h14.3q-3.7 5.7-5 9.7zm-9.9 33h24.3"/><path fill-rule="evenodd" class="e" d="m488.3 157.4l-3.3 5-8.7-6.8 10.3-4 0.1 0.6c1.1-4.5 2.4-8.4 3.9-12.1l-3.9 12.1zm-55.1-2.6h-21.1v-7.8h21.1zm28.7-0.4c-0.1 2.3-3.6 4-7.8 3.8-4.2-0.2-7.5-2.2-7.4-4.5 0.1-2.4 3.6-4.1 7.8-3.9 4.2 0.2 7.5 2.3 7.4 4.6zm25.9-17.6c-0.1 0.2-0.3 0.3-0.4 0.2q-1.5-0.4-4.3 0.4l-7.4 0.3 4.8-16q5 9.4 8.4 10.4 0 0 0.1 0.1 1.1-4.1-5.5-15.6l15.7 4.7c-1.5 3.6-3.3 7.1-5.1 10.8l-5 0.2q0 0 0 0.1zm-4.7 0.5l4.5-0.2c-1.7 5.1-7.3 8.7-13.9 8.4-5.5-0.2-10.2-3.2-12.2-7.2l14.2-0.6-1.1 3.3q5.2-2.7 8.5-3.7zm-31.5-0.1c-2.8 3.1-7.4 4.9-12.4 4.3-7.4-0.7-13-6.4-12.4-12.7q-0.3 0-0.5 0v-5.2q3.5 0 11-7.5v16.1zm-24.2-26.9q0.6-9.8 1.7-17.4 1.1-7.6 5.2-17.3h6.8q-4.3 9.2-6.3 17.3-1.6 6.7-2 17.4zm-8.2 18.5q-3.5 0-11 7.6v-20.3q7.5 7.6 11 7.6zm0.1-5.8q-1-4.4-9.7-12.7h26.2q-8.5 8-9.7 12.5z"/><path class="e" d="m358.2 150l1.5-6c1.3 2.9 7.1 4.7 13.9 4.2 7.1-0.5 13-3.5 13.5-6.7l3 4.9 1.8-5.9c1.4 3.7 8.2 5.6 15.7 4.2 7-1.4 12.4-5 13-8.7l2.2 7.3 2.1-7.3c0.6 3.7 6 7.3 13 8.7 7.6 1.4 14.3-0.5 15.7-4.2l1.8 5.9 3.1-4.9c0.4 3.2 6.3 6.2 13.4 6.7 6.8 0.5 12.6-1.3 13.9-4.2l1.5 6"/><path fill-rule="evenodd" class="f" d=""/><path fill-rule="evenodd" class="e" d="m419.6 102.1c-1.7-1.7-1.8-4.4-0.3-6.3q0.3-0.3 0.5-0.5h-0.2c-1.7-1.7-1.8-4.4-0.3-6.2q0.2-0.3 0.5-0.5h-0.2c-1.7-1.7-1.8-4.4-0.3-6.3q0.2-0.2 0.5-0.5h-0.2c-1.7-1.6-1.8-4.4-0.3-6.2 1.7-2 4.6-2.2 6.6-0.6 1.9 1.7 2.2 4.6 0.5 6.5q-0.1 0.2-0.3 0.4h-0.1c1.8 1.6 2 4.5 0.4 6.4q-0.1 0.1-0.2 0.3h-0.2c1.8 1.6 2 4.5 0.4 6.4q-0.1 0.2-0.2 0.3h-0.2c1.8 1.7 2 4.5 0.4 6.5q-0.1 0.1-0.2 0.2z"/><path fill-rule="evenodd" class="f" d=""/><path class="e" d="m358.8 176.9c-2.3-2.1-2.5-3.3-1.6-6.7 0.3-1.3 3.1-5 4.8-5 0.6 0 1.8-0.3 2.9 0 1.2 0.2 1.9-1.4 5-0.4 0.3 0.1 0.9 0.4 1.3 0.5 0.4 0.2 3.2-2.6 6.7-1.4 0.3 0 1.2 0.3 1.4 0.5 0.2 0.1 2.4-2.1 6.2-1.2 0.3 0.1 1.3 0.3 1.5 0.5 0.2 0.2 2.4-1.9 5.9-1 0.4 0.1 1 0.2 1.5 0.5 0.4 0.2 2.4-1.9 5.9-0.9 0.3 0.1 1.2 0.6 1.5 0.7 0.3 0.1 1.8-1.7 6.1-1 0.3 0.1 1.1 0.4 1.3 0.6 0.2 0.1 2.4-1.5 6.1-0.7 0.3 0 1.2 0.4 1.7 0.7 0.3 0.2 2.3-1.7 5.7-0.7 0.4 0.1 1.2 0.4 1.5 0.6 0.4 0.2 2-1.7 6.2-0.6 0.4 0.1 1 0.5 1.3 0.7 0.2 0.3 2.8-1.8 6.4-0.4 0.5 0.1 0.8 0.4 1 0.6 0.1 0.2 3.2-1.6 6.4-0.3 0.4 0.1 0.9 0.4 1.2 0.6 0.2 0.2 2.9-1.6 6.2-0.2 0.4 0.1 1 0.5 1.2 0.6 0.1 0.2 2.6-1.5 5.9-0.2 0.4 0.2 1.1 0.7 1.4 0.9 0.2 0.2 2.6-1.6 6-0.1 0.4 0.2 1.1 0.6 1.4 0.8 0.2 0.2 2.8-1.7 6.2 0.1 0.4 0.2 1.1 0.5 1.3 0.7 0.3 0.2 3.1-1.6 6.6 0.1 0.5 0.2 1 0.5 1.4 0.8 0.3 0.3 1.2 0 2.3 0.9 0.3 0.3 3 4 1.2 9.8"/><path class="b" d="m467.3 178.6c0.2-0.2 4.4-3.8 12.3-1.6 0.7 0.2 3.7 0.9 5.6 0.3 0.6-0.2 7.6-2.3 11.6 0.3 0.8 0.4 6.9 5 7.3 11.8 0.1 0.8-0.3 3.8-0.4 4.2-0.1 0.3-27.6-2.1-27.6-2.4-0.1-0.3-2.9-5.5-3.3-6-0.3-0.6-3-5-4.8-6.1q-0.4-0.2-0.7-0.5z"/><path class="b" d="m414.8 177.2c0.2-0.2 5.3-3 12.7-0.6 0.1 0 2 0.3 4.2-0.3 0.7-0.2 6.6-1.9 11.8 1.7 0.4 0.4 3 2.3 5.2 6.5 0.3 0.4 2.7 4.8 2.9 5.1 0.2 0.2-29.5-0.5-29.7-0.8-0.2-0.3-1-2.5-1.3-3.6-0.1-0.5-1.7-4.7-4.2-6.9q-0.4-0.3-1.6-1.1z"/><path class="b" d="m360.8 178.1c0.3-0.2 4.9-3.6 13.1-1.5 0.5 0.2 2.8 0.1 3.5-0.2 0.8-0.3 6.2-1.8 10.4 0.7 0.5 0.3 4 2 6.6 7 0.2 0.4 2.4 4.6 2.7 4.9 0.1 0.2-28.7 1.4-28.8 1.2-0.5-1-1.4-4.6-4.2-8.6-0.2-0.4-1.5-2.2-2.8-3.2q-0.4-0.2-0.5-0.3z"/><path class="b" d="m368.3 190.2c0.3 0 24-1.4 28.7-1.2 0.3 0 2.4 4.5 6.9 7.2 0.2 0.1-4.6 3.3-11.6 1.9-0.4-0.1-5.1-1.9-8.1-0.2-0.4 0.2-5.8 2.8-10.8-1.2-0.4-0.3-3.6-3.3-4.3-5.1q-0.2-0.4-0.8-1.4z"/><path class="b" d="m421.9 188.8c0.2 0 22.5 0.2 29.7 0.8 0.2 0 2 4.1 6 7 0.2 0.2-4.8 3.8-12.4 1.3-0.5-0.1-2.7-1.4-7.7-0.6-0.8 0.1-7.7 1.5-12.1-3.1-0.5-0.5-1.9-2.1-3-4.4q-0.3-0.6-0.5-1z"/><path class="b" d="m475.9 191c0.3 0 18.3 1.2 27.8 2.4 0.3 0-1.9 6.7-7.4 5.9-0.7-0.1-3.4-1.2-9.1-0.4-0.5 0.1-3.6 1.3-7-1.7-0.6-0.5-2.1-2.2-3.2-4.3q-0.3-0.6-1.1-1.9z"/><path fill-rule="evenodd" class="f" d="m467.3 178.5c4-3 9.8-2.2 11-1.8 4.3 1.2 6.1 0.8 7.2 0.5 8.5-2.2 11.3 0.1 12.8 1.5 11 9.9 4.4 22.5-2.4 20.6-5.3-1.6-8.9 0-11.3-0.1-8-0.5-9.2-14-16.6-20.1-4.2-3.5-8.9-0.2-12.1-1.5-8.2-3.3-12.4 0-12.7 0.3m-28.4-0.8c0.4-0.2 5.2-2.8 12.2-0.7 0.7 0.2 2.3 0.6 5.3-0.2 0.7-0.2 9.3-2.4 14.7 5.5 1.3 1.9 2.6 4.4 4 6.9zm36.2 11.5l30.7 9.7c-3.7 2.3-8.7 0.9-9.7 0.4-2.8-1.2-6.9-0.6-7.5-0.5-6.8 0.7-10.5-4.4-13.5-9.6zm-63.2-11.5c1.5 0.8 2.9 2 4.4 3.7 1.8 2.1 2.7 4.4 4 6.7l-35.3-9.4q-0.1 0-0.1 0c0.6-0.5 5-3.5 13.1-1.5 0.5 0.2 2.1 0.1 4-0.4 2.7-0.6 6.2-1.1 9.9 0.9q0 0 0 0zm-27 1q0 0 0 0c-2.8-2.1-5-1.8-5.1-1.8-12 0-16.9 13.3-10 20.1 6.9 6.9 12.2 1 16.6 2.1 6.7 1.5 11.1-1.1 11.7-1.4-4.3-2.9-6.4-8.5-6.6-9-2-5.5-4.4-8.5-6.6-10zm32.5-2.3c1.3-0.7 4.5-1.6 8.8 0.3 1.6 0.7 3.3-0.1 4.5-0.4 0.7-0.2 9.8-2.3 14 9.3 0 0.2 0.2 0.7 0.4 1.4l-33.2-9.3q0 0 0 0c1 0.2 1.4 0.7 5.5-1.3zm27.7 10.6l36.7 10.2c-4.6 3.6-11.7 1.6-12.6 1.3-4.8-2-7.4 0-12.5-0.4-1.9-0.1-3.5-0.7-4.8-1.5q0 0 0 0c-4.2-2.4-6.1-7.2-6.8-9.6zm-24.8 1.2l31.6 8.4q0 0 0 0c-2.4 1.4-8 1.4-10 0.7-2.2-0.6-4-0.3-4.5-0.1-4.5 1.8-8.1 0.3-9.3-0.4q0 0 0 0-0.3-0.1-0.4-0.2c-4-2.8-5.9-5.7-7.4-8.4zm-22.2 9.5q0 0 0 0c2.7 1.8 6.2 2.6 10.8 0.5 0.6-0.3 2.3-1.1 7.2 0.3 3.7 1.1 9.1 0.4 12-1.7q0 0 0 0z"/><path class="b" d="m346.2 184.2c0.5 4.3 4.2 7.8 4 7.2-0.9-1.9 0.5-8.6 0.6-8.5 4.3 4.3 9.1 5.7 8.8 5.6-0.3-0.2-1-2.5-1.2-3.3-1-5.1-4.1-7.8-3.9-7.6 5.4 3 8.9 10.8 9.1 11.6 0.9 3.5 3.3 4.7 3.2 4.7-10.8 0.4-14.8-8.6-14.9-7.9-0.6 10 1.4 11.3 0.8 11-9.1-5-6.9-13.1-6.5-13.7q0 0.1 0 0.9z"/><path class="b" d="m394.3 179.3c5.3 1.4 8.1 7.4 11 9.1 0.3 0.2-2.8-4.3-2.8-9.2 0-0.4 6.8 4.6 8.3 5.9 0.3 0.3 4.1 3.6 4.8 3.1 0.4-0.3-3.3-6.8-6.5-10-0.5-0.4 3.7 0.5 10.7 11.6 0.5 0.8 1.8 3.1 2.5 3.6 0.1 0-8.3 0.4-16.8-9.5-0.3-0.4 1.6 4.8 6.3 9.9 0.4 0.4-7.1 0.3-12.9-8.8-0.3-0.6-2.3-4.1-3.9-5.3q-0.3-0.2-0.7-0.4z"/><path class="b" d="m448.6 179.9c5.2 1.7 7.7 7.5 10.7 10.7 0.3 0.2-2.8-2.6-1.4-9.8 0.1-0.4 1.7 3.1 5.6 6.5 0.4 0.3 4.8 3.8 5.5 3.3 0.5-0.3-2.3-7-5.3-10.4-0.4-0.5 3.6 0.8 9.6 11.7 0.5 0.9 2.6 3.3 3.3 3.8 0.1 0.1-7.5 1.9-16.9-10.5-0.3-0.4 0.7 4.6 5 10.1 0.4 0.4-7 0.3-11.9-9.5-0.3-0.6-2-4.2-3.5-5.5q-0.3-0.3-0.7-0.4z"/><path class="b" d="m413.2 169.2c4.9-0.4 5.2-2.8 11.7-2.9 3.5 0 6.1 1.1 5.2 1.1-2.5 0-6-1-9.3 1.4-0.2 0.2 6 0.1 9 0.6-3 0.5-9.2 0.4-9 0.6 3.3 2.4 6.8 1.4 9.3 1.4 0.9 0-1.7 1.1-5.2 1.1-6.5-0.1-6.8-2.5-11.7-2.9z"/><path class="b" d="m439.7 169.2c4.9 0 5.4-2.4 12-2.1 3.4 0.2 5.9 1.6 5.1 1.5-2.6-0.2-6-1.4-9.4 0.8-0.2 0.1 5.9 0.4 8.9 1.2-3.1 0.3-9.2-0.3-9-0.1 3.1 2.7 6.7 1.9 9.2 2.1 0.8 0-1.8 1-5.3 0.7-6.5-0.5-6.6-3-11.5-3.7z"/><path class="b" d="m464.2 170.3c4.9 0 5.4-2.4 12-1.9 3.5 0.2 5.9 1.6 5.1 1.5-2.6-0.2-5.9-1.5-9.4 0.6-0.3 0.2 5.9 0.6 8.9 1.4-3.1 0.2-9.2-0.4-9-0.2 3 2.7 6.6 2 9.1 2.2 0.9 0.1-1.8 1-5.3 0.6-6.5-0.6-6.6-3.1-11.4-3.9z"/><path class="b" d="m387.6 170.2c4.8-0.8 4.9-3.2 11.5-3.8 3.5-0.3 6.1 0.7 5.2 0.8-2.5 0.1-6-0.7-9.1 2-0.2 0.2 5.9-0.4 9 0-3 0.7-9.2 1-9 1.2 3.5 2.2 6.9 0.9 9.4 0.7 0.9 0-1.6 1.3-5.1 1.5-6.5 0.4-7-2-11.9-2.1z"/><path class="b" d="m363.5 171.6c4.8-0.8 4.9-3.3 11.4-3.9 3.5-0.4 6.2 0.5 5.3 0.6-2.5 0.2-6.1-0.5-9.1 2.2-0.2 0.2 5.9-0.5 9-0.2-3 0.8-9.2 1.2-9 1.4 3.5 2.1 6.9 0.8 9.4 0.6 0.9-0.1-1.6 1.3-5 1.5-6.6 0.5-7.1-1.9-12-1.9z"/><path class="f" d="m346.1 120.7c1.6 3.6 3.4 7.4 5.3 11.6m3.3 7.7c1.6 4.2 3.1 8.6 4.2 13.4"/><path class="b" d="m344.7 120.2c1.2-1 1.1-3 2.1-1.7 2 2.3-1.4 2.9-2.1 2.6-0.6-0.4-0.2-0.7 0-0.9z"/><path class="b" d="m500.7 121.1c-0.7 0.3-4.1-0.3-2.1-2.6 1.1-1.3 0.9 0.7 2.1 1.7 0.3 0.2 0.6 0.5 0 0.9z"/><path class="e" d="m354.9 140.1c-1.9 0.1-3.8-2-4.1-4.5-0.3-2.5 1.1-4.6 3-4.7 2-0.1 3.9 2 4.2 4.5 0.3 2.5-1.1 4.6-3.1 4.7z"/><path fill-rule="evenodd" class="f" d="m493.8 131.4q0.3 0.2 0.5 0.5 0 0.1-0.1 0.3l0.1-0.3c1 1 1.2 2.3 0.8 4.5-0.6 2.5-2.4 4.4-4.4 4.3m6.1-14.2q1.4-3 2.7-5.8zm0 0q-1.2 2.6-2.5 5.3 0 0 0 0zm-5.9 13.5c-1.7 4.2-3.1 8.6-4.3 13.3zm-5.6 21c-0.1 1-0.5 4.7-0.5 5.7zm-133.4-29.5c-1.4 1-1.9 2.4-1.3 4.9 0.6 2.5 2.3 4.4 4.3 4.4z"/><path fill-rule="evenodd" class="e" d="m350.7 94.4c0.4-1.9 6.5-4.5 8.5-5 11.3-2.5 22.3 3.5 23.3 4.2 0.9 0.7-0.8 0.7 10.3-1.3 9-1.7 16 2.9 18.7 5.2m22.4 0.1c2.7-2.4 9.7-7 18.9-5.3 11.1 2 9.3 2 10.3 1.3 0.9-0.7 11.9-6.7 23.3-4.2 1.9 0.5 8.1 3.1 8.5 5zm53.6 37.8c0.3-2.5 2.1-4.5 4.1-4.5 2 0.1 3.3 2.2 3 4.7-0.3 2.6-2.1 4.6-4.1 4.5-2 0-3.3-2.1-3-4.7z"/><text style="transform:matrix(8,0,0,8,901.991,225.611)" ><tspan x="0" y="0" class="g">Government of 
</tspan></text><text style="transform:matrix(8,0,0,8,2006.257,225.611)" ><tspan x="0" y="0" class="a" dx="0" >W</tspan><tspan  y="0" class="a">estern</tspan><tspan  y="0" class="a" dx="0" > </tspan><tspan  y="0" class="a">Australia
</tspan></text><text style="transform:matrix(8,0,0,8,901.991,385.837)" ><tspan x="0" y="0" class="h">Department of 
</tspan></text><text style="transform:matrix(8,0,0,8,1876.413,385.837)" ><tspan x="0" y="0" class="i">J</tspan><tspan  y="0" class="i">u</tspan><tspan  y="0" class="i">s</tspan><tspan  y="0" class="i">t</tspan><tspan  y="0" class="i">i</tspan><tspan  y="0" class="i">c</tspan><tspan  y="0" class="i">e
</tspan></text><text style="transform:matrix(8,0,0,8,899.413,541.837)" ><tspan x="0" y="0" class="i">C</tspan><tspan  y="0" class="i">o</tspan><tspan  y="0" class="i">r</tspan><tspan  y="0" class="i">r</tspan><tspan  y="0" class="i">e</tspan><tspan  y="0" class="i">c</tspan><tspan  y="0" class="i">t</tspan><tspan  y="0" class="i">i</tspan><tspan  y="0" class="i">v</tspan><tspan  y="0" class="i">e</tspan><tspan  y="0" class="i"> </tspan><tspan  y="0" class="i">S</tspan><tspan  y="0" class="i">e</tspan><tspan  y="0" class="i">r</tspan><tspan  y="0" class="i">v</tspan><tspan  y="0" class="i">i</tspan><tspan  y="0" class="i">c</tspan><tspan  y="0" class="i">e</tspan><tspan  y="0" class="i">s</tspan><tspan  y="0" class="i">
</tspan></text></svg>